Public Sans-Thin.ufo
<glyph name="exclam" format="2">
	<advance width="451"/>
	<unicode hex="0021"/>
	<guideline x="140" y="98" angle="90"/>
	<guideline x="212" y="105" angle="90"/>
	<outline>
		<contour>
			<point x="287" y="158" type="line"/>
			<point x="164" y="158" type="line"/>
			<point x="164" y="0" type="line"/>
			<point x="287" y="0" type="line"/>
		</contour>
		<contour>
			<point x="279" y="1481" type="line"/>
			<point x="174" y="1481" type="line"/>
			<point x="193" y="295" type="line"/>
			<point x="258" y="295" type="line"/>
		</contour>
	</outline>
</glyph>
<glyph name="numbersign" format="2">
	<advance width="1208"/>
	<unicode hex="0023"/>
	<outline>
		<contour>
			<point x="565" y="1473" type="line"/>
			<point x="489" y="1483" type="line"/>
			<point x="262" y="10" type="line"/>
			<point x="338" y="-2" type="line"/>
		</contour>
		<contour>
			<point x="971" y="1473" type="line"/>
			<point x="895" y="1483" type="line"/>
			<point x="668" y="10" type="line"/>
			<point x="743" y="-2" type="line"/>
		</contour>
		<contour>
			<point x="1051" y="575" type="line"/>
			<point x="92" y="575" type="line"/>
			<point x="92" y="500" type="line"/>
			<point x="1051" y="500" type="line"/>
		</contour>
		<contour>
			<point x="1116" y="995" type="line"/>
			<point x="158" y="995" type="line"/>
			<point x="158" y="920" type="line"/>
			<point x="1116" y="920" type="line"/>
		</contour>
	</outline>
</glyph>
<glyph name="dollar" format="2">
	<advance width="1303"/>
	<unicode hex="0024"/>
	<outline>
		<contour>
			<point x="664" y="-20" type="curve" smooth="yes"/>
			<point x="952" y="-20"/>
			<point x="1159" y="145"/>
			<point x="1159" y="362" type="curve" smooth="yes"/>
			<point x="1159" y="524"/>
			<point x="1073" y="670"/>
			<point x="842" y="745" type="curve" smooth="yes"/>
			<point x="588" y="827" type="line" smooth="yes"/>
			<point x="356" y="903"/>
			<point x="279" y="965"/>
			<point x="279" y="1092" type="curve" smooth="yes"/>
			<point x="279" y="1317"/>
			<point x="498" y="1415"/>
			<point x="674" y="1415" type="curve" smooth="yes"/>
			<point x="874" y="1415"/>
			<point x="1008" y="1311"/>
			<point x="1049" y="1090" type="curve"/>
			<point x="1130" y="1106" type="line"/>
			<point x="1110" y="1311"/>
			<point x="952" y="1499"/>
			<point x="678" y="1499" type="curve" smooth="yes"/>
			<point x="379" y="1499"/>
			<point x="190" y="1323"/>
			<point x="190" y="1090" type="curve" smooth="yes"/>
			<point x="190" y="913"/>
			<point x="319" y="815"/>
			<point x="532" y="750" type="curve" smooth="yes"/>
			<point x="801" y="668" type="line" smooth="yes"/>
			<point x="989" y="610"/>
			<point x="1071" y="510"/>
			<point x="1071" y="358" type="curve" smooth="yes"/>
			<point x="1071" y="176"/>
			<point x="860" y="66"/>
			<point x="664" y="66" type="curve" smooth="yes"/>
			<point x="446" y="66"/>
			<point x="283" y="160"/>
			<point x="229" y="360" type="curve"/>
			<point x="143" y="342" type="line"/>
			<point x="188" y="113"/>
			<point x="393" y="-20"/>
		</contour>
		<contour>
			<point x="633" y="1712" type="line"/>
			<point x="633" y="1448" type="line"/>
			<point x="725" y="1448" type="line"/>
			<point x="725" y="1712" type="line"/>
		</contour>
		<contour>
			<point x="614" y="31" type="line"/>
			<point x="614" y="-233" type="line"/>
			<point x="707" y="-233" type="line"/>
			<point x="707" y="31" type="line"/>
		</contour>
	</outline>
</glyph>
<glyph name="percent" format="2">
	<advance width="1780"/>
	<unicode hex="0025"/>
	<outline>
		<contour>
			<point x="451" y="1503" type="curve" smooth="yes"/>
			<point x="260" y="1503"/>
			<point x="123" y="1358"/>
			<point x="123" y="1079" type="curve" smooth="yes"/>
			<point x="123" y="799"/>
			<point x="260" y="653"/>
			<point x="451" y="653" type="curve" smooth="yes"/>
			<point x="641" y="653"/>
			<point x="774" y="799"/>
			<point x="774" y="1079" type="curve" smooth="yes"/>
			<point x="774" y="1358"/>
			<point x="641" y="1503"/>
		</contour>
		<contour>
			<point x="449" y="713" type="curve" smooth="yes"/>
			<point x="293" y="713"/>
			<point x="193" y="868"/>
			<point x="193" y="1079" type="curve" smooth="yes"/>
			<point x="193" y="1288"/>
			<point x="293" y="1444"/>
			<point x="449" y="1444" type="curve" smooth="yes"/>
			<point x="604" y="1444"/>
			<point x="705" y="1290"/>
			<point x="705" y="1079" type="curve" smooth="yes"/>
			<point x="705" y="866"/>
			<point x="604" y="713"/>
		</contour>
		<contour>
			<point x="1333" y="831" type="curve" smooth="yes"/>
			<point x="1143" y="831"/>
			<point x="1006" y="684"/>
			<point x="1006" y="408" type="curve" smooth="yes"/>
			<point x="1006" y="125"/>
			<point x="1143" y="-20"/>
			<point x="1333" y="-20" type="curve" smooth="yes"/>
			<point x="1524" y="-20"/>
			<point x="1657" y="125"/>
			<point x="1657" y="408" type="curve" smooth="yes"/>
			<point x="1657" y="684"/>
			<point x="1524" y="831"/>
		</contour>
		<contour>
			<point x="1331" y="41" type="curve" smooth="yes"/>
			<point x="1182" y="41"/>
			<point x="1075" y="201"/>
			<point x="1075" y="406" type="curve" smooth="yes"/>
			<point x="1075" y="608"/>
			<point x="1182" y="770"/>
			<point x="1331" y="770" type="curve" smooth="yes"/>
			<point x="1481" y="770"/>
			<point x="1587" y="610"/>
			<point x="1587" y="406" type="curve" smooth="yes"/>
			<point x="1587" y="201"/>
			<point x="1481" y="41"/>
		</contour>
		<component base="fraction" xOffset="642"/>
	</outline>
</glyph>
<glyph name="ampersand" format="2">
	<advance width="1296"/>
	<unicode hex="0026"/>
	<guideline x="228" y="297" angle="310.1301"/>
	<outline>
		<contour>
			<point x="547" y="1503" type="curve" smooth="yes"/>
			<point x="354" y="1503"/>
			<point x="221" y="1368"/>
			<point x="221" y="1198" type="curve" smooth="yes"/>
			<point x="221" y="1067"/>
			<point x="287" y="944"/>
			<point x="412" y="815" type="curve"/>
			<point x="188" y="696"/>
			<point x="82" y="557"/>
			<point x="82" y="373" type="curve" smooth="yes"/>
			<point x="82" y="143"/>
			<point x="244" y="-10"/>
			<point x="498" y="-10" type="curve" smooth="yes"/>
			<point x="657" y="-10"/>
			<point x="805" y="53"/>
			<point x="944" y="184" type="curve"/>
			<point x="1106" y="0" type="line"/>
			<point x="1204" y="0" type="line"/>
			<point x="997" y="244" type="line"/>
			<point x="1104" y="375"/>
			<point x="1171" y="514"/>
			<point x="1178" y="754" type="curve"/>
			<point x="1110" y="754" type="line"/>
			<point x="1104" y="508"/>
			<point x="999" y="348"/>
			<point x="950" y="299" type="curve"/>
			<point x="532" y="786" type="line"/>
			<point x="877" y="958"/>
			<point x="905" y="1118"/>
			<point x="905" y="1194" type="curve" smooth="yes"/>
			<point x="905" y="1386"/>
			<point x="731" y="1503"/>
		</contour>
		<contour>
			<point x="547" y="1425" type="curve" smooth="yes"/>
			<point x="678" y="1425"/>
			<point x="821" y="1368"/>
			<point x="821" y="1198" type="curve" smooth="yes"/>
			<point x="821" y="1098"/>
			<point x="766" y="1004"/>
			<point x="487" y="848" type="curve"/>
			<point x="457" y="883" type="line" smooth="yes"/>
			<point x="416" y="928"/>
			<point x="305" y="1065"/>
			<point x="305" y="1200" type="curve" smooth="yes"/>
			<point x="305" y="1317"/>
			<point x="387" y="1425"/>
		</contour>
		<contour>
			<point x="459" y="756" type="curve"/>
			<point x="899" y="242" type="line"/>
			<point x="795" y="139"/>
			<point x="655" y="66"/>
			<point x="506" y="66" type="curve" smooth="yes"/>
			<point x="313" y="66"/>
			<point x="166" y="186"/>
			<point x="166" y="365" type="curve" smooth="yes"/>
			<point x="166" y="528"/>
			<point x="283" y="659"/>
		</contour>
	</outline>
</glyph>
<glyph name="quotesingle" format="2">
	<advance width="481"/>
	<unicode hex="0027"/>
	<outline>
		<contour>
			<point x="317" y="1481" type="line"/>
			<point x="164" y="1481" type="line"/>
			<point x="205" y="1098" type="line"/>
			<point x="272" y="1098" type="line"/>
		</contour>
	</outline>
</glyph>
<glyph name="parenleft" format="2">
	<advance width="557"/>
	<unicode hex="0028"/>
	<outline>
		<contour>
			<point x="506" y="1597" type="curve"/>
			<point x="457" y="1597" type="line"/>
			<point x="287" y="1346"/>
			<point x="164" y="1022"/>
			<point x="164" y="686" type="curve" smooth="yes"/>
			<point x="164" y="340"/>
			<point x="266" y="74"/>
			<point x="432" y="-213" type="curve"/>
			<point x="481" y="-213" type="line"/>
			<point x="338" y="90"/>
			<point x="262" y="379"/>
			<point x="262" y="684" type="curve" smooth="yes"/>
			<point x="262" y="1006"/>
			<point x="369" y="1333"/>
		</contour>
	</outline>
</glyph>
<glyph name="asterisk" format="2">
	<advance width="645"/>
	<unicode hex="002A"/>
	<outline>
		<contour>
			<point x="485" y="909" type="line"/>
			<point x="551" y="958" type="line"/>
			<point x="381" y="1174" type="line"/>
			<point x="614" y="1255" type="line"/>
			<point x="594" y="1319" type="line"/>
			<point x="362" y="1223" type="line"/>
			<point x="373" y="1481" type="line"/>
			<point x="289" y="1481" type="line"/>
			<point x="303" y="1223" type="line"/>
			<point x="74" y="1307" type="line"/>
			<point x="51" y="1241" type="line"/>
			<point x="289" y="1171" type="line"/>
			<point x="113" y="944" type="line"/>
			<point x="178" y="901" type="line"/>
			<point x="336" y="1147" type="line"/>
		</contour>
	</outline>
</glyph>
<glyph name="plus" format="2">
	<advance width="1067"/>
	<unicode hex="002B"/>
	<outline>
		<contour>
			<point x="934" y="782" type="line"/>
			<point x="133" y="780" type="line"/>
			<point x="133" y="705" type="line"/>
			<point x="934" y="707" type="line"/>
		</contour>
		<contour>
			<point x="573" y="344" type="line"/>
			<point x="571" y="1145" type="line"/>
			<point x="496" y="1145" type="line"/>
			<point x="498" y="344" type="line"/>
		</contour>
	</outline>
</glyph>
<glyph name="comma" format="1">
  <advance width="412"/>
  <unicode hex="002C"/>
  <outline>
    <contour>
      <point x="80" y="-222" type="line"/>
      <point x="144" y="-222" type="line"/>
      <point x="282" y="24" type="line"/>
      <point x="282" y="160" type="line"/>
      <point x="116" y="160" type="line"/>
      <point x="116" y="0" type="line"/>
      <point x="188" y="0" type="line"/>
    </contour>
  </outline>
</glyph>
<glyph name="hyphen" format="1">
  <advance width="730"/>
  <unicode hex="002D"/>
  <outline>
    <contour>
      <point x="600" y="558" type="line"/>
      <point x="130" y="556" type="line"/>
      <point x="130" y="478" type="line"/>
      <point x="600" y="480" type="line"/>
    </contour>
  </outline>
</glyph>
<glyph name="period" format="1">
  <advance width="362"/>
  <unicode hex="002E"/>
  <outline>
    <contour>
      <point x="242" y="154" type="line"/>
      <point x="120" y="154" type="line"/>
      <point x="120" y="0" type="line"/>
      <point x="242" y="0" type="line"/>
    </contour>
  </outline>
</glyph>
<glyph name="slash" format="1">
  <advance width="640"/>
  <unicode hex="002F"/>
  <outline>
    <contour>
      <point x="30" y="-118" type="line"/>
      <point x="114" y="-118" type="line"/>
      <point x="610" y="1446" type="line"/>
      <point x="526" y="1446" type="line"/>
    </contour>
  </outline>
</glyph>
<glyph name="zero" format="1">
  <advance width="1168"/>
  <unicode hex="0030"/>
  <outline>
    <contour>
      <point x="584" y="1466" type="curve" smooth="yes"/>
      <point x="302" y="1466"/>
      <point x="110" y="1222"/>
      <point x="110" y="716" type="curve" smooth="yes"/>
      <point x="110" y="216"/>
      <point x="298" y="-20"/>
      <point x="582" y="-20" type="curve" smooth="yes"/>
      <point x="866" y="-20"/>
      <point x="1058" y="218"/>
      <point x="1058" y="720" type="curve" smooth="yes"/>
      <point x="1058" y="1224"/>
      <point x="866" y="1466"/>
    </contour>
    <contour>
      <point x="586" y="62" type="curve" smooth="yes"/>
      <point x="346" y="62"/>
      <point x="200" y="260"/>
      <point x="200" y="720" type="curve" smooth="yes"/>
      <point x="200" y="1184"/>
      <point x="346" y="1384"/>
      <point x="584" y="1384" type="curve" smooth="yes"/>
      <point x="822" y="1384"/>
      <point x="964" y="1186"/>
      <point x="964" y="720" type="curve" smooth="yes"/>
      <point x="964" y="258"/>
      <point x="826" y="62"/>
    </contour>
  </outline>
</glyph>
<glyph name="one" format="2">
	<advance width="786"/>
	<unicode hex="0031"/>
	<outline>
		<contour>
			<point x="408" y="0" type="line"/>
			<point x="496" y="0" type="line"/>
			<point x="496" y="1481" type="line"/>
			<point x="424" y="1481" type="line"/>
			<point x="424" y="1368"/>
			<point x="377" y="1327"/>
			<point x="100" y="1327" type="curve"/>
			<point x="100" y="1247" type="line"/>
			<point x="408" y="1247" type="line"/>
		</contour>
	</outline>
</glyph>
<glyph name="two" format="2">
	<advance width="1142"/>
	<unicode hex="0032"/>
	<guideline x="493" y="272" angle="90"/>
	<outline>
		<contour>
			<point x="137" y="0" type="line"/>
			<point x="1032" y="0" type="line"/>
			<point x="1032" y="84" type="line"/>
			<point x="225" y="84" type="line"/>
			<point x="225" y="129" type="line" smooth="yes"/>
			<point x="225" y="610"/>
			<point x="1015" y="567"/>
			<point x="1015" y="1106" type="curve" smooth="yes"/>
			<point x="1015" y="1343"/>
			<point x="841" y="1501"/>
			<point x="579" y="1501" type="curve" smooth="yes"/>
			<point x="276" y="1501"/>
			<point x="108" y="1303"/>
			<point x="100" y="1073" type="curve"/>
			<point x="190" y="1073" type="line"/>
			<point x="198" y="1266"/>
			<point x="333" y="1415"/>
			<point x="571" y="1415" type="curve" smooth="yes"/>
			<point x="788" y="1415"/>
			<point x="929" y="1292"/>
			<point x="929" y="1108" type="curve" smooth="yes"/>
			<point x="929" y="631"/>
			<point x="137" y="666"/>
			<point x="137" y="129" type="curve" smooth="yes"/>
			<point x="137" y="84" type="line"/>
		</contour>
	</outline>
</glyph>
<glyph name="three" format="1">
  <advance width="1190"/>
  <unicode hex="0033"/>
  <outline>
    <contour>
      <point x="128" y="1048" type="curve"/>
      <point x="216" y="1048" type="line"/>
      <point x="216" y="1272"/>
      <point x="408" y="1384"/>
      <point x="580" y="1384" type="curve" smooth="yes"/>
      <point x="828" y="1384"/>
      <point x="948" y="1244"/>
      <point x="948" y="1108" type="curve" smooth="yes"/>
      <point x="948" y="950"/>
      <point x="768" y="802"/>
      <point x="542" y="802" type="curve" smooth="yes"/>
      <point x="420" y="802" type="line"/>
      <point x="420" y="720" type="line"/>
      <point x="542" y="720" type="line" smooth="yes"/>
      <point x="788" y="720"/>
      <point x="992" y="608"/>
      <point x="992" y="382" type="curve" smooth="yes"/>
      <point x="992" y="190"/>
      <point x="826" y="62"/>
      <point x="578" y="62" type="curve" smooth="yes"/>
      <point x="360" y="62"/>
      <point x="214" y="190"/>
      <point x="188" y="384" type="curve"/>
      <point x="100" y="384" type="line"/>
      <point x="112" y="142"/>
      <point x="318" y="-16"/>
      <point x="568" y="-20" type="curve" smooth="yes"/>
      <point x="878" y="-24"/>
      <point x="1080" y="144"/>
      <point x="1080" y="388" type="curve" smooth="yes"/>
      <point x="1080" y="568"/>
      <point x="968" y="708"/>
      <point x="748" y="768" type="curve"/>
      <point x="936" y="834"/>
      <point x="1036" y="964"/>
      <point x="1036" y="1108" type="curve" smooth="yes"/>
      <point x="1036" y="1322"/>
      <point x="854" y="1466"/>
      <point x="576" y="1466" type="curve" smooth="yes"/>
      <point x="336" y="1466"/>
      <point x="128" y="1298"/>
    </contour>
  </outline>
</glyph>
<glyph name="four" format="2">
	<advance width="1259"/>
	<unicode hex="0034"/>
	<guideline x="196" y="431" angle="53.4613"/>
	<outline>
		<contour>
			<point x="805" y="1481" type="line"/>
			<point x="100" y="528" type="line"/>
			<point x="100" y="428" type="line"/>
			<point x="813" y="428" type="line"/>
			<point x="813" y="0" type="line"/>
			<point x="897" y="0" type="line"/>
			<point x="897" y="428" type="line"/>
			<point x="1159" y="428" type="line"/>
			<point x="1159" y="512" type="line"/>
			<point x="897" y="512" type="line"/>
			<point x="897" y="1481" type="line"/>
		</contour>
		<contour>
			<point x="186" y="512" type="line"/>
			<point x="805" y="1343" type="line"/>
			<point x="805" y="512" type="line"/>
		</contour>
	</outline>
</glyph>
<glyph name="five" format="2">
	<advance width="1246"/>
	<unicode hex="0035"/>
	<outline>
		<contour>
			<point x="237" y="1481" type="line"/>
			<point x="171" y="692" type="line"/>
			<point x="272" y="692" type="line" smooth="yes"/>
			<point x="272" y="692"/>
			<point x="272" y="692"/>
			<point x="272" y="692" type="curve" smooth="yes"/>
			<point x="395" y="860"/>
			<point x="509" y="885"/>
			<point x="659" y="885" type="curve" smooth="yes"/>
			<point x="859" y="885"/>
			<point x="1046" y="735"/>
			<point x="1046" y="483" type="curve" smooth="yes"/>
			<point x="1046" y="213"/>
			<point x="884" y="59"/>
			<point x="640" y="59" type="curve" smooth="yes"/>
			<point x="427" y="59"/>
			<point x="266" y="190"/>
			<point x="204" y="389" type="curve"/>
			<point x="110" y="389" type="line"/>
			<point x="169" y="143"/>
			<point x="380" y="-20"/>
			<point x="636" y="-20" type="curve" smooth="yes"/>
			<point x="935" y="-20"/>
			<point x="1136" y="182"/>
			<point x="1136" y="485" type="curve" smooth="yes"/>
			<point x="1136" y="805"/>
			<point x="898" y="965"/>
			<point x="659" y="965" type="curve" smooth="yes"/>
			<point x="505" y="965"/>
			<point x="364" y="920"/>
			<point x="276" y="799" type="curve"/>
			<point x="323" y="1399" type="line"/>
			<point x="1054" y="1399" type="line"/>
			<point x="1054" y="1481" type="line"/>
		</contour>
	</outline>
</glyph>
<glyph name="six" format="1">
  <advance width="1170"/>
  <unicode hex="0036"/>
  <outline>
    <contour>
      <point x="634" y="1482" type="curve" smooth="yes"/>
      <point x="282" y="1482"/>
      <point x="110" y="1178"/>
      <point x="110" y="724" type="curve" smooth="yes"/>
      <point x="110" y="258"/>
      <point x="312" y="-4"/>
      <point x="614" y="-4" type="curve" smooth="yes"/>
      <point x="904" y="-4"/>
      <point x="1070" y="194"/>
      <point x="1070" y="490" type="curve" smooth="yes"/>
      <point x="1070" y="790"/>
      <point x="884" y="962"/>
      <point x="606" y="962" type="curve" smooth="yes"/>
      <point x="402" y="962"/>
      <point x="234" y="822"/>
      <point x="192" y="624" type="curve"/>
      <point x="172" y="1154"/>
      <point x="330" y="1404"/>
      <point x="634" y="1404" type="curve" smooth="yes"/>
      <point x="812" y="1404"/>
      <point x="938" y="1300"/>
      <point x="980" y="1148" type="curve"/>
      <point x="1062" y="1148" type="line"/>
      <point x="1014" y="1360"/>
      <point x="842" y="1482"/>
    </contour>
    <contour>
      <point x="616" y="880" type="curve" smooth="yes"/>
      <point x="868" y="880"/>
      <point x="980" y="722"/>
      <point x="980" y="486" type="curve" smooth="yes"/>
      <point x="980" y="242"/>
      <point x="836" y="78"/>
      <point x="620" y="78" type="curve" smooth="yes"/>
      <point x="386" y="78"/>
      <point x="232" y="274"/>
      <point x="236" y="524" type="curve"/>
      <point x="236" y="728"/>
      <point x="420" y="880"/>
    </contour>
  </outline>
</glyph>
<glyph name="seven" format="1">
  <advance width="1150"/>
  <unicode hex="0037"/>
  <outline>
    <contour>
      <point x="100" y="1446" type="line"/>
      <point x="100" y="1366" type="line"/>
      <point x="948" y="1366" type="line"/>
      <point x="632" y="872"/>
      <point x="424" y="294"/>
      <point x="358" y="0" type="curve"/>
      <point x="446" y="0" type="line"/>
      <point x="502" y="274"/>
      <point x="764" y="946"/>
      <point x="1050" y="1366" type="curve"/>
      <point x="1050" y="1446" type="line"/>
    </contour>
  </outline>
</glyph>
<glyph name="eight" format="1">
  <advance width="1278"/>
  <unicode hex="0038"/>
  <outline>
    <contour>
      <point x="638" y="1474" type="curve" smooth="yes"/>
      <point x="382" y="1474"/>
      <point x="184" y="1334"/>
      <point x="184" y="1092" type="curve" smooth="yes"/>
      <point x="184" y="926"/>
      <point x="280" y="830"/>
      <point x="428" y="774" type="curve"/>
      <point x="270" y="746"/>
      <point x="120" y="572"/>
      <point x="120" y="402" type="curve" smooth="yes"/>
      <point x="120" y="160"/>
      <point x="322" y="-2"/>
      <point x="638" y="-2" type="curve" smooth="yes"/>
      <point x="956" y="-2"/>
      <point x="1158" y="160"/>
      <point x="1158" y="402" type="curve" smooth="yes"/>
      <point x="1158" y="572"/>
      <point x="1008" y="746"/>
      <point x="850" y="774" type="curve"/>
      <point x="998" y="830"/>
      <point x="1092" y="926"/>
      <point x="1092" y="1092" type="curve" smooth="yes"/>
      <point x="1092" y="1334"/>
      <point x="896" y="1474"/>
    </contour>
    <contour>
      <point x="638" y="818" type="curve" smooth="yes"/>
      <point x="420" y="818"/>
      <point x="272" y="912"/>
      <point x="272" y="1096" type="curve" smooth="yes"/>
      <point x="272" y="1278"/>
      <point x="420" y="1394"/>
      <point x="638" y="1394" type="curve" smooth="yes"/>
      <point x="856" y="1394"/>
      <point x="1004" y="1280"/>
      <point x="1004" y="1096" type="curve" smooth="yes"/>
      <point x="1004" y="912"/>
      <point x="858" y="818"/>
    </contour>
    <contour>
      <point x="638" y="76" type="curve" smooth="yes"/>
      <point x="380" y="76"/>
      <point x="208" y="202"/>
      <point x="208" y="396" type="curve" smooth="yes"/>
      <point x="208" y="588"/>
      <point x="380" y="728"/>
      <point x="638" y="728" type="curve" smooth="yes"/>
      <point x="898" y="728"/>
      <point x="1070" y="588"/>
      <point x="1070" y="396" type="curve" smooth="yes"/>
      <point x="1070" y="202"/>
      <point x="898" y="76"/>
    </contour>
  </outline>
</glyph>
<glyph name="nine" format="2">
	<advance width="1213"/>
	<unicode hex="0039"/>
	<outline>
		<contour>
			<point x="558" y="-4" type="curve" smooth="yes"/>
			<point x="919" y="-4"/>
			<point x="1103" y="307"/>
			<point x="1103" y="772" type="curve" smooth="yes"/>
			<point x="1103" y="1249"/>
			<point x="898" y="1518"/>
			<point x="589" y="1518" type="curve" smooth="yes"/>
			<point x="292" y="1518"/>
			<point x="124" y="1315"/>
			<point x="124" y="1012" type="curve" smooth="yes"/>
			<point x="124" y="705"/>
			<point x="312" y="528"/>
			<point x="597" y="528" type="curve" smooth="yes"/>
			<point x="806" y="528"/>
			<point x="978" y="672"/>
			<point x="1021" y="874" type="curve"/>
			<point x="1041" y="332"/>
			<point x="869" y="76"/>
			<point x="558" y="76" type="curve" smooth="yes"/>
			<point x="376" y="76"/>
			<point x="237" y="180"/>
			<point x="194" y="336" type="curve"/>
			<point x="110" y="336" type="line"/>
			<point x="159" y="119"/>
			<point x="345" y="-4"/>
		</contour>
		<contour>
			<point x="587" y="612" type="curve" smooth="yes"/>
			<point x="329" y="612"/>
			<point x="214" y="774"/>
			<point x="214" y="1016" type="curve" smooth="yes"/>
			<point x="214" y="1266"/>
			<point x="362" y="1434"/>
			<point x="583" y="1434" type="curve" smooth="yes"/>
			<point x="822" y="1434"/>
			<point x="980" y="1233"/>
			<point x="976" y="977" type="curve"/>
			<point x="976" y="768"/>
			<point x="788" y="612"/>
		</contour>
	</outline>
</glyph>
<glyph name="colon" format="1">
  <advance width="362"/>
  <unicode hex="003A"/>
  <outline>
    <contour>
      <point x="242" y="976" type="line"/>
      <point x="120" y="976" type="line"/>
      <point x="120" y="820" type="line"/>
      <point x="242" y="820" type="line"/>
    </contour>
    <contour>
      <point x="242" y="160" type="line"/>
      <point x="120" y="160" type="line"/>
      <point x="120" y="6" type="line"/>
      <point x="242" y="6" type="line"/>
    </contour>
  </outline>
</glyph>
<glyph name="semicolon" format="1">
  <advance width="404"/>
  <unicode hex="003B"/>
  <outline>
    <contour>
      <point x="120" y="-262" type="line"/>
      <point x="162" y="-262" type="line"/>
      <point x="284" y="18" type="line"/>
      <point x="284" y="154" type="line"/>
      <point x="162" y="154" type="line"/>
      <point x="162" y="0" type="line"/>
      <point x="218" y="0" type="line"/>
    </contour>
    <contour>
      <point x="152" y="820" type="line"/>
      <point x="274" y="820" type="line"/>
      <point x="274" y="976" type="line"/>
      <point x="152" y="976" type="line"/>
    </contour>
  </outline>
</glyph>
<glyph name="less" format="2">
	<advance width="1053"/>
	<unicode hex="003C"/>
	<outline>
		<contour>
			<point x="918" y="449" type="line"/>
			<point x="256" y="715" type="line"/>
			<point x="920" y="979" type="line"/>
			<point x="920" y="1079" type="line"/>
			<point x="133" y="762" type="line"/>
			<point x="133" y="666" type="line"/>
			<point x="918" y="356" type="line"/>
		</contour>
	</outline>
</glyph>
<glyph name="equal" format="2">
	<advance width="1067"/>
	<unicode hex="003D"/>
	<outline>
		<contour>
			<point x="934" y="983" type="line"/>
			<point x="133" y="981" type="line"/>
			<point x="133" y="905" type="line"/>
			<point x="934" y="907" type="line"/>
		</contour>
		<contour>
			<point x="934" y="543" type="line"/>
			<point x="133" y="541" type="line"/>
			<point x="133" y="465" type="line"/>
			<point x="934" y="467" type="line"/>
		</contour>
	</outline>
</glyph>
<glyph name="greater" format="2">
	<advance width="1051"/>
	<unicode hex="003E"/>
	<outline>
		<contour>
			<point x="135" y="449" type="line"/>
			<point x="135" y="356" type="line"/>
			<point x="918" y="666" type="line"/>
			<point x="918" y="762" type="line"/>
			<point x="133" y="1079" type="line"/>
			<point x="133" y="979" type="line"/>
			<point x="797" y="715" type="line"/>
		</contour>
	</outline>
</glyph>
<glyph name="question" format="2">
	<advance width="1031"/>
	<unicode hex="003F"/>
	<outline>
		<contour>
			<point x="545" y="158" type="line"/>
			<point x="422" y="158" type="line"/>
			<point x="422" y="0" type="line"/>
			<point x="545" y="0" type="line"/>
		</contour>
		<contour>
			<point x="72" y="1245" type="curve"/>
			<point x="156" y="1206" type="line"/>
			<point x="201" y="1319"/>
			<point x="369" y="1417"/>
			<point x="524" y="1417" type="curve" smooth="yes"/>
			<point x="725" y="1417"/>
			<point x="854" y="1311"/>
			<point x="854" y="1139" type="curve" smooth="yes"/>
			<point x="854" y="807"/>
			<point x="440" y="698"/>
			<point x="440" y="299" type="curve"/>
			<point x="524" y="299" type="line"/>
			<point x="524" y="672"/>
			<point x="946" y="778"/>
			<point x="946" y="1139" type="curve" smooth="yes"/>
			<point x="946" y="1360"/>
			<point x="782" y="1501"/>
			<point x="524" y="1501" type="curve" smooth="yes"/>
			<point x="334" y="1501"/>
			<point x="158" y="1401"/>
		</contour>
	</outline>
</glyph>
<glyph name="at" format="1">
  <advance width="1690"/>
  <unicode hex="0040"/>
  <outline>
    <contour>
      <point x="1312" y="-70" type="curve"/>
      <point x="1260" y="-2" type="line"/>
      <point x="1156" y="-74"/>
      <point x="1070" y="-134"/>
      <point x="892" y="-134" type="curve" smooth="yes"/>
      <point x="438" y="-134"/>
      <point x="214" y="168"/>
      <point x="214" y="504" type="curve" smooth="yes"/>
      <point x="214" y="886"/>
      <point x="476" y="1206"/>
      <point x="890" y="1206" type="curve" smooth="yes"/>
      <point x="1160" y="1206"/>
      <point x="1472" y="1046"/>
      <point x="1472" y="652" type="curve" smooth="yes"/>
      <point x="1472" y="406"/>
      <point x="1350" y="242"/>
      <point x="1200" y="242" type="curve" smooth="yes"/>
      <point x="1120" y="242"/>
      <point x="1088" y="286"/>
      <point x="1110" y="418" type="curve" smooth="yes"/>
      <point x="1186" y="876" type="line"/>
      <point x="1104" y="876" type="line"/>
      <point x="1082" y="792" type="line" smooth="yes"/>
      <point x="1080" y="782"/>
      <point x="1072" y="782"/>
      <point x="1070" y="786" type="curve" smooth="yes"/>
      <point x="1026" y="872"/>
      <point x="942" y="926"/>
      <point x="836" y="926" type="curve" smooth="yes"/>
      <point x="626" y="926"/>
      <point x="470" y="728"/>
      <point x="470" y="474" type="curve" smooth="yes"/>
      <point x="470" y="266"/>
      <point x="596" y="130"/>
      <point x="732" y="130" type="curve" smooth="yes"/>
      <point x="868" y="130"/>
      <point x="952" y="192"/>
      <point x="1010" y="274" type="curve" smooth="yes"/>
      <point x="1022" y="288"/>
      <point x="1028" y="288"/>
      <point x="1032" y="270" type="curve" smooth="yes"/>
      <point x="1050" y="184"/>
      <point x="1104" y="158"/>
      <point x="1198" y="158" type="curve" smooth="yes"/>
      <point x="1406" y="158"/>
      <point x="1570" y="364"/>
      <point x="1570" y="664" type="curve" smooth="yes"/>
      <point x="1570" y="1100"/>
      <point x="1220" y="1288"/>
      <point x="892" y="1288" type="curve" smooth="yes"/>
      <point x="436" y="1288"/>
      <point x="120" y="930"/>
      <point x="120" y="508" type="curve" smooth="yes"/>
      <point x="120" y="108"/>
      <point x="398" y="-220"/>
      <point x="868" y="-220" type="curve" smooth="yes"/>
      <point x="1032" y="-220"/>
      <point x="1182" y="-166"/>
    </contour>
    <contour>
      <point x="568" y="476" type="curve" smooth="yes"/>
      <point x="568" y="676"/>
      <point x="674" y="840"/>
      <point x="840" y="840" type="curve" smooth="yes"/>
      <point x="952" y="840"/>
      <point x="1068" y="742"/>
      <point x="1034" y="518" type="curve" smooth="yes"/>
      <point x="1006" y="352"/>
      <point x="882" y="216"/>
      <point x="742" y="216" type="curve" smooth="yes"/>
      <point x="634" y="216"/>
      <point x="568" y="312"/>
    </contour>
  </outline>
</glyph>
<glyph name="A" format="1">
  <advance width="1308"/>
  <unicode hex="0041"/>
  <outline>
    <contour>
      <point x="70" y="0" type="line"/>
      <point x="154" y="0" type="line"/>
      <point x="324" y="456" type="line"/>
      <point x="986" y="456" type="line"/>
      <point x="1152" y="0" type="line"/>
      <point x="1238" y="0" type="line"/>
      <point x="710" y="1446" type="line"/>
      <point x="600" y="1446" type="line"/>
    </contour>
    <contour>
      <point x="352" y="542" type="line"/>
      <point x="656" y="1362" type="line"/>
      <point x="956" y="542" type="line"/>
    </contour>
    <contour>
      <point x="654" y="0" type="move" name="bottom"/>
    </contour>
    <contour>
      <point x="1234" y="24" type="move" name="ogonek"/>
    </contour>
    <contour>
      <point x="654" y="1446" type="move" name="top"/>
    </contour>
  </outline>
</glyph>
<glyph name="B" format="2">
	<advance width="1343"/>
	<unicode hex="0042"/>
	<outline>
		<contour>
			<point x="225" y="0" type="line"/>
			<point x="647" y="0" type="line"/>
			<point x="997" y="0"/>
			<point x="1202" y="131"/>
			<point x="1202" y="395" type="curve"/>
			<point x="1202" y="592"/>
			<point x="1092" y="715"/>
			<point x="872" y="752" type="curve"/>
			<point x="1085" y="813"/>
			<point x="1165" y="930"/>
			<point x="1165" y="1098" type="curve" smooth="yes"/>
			<point x="1165" y="1346"/>
			<point x="973" y="1481"/>
			<point x="641" y="1481" type="curve" smooth="yes"/>
			<point x="225" y="1481" type="line"/>
		</contour>
		<contour>
			<point x="305" y="84" type="line"/>
			<point x="305" y="707" type="line"/>
			<point x="666" y="707" type="line" smooth="yes"/>
			<point x="915" y="707"/>
			<point x="1122" y="623"/>
			<point x="1122" y="383" type="curve" smooth="yes"/>
			<point x="1122" y="166"/>
			<point x="952" y="84"/>
			<point x="637" y="84" type="curve"/>
		</contour>
		<contour>
			<point x="305" y="791" type="line"/>
			<point x="305" y="1399" type="line"/>
			<point x="633" y="1399" type="line" smooth="yes"/>
			<point x="903" y="1399"/>
			<point x="1085" y="1305"/>
			<point x="1085" y="1087" type="curve" smooth="yes"/>
			<point x="1085" y="844"/>
			<point x="850" y="791"/>
			<point x="666" y="791" type="curve" smooth="yes"/>
		</contour>
	</outline>
</glyph>
<glyph name="C" format="1">
  <advance width="1348"/>
  <unicode hex="0043"/>
  <outline>
    <contour>
      <point x="704" y="1466" type="curve" smooth="yes"/>
      <point x="340" y="1466"/>
      <point x="140" y="1190"/>
      <point x="140" y="718" type="curve" smooth="yes"/>
      <point x="140" y="248"/>
      <point x="344" y="-20"/>
      <point x="720" y="-20" type="curve" smooth="yes"/>
      <point x="958" y="-20"/>
      <point x="1188" y="138"/>
      <point x="1210" y="346" type="curve"/>
      <point x="1126" y="368" type="line"/>
      <point x="1080" y="174"/>
      <point x="922" y="62"/>
      <point x="724" y="62" type="curve" smooth="yes"/>
      <point x="386" y="62"/>
      <point x="228" y="298"/>
      <point x="228" y="718" type="curve" smooth="yes"/>
      <point x="228" y="1152"/>
      <point x="390" y="1384"/>
      <point x="708" y="1384" type="curve" smooth="yes"/>
      <point x="956" y="1384"/>
      <point x="1094" y="1246"/>
      <point x="1132" y="1058" type="curve"/>
      <point x="1218" y="1072" type="line"/>
      <point x="1194" y="1280"/>
      <point x="1000" y="1466"/>
    </contour>
    <contour>
      <point x="720" y="0" type="move" name="bottom"/>
    </contour>
    <contour>
      <point x="706" y="1446" type="move" name="top"/>
    </contour>
  </outline>
</glyph>
<glyph name="D" format="1">
  <advance width="1334"/>
  <unicode hex="0044"/>
  <outline>
    <contour>
      <point x="210" y="1446" type="curve"/>
      <point x="210" y="0" type="line"/>
      <point x="422" y="0" type="line" smooth="yes"/>
      <point x="954" y="0"/>
      <point x="1204" y="224"/>
      <point x="1204" y="734" type="curve" smooth="yes"/>
      <point x="1204" y="1216"/>
      <point x="986" y="1442"/>
      <point x="450" y="1444" type="curve" smooth="yes"/>
      <point x="330" y="1444"/>
      <point x="214" y="1446"/>
    </contour>
    <contour>
      <point x="296" y="1364" type="line"/>
      <point x="428" y="1364" type="line" smooth="yes"/>
      <point x="870" y="1364"/>
      <point x="1120" y="1224"/>
      <point x="1120" y="726" type="curve" smooth="yes"/>
      <point x="1120" y="254"/>
      <point x="884" y="82"/>
      <point x="416" y="82" type="curve" smooth="yes"/>
      <point x="296" y="82" type="line"/>
    </contour>
    <contour>
      <point x="704" y="0" type="move" name="bottom"/>
    </contour>
    <contour>
      <point x="652" y="724" type="move" name="center"/>
    </contour>
    <contour>
      <point x="640" y="1446" type="move" name="top"/>
    </contour>
  </outline>
</glyph>
<glyph name="E" format="1">
  <advance width="1188"/>
  <unicode hex="0045"/>
  <outline>
    <contour>
      <point x="220" y="0" type="line"/>
      <point x="1078" y="0" type="line"/>
      <point x="1078" y="82" type="line"/>
      <point x="298" y="84" type="line"/>
      <point x="298" y="690" type="line"/>
      <point x="998" y="690" type="line"/>
      <point x="998" y="772" type="line"/>
      <point x="298" y="772" type="line"/>
      <point x="298" y="1366" type="line"/>
      <point x="1050" y="1366" type="line"/>
      <point x="1050" y="1446" type="line"/>
      <point x="220" y="1446" type="line"/>
    </contour>
    <contour>
      <point x="694" y="0" type="move" name="bottom"/>
    </contour>
    <contour>
      <point x="1068" y="20" type="move" name="ogonek"/>
    </contour>
    <contour>
      <point x="640" y="1446" type="move" name="top"/>
    </contour>
  </outline>
</glyph>
<glyph name="F" format="1">
  <advance width="1118"/>
  <unicode hex="0046"/>
  <outline>
    <contour>
      <point x="210" y="1446" type="line"/>
      <point x="210" y="0" type="line"/>
      <point x="296" y="0" type="line"/>
      <point x="296" y="692" type="line"/>
      <point x="976" y="692" type="line"/>
      <point x="976" y="774" type="line"/>
      <point x="296" y="774" type="line"/>
      <point x="296" y="1366" type="line"/>
      <point x="1028" y="1366" type="line"/>
      <point x="1028" y="1446" type="line"/>
    </contour>
  </outline>
</glyph>
<glyph name="G" format="2">
	<advance width="1419"/>
	<unicode hex="0047"/>
	<anchor x="703" y="1446" name="top"/>
	<anchor x="701" y="0" name="bottom"/>
	<outline>
		<contour>
			<point x="701" y="-20" type="curve" smooth="yes"/>
			<point x="925" y="-20"/>
			<point x="1073" y="100"/>
			<point x="1151" y="252" type="curve"/>
			<point x="1151" y="0" type="line"/>
			<point x="1229" y="0" type="line"/>
			<point x="1229" y="736" type="line"/>
			<point x="747" y="736" type="line"/>
			<point x="747" y="666" type="line"/>
			<point x="1151" y="666" type="line"/>
			<point x="1151" y="498" type="line" smooth="yes"/>
			<point x="1151" y="314"/>
			<point x="1011" y="58"/>
			<point x="703" y="58" type="curve" smooth="yes"/>
			<point x="385" y="58"/>
			<point x="207" y="298"/>
			<point x="207" y="730" type="curve" smooth="yes"/>
			<point x="207" y="1138"/>
			<point x="389" y="1384"/>
			<point x="703" y="1384" type="curve" smooth="yes"/>
			<point x="911" y="1384"/>
			<point x="1077" y="1242"/>
			<point x="1107" y="1060" type="curve"/>
			<point x="1199" y="1076" type="line"/>
			<point x="1177" y="1288"/>
			<point x="943" y="1466"/>
			<point x="703" y="1466" type="curve" smooth="yes"/>
			<point x="349" y="1466"/>
			<point x="125" y="1198"/>
			<point x="125" y="718" type="curve" smooth="yes"/>
			<point x="125" y="252"/>
			<point x="339" y="-20"/>
		</contour>
	</outline>
</glyph>
<glyph name="H" format="2">
	<advance width="1524"/>
	<unicode hex="0048"/>
	<anchor x="757" y="1458" name="top"/>
	<anchor x="785" y="0" name="bottom"/>
	<outline>
		<contour>
			<point x="1226" y="712" type="line"/>
			<point x="1226" y="0" type="line"/>
			<point x="1304" y="0" type="line"/>
			<point x="1304" y="1446" type="line"/>
			<point x="1226" y="1446" type="line"/>
			<point x="1226" y="794" type="line"/>
			<point x="298" y="794" type="line"/>
			<point x="298" y="1446" type="line"/>
			<point x="220" y="1446" type="line"/>
			<point x="220" y="0" type="line"/>
			<point x="298" y="0" type="line"/>
			<point x="298" y="712" type="line"/>
		</contour>
	</outline>
</glyph>
<glyph name="I" format="1">
  <advance width="488"/>
  <unicode hex="0049"/>
  <outline>
    <contour>
      <point x="210" y="1446" type="line"/>
      <point x="210" y="0" type="line"/>
      <point x="288" y="0" type="line"/>
      <point x="288" y="1446" type="line"/>
    </contour>
    <contour>
      <point x="252" y="0" type="move" name="bottom"/>
    </contour>
    <contour>
      <point x="278" y="20" type="move" name="ogonek"/>
    </contour>
    <contour>
      <point x="250" y="1446" type="move" name="top"/>
    </contour>
  </outline>
</glyph>
<glyph name="J" format="1">
  <advance width="754"/>
  <unicode hex="004A"/>
  <outline>
    <contour>
      <point x="534" y="280" type="curve" smooth="yes"/>
      <point x="534" y="1446" type="line"/>
      <point x="456" y="1446" type="line"/>
      <point x="456" y="308" type="line" smooth="yes"/>
      <point x="456" y="126"/>
      <point x="412" y="62"/>
      <point x="286" y="62" type="curve" smooth="yes"/>
      <point x="184" y="62"/>
      <point x="134" y="104"/>
      <point x="90" y="124" type="curve"/>
      <point x="70" y="38" type="line"/>
      <point x="84" y="26"/>
      <point x="176" y="-20"/>
      <point x="290" y="-20" type="curve" smooth="yes"/>
      <point x="478" y="-20"/>
      <point x="534" y="96"/>
    </contour>
    <contour>
      <point x="494" y="1446" type="move" name="top"/>
    </contour>
  </outline>
</glyph>
<glyph name="K" format="1">
  <advance width="1292"/>
  <unicode hex="004B"/>
  <outline>
    <contour>
      <point x="1212" y="0" type="line"/>
      <point x="656" y="876" type="line"/>
      <point x="1178" y="1446" type="line"/>
      <point x="1070" y="1446" type="line"/>
      <point x="302" y="612" type="line"/>
      <point x="302" y="1446" type="line"/>
      <point x="220" y="1446" type="line"/>
      <point x="220" y="0" type="line"/>
      <point x="302" y="0" type="line"/>
      <point x="302" y="496" type="line"/>
      <point x="588" y="814" type="line"/>
      <point x="1108" y="0" type="line"/>
    </contour>
    <contour>
      <point x="664" y="0" type="move" name="bottom"/>
    </contour>
    <contour>
      <point x="698" y="1446" type="move" name="top"/>
    </contour>
  </outline>
</glyph>
<glyph name="L" format="1">
  <advance width="1104"/>
  <unicode hex="004C"/>
  <outline>
    <contour>
      <point x="212" y="1446" type="line"/>
      <point x="210" y="0" type="line"/>
      <point x="1034" y="0" type="line"/>
      <point x="1034" y="86" type="line"/>
      <point x="296" y="86" type="line"/>
      <point x="296" y="1446" type="line"/>
    </contour>
    <contour>
      <point x="610" y="0" type="move" name="bottom"/>
    </contour>
    <contour>
      <point x="256" y="1446" type="move" name="top"/>
    </contour>
    <contour>
      <point x="810" y="1446" type="move" name="topright"/>
    </contour>
  </outline>
</glyph>
<glyph name="M" format="1">
  <advance width="1676"/>
  <unicode hex="004D"/>
  <outline>
    <contour>
      <point x="210" y="0" type="line"/>
      <point x="296" y="0" type="line"/>
      <point x="296" y="1216" type="line"/>
      <point x="782" y="0" type="line"/>
      <point x="898" y="0" type="line"/>
      <point x="1390" y="1232" type="line"/>
      <point x="1390" y="0" type="line"/>
      <point x="1476" y="0" type="line"/>
      <point x="1476" y="1446" type="line"/>
      <point x="1390" y="1446" type="line"/>
      <point x="840" y="88" type="line"/>
      <point x="298" y="1446" type="line"/>
      <point x="210" y="1446" type="line"/>
    </contour>
  </outline>
</glyph>
<glyph name="N" format="1">
  <advance width="1422"/>
  <unicode hex="004E"/>
  <outline>
    <contour>
      <point x="1144" y="1446" type="line"/>
      <point x="1144" y="156" type="line"/>
      <point x="274" y="1446" type="line"/>
      <point x="210" y="1446" type="line"/>
      <point x="210" y="0" type="line"/>
      <point x="288" y="0" type="line"/>
      <point x="288" y="1286" type="line"/>
      <point x="1154" y="0" type="line"/>
      <point x="1222" y="0" type="line"/>
      <point x="1222" y="1446" type="line"/>
    </contour>
    <contour>
      <point x="668" y="0" type="move" name="bottom"/>
    </contour>
    <contour>
      <point x="716" y="1446" type="move" name="top"/>
    </contour>
  </outline>
</glyph>
<glyph name="O" format="1">
  <advance width="1454"/>
  <unicode hex="004F"/>
  <outline>
    <contour>
      <point x="728" y="-20" type="curve" smooth="yes"/>
      <point x="1094" y="-20"/>
      <point x="1314" y="238"/>
      <point x="1314" y="720" type="curve" smooth="yes"/>
      <point x="1314" y="1206"/>
      <point x="1094" y="1466"/>
      <point x="730" y="1466" type="curve" smooth="yes"/>
      <point x="362" y="1466"/>
      <point x="140" y="1204"/>
      <point x="140" y="716" type="curve" smooth="yes"/>
      <point x="140" y="236"/>
      <point x="360" y="-20"/>
    </contour>
    <contour>
      <point x="732" y="62" type="curve" smooth="yes"/>
      <point x="408" y="62"/>
      <point x="228" y="278"/>
      <point x="228" y="720" type="curve" smooth="yes"/>
      <point x="228" y="1164"/>
      <point x="408" y="1384"/>
      <point x="730" y="1384" type="curve" smooth="yes"/>
      <point x="1050" y="1384"/>
      <point x="1226" y="1166"/>
      <point x="1226" y="720" type="curve" smooth="yes"/>
      <point x="1226" y="276"/>
      <point x="1054" y="62"/>
    </contour>
    <contour>
      <point x="732" y="0" type="move" name="bottom"/>
    </contour>
    <contour>
      <point x="1108" y="1212" type="move" name="horn"/>
    </contour>
    <contour>
      <point x="868" y="18" type="move" name="ogonek"/>
    </contour>
    <contour>
      <point x="732" y="1446" type="move" name="top"/>
    </contour>
  </outline>
</glyph>
<glyph name="P" format="2">
	<advance width="1274"/>
	<unicode hex="0050"/>
	<outline>
		<contour>
			<point x="225" y="0" type="line"/>
			<point x="313" y="0" type="line"/>
			<point x="313" y="567" type="line"/>
			<point x="694" y="567" type="line" smooth="yes"/>
			<point x="997" y="567"/>
			<point x="1214" y="733"/>
			<point x="1214" y="1030" type="curve" smooth="yes"/>
			<point x="1214" y="1327"/>
			<point x="993" y="1481"/>
			<point x="682" y="1481" type="curve" smooth="yes"/>
			<point x="225" y="1481" type="line"/>
		</contour>
		<contour>
			<point x="313" y="655" type="line"/>
			<point x="313" y="1395" type="line"/>
			<point x="680" y="1395" type="line" smooth="yes"/>
			<point x="950" y="1395"/>
			<point x="1124" y="1282"/>
			<point x="1124" y="1036" type="curve" smooth="yes"/>
			<point x="1124" y="791"/>
			<point x="950" y="655"/>
			<point x="694" y="655" type="curve" smooth="yes"/>
		</contour>
	</outline>
</glyph>
<glyph name="Q" format="1">
  <advance width="1434"/>
  <unicode hex="0051"/>
  <outline>
    <contour>
      <point x="130" y="720" type="curve" smooth="yes"/>
      <point x="130" y="226"/>
      <point x="360" y="-20"/>
      <point x="718" y="-20" type="curve" smooth="yes"/>
      <point x="774" y="-20"/>
      <point x="830" y="-12"/>
      <point x="894" y="2" type="curve"/>
      <point x="996" y="-196"/>
      <point x="1190" y="-238"/>
      <point x="1286" y="-238" type="curve"/>
      <point x="1286" y="-158" type="line"/>
      <point x="1158" y="-152"/>
      <point x="1046" y="-100"/>
      <point x="980" y="36" type="curve"/>
      <point x="1214" y="158"/>
      <point x="1304" y="388"/>
      <point x="1304" y="720" type="curve" smooth="yes"/>
      <point x="1304" y="1210"/>
      <point x="1084" y="1466"/>
      <point x="718" y="1466" type="curve" smooth="yes"/>
      <point x="352" y="1466"/>
      <point x="130" y="1210"/>
    </contour>
    <contour>
      <point x="218" y="716" type="curve" smooth="yes"/>
      <point x="218" y="1154"/>
      <point x="392" y="1384"/>
      <point x="718" y="1384" type="curve" smooth="yes"/>
      <point x="1044" y="1384"/>
      <point x="1218" y="1154"/>
      <point x="1218" y="720" type="curve" smooth="yes"/>
      <point x="1218" y="274"/>
      <point x="1038" y="62"/>
      <point x="718" y="62" type="curve" smooth="yes"/>
      <point x="398" y="62"/>
      <point x="218" y="274"/>
    </contour>
  </outline>
</glyph>
<glyph name="R" format="1">
  <advance width="1314"/>
  <unicode hex="0052"/>
  <outline>
    <contour>
      <point x="1156" y="0" type="line"/>
      <point x="856" y="706" type="line"/>
      <point x="996" y="742"/>
      <point x="1164" y="846"/>
      <point x="1164" y="1088" type="curve" smooth="yes"/>
      <point x="1164" y="1326"/>
      <point x="1000" y="1446"/>
      <point x="720" y="1446" type="curve" smooth="yes"/>
      <point x="210" y="1446" type="line"/>
      <point x="210" y="0" type="line"/>
      <point x="288" y="0" type="line"/>
      <point x="288" y="688" type="line"/>
      <point x="774" y="688" type="line"/>
      <point x="1066" y="0" type="line"/>
    </contour>
    <contour>
      <point x="652" y="770" type="curve" smooth="yes"/>
      <point x="288" y="770" type="line"/>
      <point x="288" y="1366" type="line"/>
      <point x="718" y="1366" type="line" smooth="yes"/>
      <point x="954" y="1366"/>
      <point x="1080" y="1280"/>
      <point x="1080" y="1074" type="curve" smooth="yes"/>
      <point x="1080" y="856"/>
      <point x="930" y="770"/>
    </contour>
    <contour>
      <point x="642" y="0" type="move" name="bottom"/>
    </contour>
    <contour>
      <point x="628" y="1446" type="move" name="top"/>
    </contour>
  </outline>
</glyph>
<glyph name="S" format="1">
  <advance width="1312"/>
  <unicode hex="0053"/>
  <outline>
    <contour>
      <point x="668" y="-20" type="curve" smooth="yes"/>
      <point x="1010" y="-20"/>
      <point x="1182" y="150"/>
      <point x="1182" y="354" type="curve" smooth="yes"/>
      <point x="1182" y="518"/>
      <point x="1100" y="668"/>
      <point x="872" y="728" type="curve" smooth="yes"/>
      <point x="564" y="808" type="line" smooth="yes"/>
      <point x="336" y="868"/>
      <point x="262" y="942"/>
      <point x="262" y="1066" type="curve" smooth="yes"/>
      <point x="262" y="1286"/>
      <point x="484" y="1382"/>
      <point x="656" y="1382" type="curve" smooth="yes"/>
      <point x="852" y="1382"/>
      <point x="1034" y="1300"/>
      <point x="1074" y="1064" type="curve"/>
      <point x="1154" y="1080" type="line"/>
      <point x="1134" y="1280"/>
      <point x="988" y="1464"/>
      <point x="660" y="1464" type="curve" smooth="yes"/>
      <point x="368" y="1464"/>
      <point x="176" y="1292"/>
      <point x="176" y="1064" type="curve" smooth="yes"/>
      <point x="176" y="892"/>
      <point x="296" y="798"/>
      <point x="510" y="744" type="curve" smooth="yes"/>
      <point x="832" y="664" type="line" smooth="yes"/>
      <point x="1018" y="618"/>
      <point x="1096" y="504"/>
      <point x="1096" y="350" type="curve" smooth="yes"/>
      <point x="1096" y="180"/>
      <point x="920" y="58"/>
      <point x="668" y="58" type="curve" smooth="yes"/>
      <point x="456" y="58"/>
      <point x="258" y="156"/>
      <point x="214" y="352" type="curve"/>
      <point x="130" y="334" type="line"/>
      <point x="174" y="110"/>
      <point x="404" y="-20"/>
    </contour>
    <contour>
      <point x="644" y="0" type="move" name="bottom"/>
    </contour>
    <contour>
      <point x="656" y="1446" type="move" name="top"/>
    </contour>
  </outline>
</glyph>
<glyph name="T" format="1">
  <advance width="1090"/>
  <unicode hex="0054"/>
  <outline>
    <contour>
      <point x="30" y="1366" type="line"/>
      <point x="526" y="1366" type="line"/>
      <point x="526" y="0" type="line"/>
      <point x="604" y="0" type="line"/>
      <point x="604" y="1366" type="line"/>
      <point x="1060" y="1366" type="line"/>
      <point x="1060" y="1446" type="line"/>
      <point x="30" y="1446" type="line"/>
    </contour>
    <contour>
      <point x="568" y="4" type="move" name="bottom"/>
    </contour>
    <contour>
      <point x="568" y="1446" type="move" name="top"/>
    </contour>
  </outline>
</glyph>
<glyph name="U" format="1">
  <advance width="1368"/>
  <unicode hex="0055"/>
  <outline>
    <contour>
      <point x="1178" y="448" type="curve" smooth="yes"/>
      <point x="1178" y="1446" type="line"/>
      <point x="1100" y="1446" type="line"/>
      <point x="1100" y="444" type="line" smooth="yes"/>
      <point x="1100" y="188"/>
      <point x="966" y="56"/>
      <point x="698" y="56" type="curve" smooth="yes"/>
      <point x="432" y="56"/>
      <point x="306" y="192"/>
      <point x="306" y="444" type="curve" smooth="yes"/>
      <point x="306" y="1446" type="line"/>
      <point x="220" y="1446" type="line"/>
      <point x="220" y="478" type="line" smooth="yes"/>
      <point x="220" y="138"/>
      <point x="370" y="-20"/>
      <point x="698" y="-20" type="curve" smooth="yes"/>
      <point x="1020" y="-20"/>
      <point x="1178" y="134"/>
    </contour>
    <contour>
      <point x="696" y="4" type="move" name="bottom"/>
    </contour>
    <contour>
      <point x="1148" y="1212" type="move" name="horn"/>
    </contour>
    <contour>
      <point x="838" y="18" type="move" name="ogonek"/>
    </contour>
    <contour>
      <point x="702" y="1446" type="move" name="top"/>
    </contour>
  </outline>
</glyph>
<glyph name="V" format="1">
  <advance width="1212"/>
  <unicode hex="0056"/>
  <outline>
    <contour>
      <point x="1182" y="1446" type="line"/>
      <point x="1098" y="1446" type="line"/>
      <point x="600" y="82" type="line"/>
      <point x="116" y="1446" type="line"/>
      <point x="30" y="1446" type="line"/>
      <point x="542" y="0" type="line"/>
      <point x="658" y="0" type="line"/>
    </contour>
  </outline>
</glyph>
<glyph name="W" format="1">
  <advance width="1908"/>
  <unicode hex="0057"/>
  <outline>
    <contour>
      <point x="1838" y="1446" type="line"/>
      <point x="1752" y="1446" type="line"/>
      <point x="1368" y="98" type="line"/>
      <point x="990" y="1446" type="line"/>
      <point x="912" y="1446" type="line"/>
      <point x="528" y="98" type="line"/>
      <point x="158" y="1446" type="line"/>
      <point x="70" y="1446" type="line"/>
      <point x="476" y="0" type="line"/>
      <point x="580" y="0" type="line"/>
      <point x="950" y="1296" type="line"/>
      <point x="1312" y="0" type="line"/>
      <point x="1422" y="0" type="line"/>
    </contour>
    <contour>
      <point x="952" y="1446" type="move" name="top"/>
    </contour>
  </outline>
</glyph>
<glyph name="X" format="1">
  <advance width="1224"/>
  <unicode hex="0058"/>
  <outline>
    <contour>
      <point x="1164" y="0" type="line"/>
      <point x="662" y="742" type="line"/>
      <point x="1138" y="1446" type="line"/>
      <point x="1038" y="1446" type="line"/>
      <point x="610" y="816" type="line"/>
      <point x="186" y="1446" type="line"/>
      <point x="82" y="1446" type="line"/>
      <point x="560" y="742" type="line"/>
      <point x="60" y="0" type="line"/>
      <point x="160" y="0" type="line"/>
      <point x="612" y="664" type="line"/>
      <point x="1064" y="0" type="line"/>
    </contour>
  </outline>
</glyph>
<glyph name="Y" format="1">
  <advance width="1178"/>
  <unicode hex="0059"/>
  <outline>
    <contour>
      <point x="1108" y="1446" type="line"/>
      <point x="1022" y="1446" type="line"/>
      <point x="594" y="702" type="line"/>
      <point x="158" y="1446" type="line"/>
      <point x="70" y="1446" type="line"/>
      <point x="554" y="624" type="line"/>
      <point x="554" y="0" type="line"/>
      <point x="632" y="0" type="line"/>
      <point x="632" y="622" type="line"/>
    </contour>
    <contour>
      <point x="594" y="0" type="move" name="bottom"/>
    </contour>
    <contour>
      <point x="590" y="1450" type="move" name="top"/>
    </contour>
  </outline>
</glyph>
<glyph name="Z" format="1">
  <advance width="1172"/>
  <unicode hex="005A"/>
  <outline>
    <contour>
      <point x="110" y="0" type="line"/>
      <point x="1062" y="0" type="line"/>
      <point x="1062" y="78" type="line"/>
      <point x="208" y="78" type="line"/>
      <point x="1062" y="1386" type="line"/>
      <point x="1062" y="1446" type="line"/>
      <point x="128" y="1446" type="line"/>
      <point x="128" y="1368" type="line"/>
      <point x="960" y="1368" type="line"/>
      <point x="110" y="62" type="line"/>
    </contour>
    <contour>
      <point x="610" y="0" type="move" name="bottom"/>
    </contour>
    <contour>
      <point x="596" y="1446" type="move" name="top"/>
    </contour>
  </outline>
</glyph>
<glyph name="bracketleft" format="2">
	<advance width="551"/>
	<unicode hex="005B"/>
	<outline>
		<contour>
			<point x="215" y="1481" type="line"/>
			<point x="217" y="-330" type="line"/>
			<point x="508" y="-330" type="line"/>
			<point x="508" y="-256" type="line"/>
			<point x="301" y="-256" type="line"/>
			<point x="303" y="1407" type="line"/>
			<point x="510" y="1407" type="line"/>
			<point x="510" y="1481" type="line"/>
		</contour>
	</outline>
</glyph>
<glyph name="backslash" format="1">
  <advance width="640"/>
  <unicode hex="005C"/>
  <outline>
    <contour>
      <point x="524" y="-118" type="line"/>
      <point x="610" y="-118" type="line"/>
      <point x="114" y="1446" type="line"/>
      <point x="30" y="1446" type="line"/>
    </contour>
  </outline>
</glyph>
<glyph name="asciicircum" format="2">
	<advance width="946"/>
	<unicode hex="005E"/>
	<outline>
		<contour>
			<point x="735" y="274" type="line"/>
			<point x="834" y="274" type="line"/>
			<point x="539" y="1006" type="line" smooth="yes"/>
			<point x="500" y="1106"/>
			<point x="438" y="1098"/>
			<point x="403" y="1006" type="curve" smooth="yes"/>
			<point x="113" y="279" type="line"/>
			<point x="205" y="279" type="line"/>
			<point x="471" y="948" type="line"/>
		</contour>
	</outline>
</glyph>
<glyph name="underscore" format="1">
  <advance width="964"/>
  <unicode hex="005F"/>
  <outline>
    <contour>
      <point x="834" y="-118" type="line"/>
      <point x="130" y="-120" type="line"/>
      <point x="130" y="-198" type="line"/>
      <point x="834" y="-196" type="line"/>
    </contour>
  </outline>
</glyph>
<glyph name="a" format="1">
  <advance width="1083"/>
  <unicode hex="0061"/>
  <outline>
    <contour>
      <point x="447" y="-20" type="curve" smooth="yes"/>
      <point x="599" y="-20"/>
      <point x="747" y="28"/>
      <point x="837" y="200" type="curve"/>
      <point x="841" y="0" type="line"/>
      <point x="913" y="0" type="line"/>
      <point x="913" y="716" type="line" smooth="yes"/>
      <point x="913" y="926"/>
      <point x="763" y="1054"/>
      <point x="543" y="1054" type="curve" smooth="yes"/>
      <point x="303" y="1054"/>
      <point x="177" y="904"/>
      <point x="167" y="758" type="curve"/>
      <point x="251" y="758" type="line"/>
      <point x="273" y="900"/>
      <point x="389" y="978"/>
      <point x="539" y="978" type="curve" smooth="yes"/>
      <point x="715" y="978"/>
      <point x="835" y="880"/>
      <point x="835" y="714" type="curve" smooth="yes"/>
      <point x="835" y="614" type="line"/>
      <point x="597" y="606" type="line" smooth="yes"/>
      <point x="253" y="594"/>
      <point x="115" y="496"/>
      <point x="115" y="264" type="curve" smooth="yes"/>
      <point x="115" y="88"/>
      <point x="243" y="-20"/>
    </contour>
    <contour>
      <point x="459" y="54" type="curve" smooth="yes"/>
      <point x="301" y="54"/>
      <point x="197" y="134"/>
      <point x="197" y="270" type="curve" smooth="yes"/>
      <point x="197" y="450"/>
      <point x="305" y="526"/>
      <point x="635" y="532" type="curve" smooth="yes"/>
      <point x="835" y="536" type="line"/>
      <point x="835" y="334" type="line" smooth="yes"/>
      <point x="835" y="194"/>
      <point x="631" y="54"/>
    </contour>
    <contour>
      <point x="541" y="0" type="move" name="bottom"/>
    </contour>
    <contour>
      <point x="901" y="28" type="move" name="ogonek"/>
    </contour>
    <contour>
      <point x="541" y="1034" type="move" name="top"/>
    </contour>
  </outline>
</glyph>
<glyph name="b" format="2">
	<advance width="1162"/>
	<unicode hex="0062"/>
	<outline>
		<contour>
			<point x="623" y="-20" type="curve" smooth="yes"/>
			<point x="904" y="-20"/>
			<point x="1047" y="188"/>
			<point x="1047" y="520" type="curve" smooth="yes"/>
			<point x="1047" y="812"/>
			<point x="921" y="1054"/>
			<point x="623" y="1054" type="curve" smooth="yes"/>
			<point x="362" y="1054"/>
			<point x="282" y="884"/>
			<point x="263" y="840" type="curve"/>
			<point x="263" y="1486" type="line"/>
			<point x="185" y="1486" type="line"/>
			<point x="185" y="0" type="line"/>
			<point x="255" y="0" type="line"/>
			<point x="261" y="212" type="line"/>
			<point x="276" y="164"/>
			<point x="347" y="-20"/>
		</contour>
		<contour>
			<point x="621" y="54" type="curve" smooth="yes"/>
			<point x="406" y="54"/>
			<point x="267" y="208"/>
			<point x="263" y="356" type="curve"/>
			<point x="263" y="678" type="line"/>
			<point x="270" y="722"/>
			<point x="301" y="978"/>
			<point x="614" y="978" type="curve" smooth="yes"/>
			<point x="849" y="978"/>
			<point x="963" y="798"/>
			<point x="963" y="520" type="curve" smooth="yes"/>
			<point x="963" y="200"/>
			<point x="824" y="54"/>
		</contour>
	</outline>
</glyph>
<glyph name="c" format="1">
  <advance width="1100"/>
  <unicode hex="0063"/>
  <outline>
    <contour>
      <point x="568" y="1054" type="curve" smooth="yes"/>
      <point x="288" y="1054"/>
      <point x="120" y="830"/>
      <point x="120" y="512" type="curve" smooth="yes"/>
      <point x="120" y="196"/>
      <point x="288" y="-20"/>
      <point x="568" y="-20" type="curve" smooth="yes"/>
      <point x="738" y="-20"/>
      <point x="912" y="56"/>
      <point x="960" y="276" type="curve"/>
      <point x="876" y="276" type="line"/>
      <point x="842" y="122"/>
      <point x="716" y="54"/>
      <point x="576" y="54" type="curve" smooth="yes"/>
      <point x="342" y="54"/>
      <point x="202" y="238"/>
      <point x="202" y="516" type="curve" smooth="yes"/>
      <point x="202" y="792"/>
      <point x="346" y="978"/>
      <point x="578" y="978" type="curve" smooth="yes"/>
      <point x="708" y="978"/>
      <point x="830" y="918"/>
      <point x="876" y="754" type="curve"/>
      <point x="960" y="758" type="line"/>
      <point x="918" y="966"/>
      <point x="742" y="1054"/>
    </contour>
    <contour>
      <point x="570" y="0" type="move" name="bottom"/>
    </contour>
    <contour>
      <point x="568" y="1034" type="move" name="top"/>
    </contour>
  </outline>
</glyph>
<glyph name="d" format="1">
  <advance width="1162"/>
  <unicode hex="0064"/>
  <outline>
    <contour>
      <point x="544" y="-20" type="curve" smooth="yes"/>
      <point x="820" y="-20"/>
      <point x="890" y="164"/>
      <point x="906" y="212" type="curve"/>
      <point x="912" y="0" type="line"/>
      <point x="982" y="0" type="line"/>
      <point x="982" y="1486" type="line"/>
      <point x="904" y="1486" type="line"/>
      <point x="904" y="856" type="line"/>
      <point x="884" y="900"/>
      <point x="786" y="1054"/>
      <point x="544" y="1054" type="curve" smooth="yes"/>
      <point x="246" y="1054"/>
      <point x="120" y="812"/>
      <point x="120" y="520" type="curve" smooth="yes"/>
      <point x="120" y="188"/>
      <point x="262" y="-20"/>
    </contour>
    <contour>
      <point x="546" y="54" type="curve" smooth="yes"/>
      <point x="342" y="54"/>
      <point x="204" y="200"/>
      <point x="204" y="520" type="curve" smooth="yes"/>
      <point x="204" y="798"/>
      <point x="318" y="978"/>
      <point x="552" y="978" type="curve" smooth="yes"/>
      <point x="842" y="978"/>
      <point x="896" y="722"/>
      <point x="904" y="678" type="curve"/>
      <point x="904" y="356" type="line"/>
      <point x="900" y="208"/>
      <point x="760" y="54"/>
    </contour>
    <contour>
      <point x="574" y="0" type="move" name="bottom"/>
    </contour>
    <contour>
      <point x="598" y="516" type="move" name="center"/>
    </contour>
    <contour>
      <point x="1208" y="1446" type="move" name="topright"/>
    </contour>
  </outline>
</glyph>
<glyph name="e" format="1">
  <advance width="1119"/>
  <unicode hex="0065"/>
  <outline>
    <contour>
      <point x="209" y="498" type="curve"/>
      <point x="989" y="498" type="line"/>
      <point x="989" y="554" type="line"/>
      <point x="989" y="872"/>
      <point x="833" y="1054"/>
      <point x="569" y="1054" type="curve" smooth="yes"/>
      <point x="287" y="1054"/>
      <point x="125" y="850"/>
      <point x="125" y="508" type="curve" smooth="yes"/>
      <point x="125" y="170"/>
      <point x="311" y="-20"/>
      <point x="581" y="-20" type="curve" smooth="yes"/>
      <point x="765" y="-20"/>
      <point x="919" y="66"/>
      <point x="977" y="276" type="curve"/>
      <point x="893" y="276" type="line"/>
      <point x="849" y="138"/>
      <point x="743" y="58"/>
      <point x="581" y="58" type="curve" smooth="yes"/>
      <point x="321" y="58"/>
      <point x="209" y="264"/>
    </contour>
    <contour>
      <point x="211" y="574" type="line"/>
      <point x="209" y="768"/>
      <point x="315" y="976"/>
      <point x="567" y="976" type="curve" smooth="yes"/>
      <point x="799" y="976"/>
      <point x="907" y="804"/>
      <point x="907" y="574" type="curve"/>
    </contour>
    <contour>
      <point x="567" y="0" type="move" name="bottom"/>
    </contour>
    <contour>
      <point x="755" y="36" type="move" name="ogonek"/>
    </contour>
    <contour>
      <point x="569" y="1034" type="move" name="top"/>
    </contour>
  </outline>
</glyph>
<glyph name="f" format="1">
  <advance width="798"/>
  <unicode hex="0066"/>
  <outline>
    <contour>
      <point x="698" y="1034" type="line"/>
      <point x="414" y="1034" type="line"/>
      <point x="414" y="1222" type="line" smooth="yes"/>
      <point x="414" y="1322"/>
      <point x="440" y="1378"/>
      <point x="536" y="1378" type="curve" smooth="yes"/>
      <point x="708" y="1378" type="line"/>
      <point x="708" y="1446" type="line"/>
      <point x="556" y="1446" type="line" smooth="yes"/>
      <point x="400" y="1446"/>
      <point x="336" y="1366"/>
      <point x="336" y="1206" type="curve" smooth="yes"/>
      <point x="336" y="1034" type="line"/>
      <point x="90" y="1034" type="line"/>
      <point x="90" y="966" type="line"/>
      <point x="336" y="966" type="line"/>
      <point x="336" y="0" type="line"/>
      <point x="414" y="0" type="line"/>
      <point x="414" y="966" type="line"/>
      <point x="698" y="966" type="line"/>
    </contour>
  </outline>
</glyph>
<glyph name="g" format="1">
  <advance width="1158"/>
  <unicode hex="0067"/>
  <outline>
    <contour>
      <point x="538" y="-342" type="curve" smooth="yes"/>
      <point x="832" y="-342"/>
      <point x="1004" y="-232"/>
      <point x="1004" y="-38" type="curve" smooth="yes"/>
      <point x="1004" y="118"/>
      <point x="912" y="214"/>
      <point x="704" y="226" type="curve" smooth="yes"/>
      <point x="606" y="232"/>
      <point x="530" y="236"/>
      <point x="470" y="240" type="curve" smooth="yes"/>
      <point x="304" y="252"/>
      <point x="256" y="268"/>
      <point x="256" y="312" type="curve" smooth="yes"/>
      <point x="256" y="356"/>
      <point x="318" y="404"/>
      <point x="524" y="408" type="curve" smooth="yes"/>
      <point x="532" y="408"/>
      <point x="538" y="408"/>
      <point x="546" y="408" type="curve" smooth="yes"/>
      <point x="820" y="408"/>
      <point x="940" y="546"/>
      <point x="940" y="720" type="curve" smooth="yes"/>
      <point x="940" y="772"/>
      <point x="916" y="852"/>
      <point x="894" y="892" type="curve"/>
      <point x="1078" y="932" type="line"/>
      <point x="1078" y="1048" type="line"/>
      <point x="1052" y="1038"/>
      <point x="880" y="964"/>
      <point x="854" y="952" type="curve"/>
      <point x="774" y="1018"/>
      <point x="688" y="1050"/>
      <point x="560" y="1050" type="curve" smooth="yes"/>
      <point x="302" y="1050"/>
      <point x="150" y="926"/>
      <point x="150" y="720" type="curve" smooth="yes"/>
      <point x="150" y="590"/>
      <point x="198" y="514"/>
      <point x="328" y="444" type="curve"/>
      <point x="228" y="414"/>
      <point x="174" y="366"/>
      <point x="174" y="310" type="curve" smooth="yes"/>
      <point x="174" y="248"/>
      <point x="222" y="226"/>
      <point x="260" y="202" type="curve"/>
      <point x="230" y="176"/>
      <point x="70" y="104"/>
      <point x="70" y="-52" type="curve" smooth="yes"/>
      <point x="70" y="-234"/>
      <point x="238" y="-342"/>
    </contour>
    <contour>
      <point x="556" y="-268" type="curve" smooth="yes"/>
      <point x="300" y="-268"/>
      <point x="152" y="-188"/>
      <point x="152" y="-44" type="curve" smooth="yes"/>
      <point x="152" y="84"/>
      <point x="296" y="172"/>
      <point x="358" y="168" type="curve" smooth="yes"/>
      <point x="702" y="146" type="line" smooth="yes"/>
      <point x="866" y="136"/>
      <point x="922" y="70"/>
      <point x="922" y="-38" type="curve" smooth="yes"/>
      <point x="922" y="-196"/>
      <point x="754" y="-268"/>
    </contour>
    <contour>
      <point x="548" y="482" type="curve" smooth="yes"/>
      <point x="342" y="482"/>
      <point x="228" y="566"/>
      <point x="228" y="724" type="curve" smooth="yes"/>
      <point x="228" y="884"/>
      <point x="344" y="976"/>
      <point x="548" y="976" type="curve" smooth="yes"/>
      <point x="736" y="976"/>
      <point x="862" y="896"/>
      <point x="862" y="724" type="curve" smooth="yes"/>
      <point x="862" y="564"/>
      <point x="758" y="482"/>
    </contour>
    <contour>
      <point x="554" y="1034" type="move" name="top"/>
    </contour>
  </outline>
</glyph>
<glyph name="h" format="1">
  <advance width="1132"/>
  <unicode hex="0068"/>
  <outline>
    <contour>
      <point x="190" y="0" type="line"/>
      <point x="268" y="0" type="line"/>
      <point x="268" y="720" type="line"/>
      <point x="268" y="896"/>
      <point x="426" y="978"/>
      <point x="610" y="978" type="curve" smooth="yes"/>
      <point x="786" y="978"/>
      <point x="894" y="888"/>
      <point x="894" y="736" type="curve" smooth="yes"/>
      <point x="894" y="0" type="line"/>
      <point x="972" y="0" type="line"/>
      <point x="972" y="766" type="line" smooth="yes"/>
      <point x="972" y="936"/>
      <point x="818" y="1054"/>
      <point x="612" y="1054" type="curve" smooth="yes"/>
      <point x="444" y="1054"/>
      <point x="316" y="978"/>
      <point x="262" y="880" type="curve"/>
      <point x="262" y="1486" type="line"/>
      <point x="190" y="1486" type="line"/>
    </contour>
    <contour>
      <point x="602" y="0" type="move" name="bottom"/>
    </contour>
    <contour>
      <point x="226" y="1446" type="move" name="top"/>
    </contour>
  </outline>
</glyph>
<glyph name="i" format="2">
	<advance width="491"/>
	<unicode hex="0069"/>
	<anchor x="246" y="0" name="bottom"/>
	<outline>
		<contour>
			<point x="286" y="1034" type="line"/>
			<point x="207" y="1034" type="line"/>
			<point x="207" y="0" type="line"/>
			<point x="286" y="0" type="line"/>
		</contour>
		<contour>
			<point x="293" y="1444" type="line"/>
			<point x="198" y="1444" type="line"/>
			<point x="198" y="1324" type="line"/>
			<point x="293" y="1324" type="line"/>
		</contour>
	</outline>
</glyph>
<glyph name="j" format="1">
  <advance width="486"/>
  <unicode hex="006A"/>
  <outline>
    <contour>
      <point x="296" y="-100" type="curve" smooth="yes"/>
      <point x="296" y="1034" type="line"/>
      <point x="218" y="1034" type="line"/>
      <point x="218" y="-90" type="line" smooth="yes"/>
      <point x="218" y="-214"/>
      <point x="178" y="-258"/>
      <point x="74" y="-260" type="curve" smooth="yes"/>
      <point x="-50" y="-262" type="line"/>
      <point x="-50" y="-314" type="line" smooth="yes"/>
      <point x="-50" y="-314"/>
      <point x="-40" y="-332"/>
      <point x="76" y="-332" type="curve" smooth="yes"/>
      <point x="254" y="-332"/>
      <point x="296" y="-260"/>
    </contour>
    <contour>
      <point x="306" y="1414" type="line"/>
      <point x="210" y="1414" type="line"/>
      <point x="210" y="1294" type="line"/>
      <point x="306" y="1294" type="line"/>
    </contour>
  </outline>
</glyph>
<glyph name="k" format="1">
  <advance width="1078"/>
  <unicode hex="006B"/>
  <outline>
    <contour>
      <point x="1008" y="0" type="line"/>
      <point x="600" y="658" type="line"/>
      <point x="970" y="1034" type="line"/>
      <point x="860" y="1034" type="line"/>
      <point x="268" y="428" type="line"/>
      <point x="268" y="1486" type="line"/>
      <point x="190" y="1486" type="line"/>
      <point x="190" y="0" type="line"/>
      <point x="268" y="0" type="line"/>
      <point x="268" y="316" type="line"/>
      <point x="540" y="592" type="line"/>
      <point x="908" y="0" type="line"/>
    </contour>
    <contour>
      <point x="544" y="0" type="move" name="bottom"/>
    </contour>
  </outline>
</glyph>
<glyph name="l" format="1">
  <advance width="528"/>
  <unicode hex="006C"/>
  <outline>
    <contour>
      <point x="372" y="-8" type="curve" smooth="yes"/>
      <point x="386" y="-8"/>
      <point x="414" y="-6"/>
      <point x="438" y="0" type="curve"/>
      <point x="438" y="58" type="line"/>
      <point x="374" y="58" type="line"/>
      <point x="318" y="58"/>
      <point x="258" y="108"/>
      <point x="258" y="242" type="curve"/>
      <point x="258" y="1486" type="line"/>
      <point x="180" y="1486" type="line"/>
      <point x="180" y="242" type="line"/>
      <point x="180" y="100"/>
      <point x="234" y="-8"/>
    </contour>
    <contour>
      <point x="260" y="2" type="move" name="bottom"/>
    </contour>
    <contour>
      <point x="212" y="1524" type="move" name="top"/>
    </contour>
    <contour>
      <point x="496" y="1446" type="move" name="topright"/>
    </contour>
  </outline>
</glyph>
<glyph name="m" format="1">
  <advance width="1678"/>
  <unicode hex="006D"/>
  <outline>
    <contour>
      <point x="180" y="0" type="line"/>
      <point x="258" y="0" type="line"/>
      <point x="258" y="720" type="line" smooth="yes"/>
      <point x="258" y="906"/>
      <point x="418" y="978"/>
      <point x="548" y="978" type="curve" smooth="yes"/>
      <point x="664" y="978"/>
      <point x="804" y="904"/>
      <point x="804" y="752" type="curve" smooth="yes"/>
      <point x="804" y="0" type="line"/>
      <point x="882" y="0" type="line"/>
      <point x="882" y="720" type="line" smooth="yes"/>
      <point x="882" y="924"/>
      <point x="1054" y="978"/>
      <point x="1172" y="978" type="curve" smooth="yes"/>
      <point x="1308" y="978"/>
      <point x="1430" y="920"/>
      <point x="1430" y="670" type="curve" smooth="yes"/>
      <point x="1430" y="0" type="line"/>
      <point x="1508" y="0" type="line"/>
      <point x="1508" y="670" type="line" smooth="yes"/>
      <point x="1508" y="1002"/>
      <point x="1312" y="1054"/>
      <point x="1172" y="1054" type="curve" smooth="yes"/>
      <point x="1032" y="1054"/>
      <point x="918" y="990"/>
      <point x="856" y="882" type="curve"/>
      <point x="810" y="994"/>
      <point x="670" y="1054"/>
      <point x="550" y="1054" type="curve" smooth="yes"/>
      <point x="390" y="1054"/>
      <point x="302" y="972"/>
      <point x="252" y="880" type="curve"/>
      <point x="252" y="1034" type="line"/>
      <point x="180" y="1034" type="line"/>
    </contour>
  </outline>
</glyph>
<glyph name="n" format="1">
  <advance width="1122"/>
  <unicode hex="006E"/>
  <outline>
    <contour>
      <point x="180" y="0" type="line"/>
      <point x="258" y="0" type="line"/>
      <point x="258" y="720" type="line" smooth="yes"/>
      <point x="258" y="896"/>
      <point x="416" y="978"/>
      <point x="600" y="978" type="curve" smooth="yes"/>
      <point x="776" y="978"/>
      <point x="884" y="870"/>
      <point x="884" y="670" type="curve" smooth="yes"/>
      <point x="884" y="0" type="line"/>
      <point x="962" y="0" type="line"/>
      <point x="962" y="670" type="line" smooth="yes"/>
      <point x="962" y="934"/>
      <point x="806" y="1054"/>
      <point x="600" y="1054" type="curve" smooth="yes"/>
      <point x="432" y="1054"/>
      <point x="306" y="978"/>
      <point x="252" y="880" type="curve"/>
      <point x="252" y="1034" type="line"/>
      <point x="180" y="1034" type="line"/>
    </contour>
    <contour>
      <point x="574" y="0" type="move" name="bottom"/>
    </contour>
    <contour>
      <point x="592" y="1034" type="move" name="top"/>
    </contour>
  </outline>
</glyph>
<glyph name="o" format="1">
  <advance width="1130"/>
  <unicode hex="006F"/>
  <outline>
    <contour>
      <point x="566" y="-20" type="curve" smooth="yes"/>
      <point x="850" y="-20"/>
      <point x="1010" y="198"/>
      <point x="1010" y="514" type="curve" smooth="yes"/>
      <point x="1010" y="830"/>
      <point x="850" y="1054"/>
      <point x="568" y="1054" type="curve" smooth="yes"/>
      <point x="282" y="1054"/>
      <point x="120" y="828"/>
      <point x="120" y="510" type="curve" smooth="yes"/>
      <point x="120" y="196"/>
      <point x="278" y="-20"/>
    </contour>
    <contour>
      <point x="570" y="54" type="curve" smooth="yes"/>
      <point x="328" y="54"/>
      <point x="202" y="240"/>
      <point x="202" y="514" type="curve" smooth="yes"/>
      <point x="202" y="790"/>
      <point x="328" y="978"/>
      <point x="568" y="978" type="curve" smooth="yes"/>
      <point x="806" y="978"/>
      <point x="928" y="792"/>
      <point x="928" y="514" type="curve" smooth="yes"/>
      <point x="928" y="238"/>
      <point x="810" y="54"/>
    </contour>
    <contour>
      <point x="570" y="0" type="move" name="bottom"/>
    </contour>
    <contour>
      <point x="858" y="856" type="move" name="horn"/>
    </contour>
    <contour>
      <point x="690" y="20" type="move" name="ogonek"/>
    </contour>
    <contour>
      <point x="570" y="1034" type="move" name="top"/>
    </contour>
  </outline>
</glyph>
<glyph name="p" format="1">
  <advance width="1160"/>
  <unicode hex="0070"/>
  <outline>
    <contour>
      <point x="190" y="-322" type="line"/>
      <point x="268" y="-322" type="line"/>
      <point x="268" y="136" type="line"/>
      <point x="358" y="32"/>
      <point x="462" y="-20"/>
      <point x="582" y="-20" type="curve" smooth="yes"/>
      <point x="868" y="-20"/>
      <point x="1050" y="204"/>
      <point x="1050" y="536" type="curve" smooth="yes"/>
      <point x="1050" y="882"/>
      <point x="854" y="1054"/>
      <point x="604" y="1054" type="curve" smooth="yes"/>
      <point x="386" y="1054"/>
      <point x="296" y="918"/>
      <point x="264" y="880" type="curve"/>
      <point x="264" y="1034" type="line"/>
      <point x="190" y="1034" type="line"/>
    </contour>
    <contour>
      <point x="580" y="54" type="curve" smooth="yes"/>
      <point x="460" y="54"/>
      <point x="362" y="112"/>
      <point x="268" y="202" type="curve"/>
      <point x="268" y="710" type="line" smooth="yes"/>
      <point x="268" y="826"/>
      <point x="400" y="978"/>
      <point x="594" y="978" type="curve" smooth="yes"/>
      <point x="790" y="978"/>
      <point x="968" y="838"/>
      <point x="968" y="528" type="curve" smooth="yes"/>
      <point x="968" y="232"/>
      <point x="804" y="54"/>
    </contour>
  </outline>
</glyph>
<glyph name="q" format="1">
  <advance width="1160"/>
  <unicode hex="0071"/>
  <outline>
    <contour>
      <point x="980" y="-322" type="line"/>
      <point x="980" y="1034" type="line"/>
      <point x="906" y="1034" type="line"/>
      <point x="906" y="880" type="line"/>
      <point x="872" y="918"/>
      <point x="782" y="1054"/>
      <point x="564" y="1054" type="curve" smooth="yes"/>
      <point x="314" y="1054"/>
      <point x="120" y="882"/>
      <point x="120" y="536" type="curve" smooth="yes"/>
      <point x="120" y="204"/>
      <point x="300" y="-20"/>
      <point x="588" y="-20" type="curve" smooth="yes"/>
      <point x="746" y="-20"/>
      <point x="860" y="62"/>
      <point x="902" y="192" type="curve"/>
      <point x="902" y="-322" type="line"/>
    </contour>
    <contour>
      <point x="590" y="54" type="curve" smooth="yes"/>
      <point x="366" y="54"/>
      <point x="202" y="232"/>
      <point x="202" y="528" type="curve" smooth="yes"/>
      <point x="202" y="838"/>
      <point x="378" y="978"/>
      <point x="574" y="978" type="curve" smooth="yes"/>
      <point x="768" y="978"/>
      <point x="902" y="826"/>
      <point x="902" y="710" type="curve" smooth="yes"/>
      <point x="902" y="364" type="line"/>
      <point x="902" y="232"/>
      <point x="808" y="54"/>
    </contour>
  </outline>
</glyph>
<glyph name="r" format="2">
	<advance width="726"/>
	<unicode hex="0072"/>
	<anchor x="397" y="1034" name="top"/>
	<anchor x="218" y="0" name="bottom"/>
	<outline>
		<contour>
			<point x="180" y="0" type="line"/>
			<point x="258" y="0" type="line"/>
			<point x="258" y="720" type="line" smooth="yes"/>
			<point x="258" y="896"/>
			<point x="416" y="972"/>
			<point x="599" y="970" type="curve"/>
			<point x="618" y="970"/>
			<point x="619" y="970"/>
			<point x="629" y="964" type="curve"/>
			<point x="629" y="1047" type="line"/>
			<point x="621" y="1052"/>
			<point x="610" y="1054"/>
			<point x="599" y="1054" type="curve"/>
			<point x="432" y="1054"/>
			<point x="306" y="978"/>
			<point x="252" y="880" type="curve"/>
			<point x="252" y="1034" type="line"/>
			<point x="180" y="1034" type="line"/>
		</contour>
	</outline>
</glyph>
<glyph name="s" format="1">
  <advance width="966"/>
  <unicode hex="0073"/>
  <outline>
    <contour>
      <point x="496" y="-20" type="curve" smooth="yes"/>
      <point x="690" y="-20"/>
      <point x="856" y="80"/>
      <point x="856" y="270" type="curve" smooth="yes"/>
      <point x="856" y="380"/>
      <point x="800" y="481"/>
      <point x="650" y="523" type="curve" smooth="yes"/>
      <point x="404" y="591" type="line" smooth="yes"/>
      <point x="288" y="623"/>
      <point x="220" y="670"/>
      <point x="220" y="764" type="curve" smooth="yes"/>
      <point x="220" y="879"/>
      <point x="295" y="978"/>
      <point x="492" y="978" type="curve" smooth="yes"/>
      <point x="628" y="978"/>
      <point x="730" y="920"/>
      <point x="747" y="780" type="curve"/>
      <point x="830" y="780" type="line"/>
      <point x="821" y="944"/>
      <point x="697" y="1054"/>
      <point x="492" y="1054" type="curve" smooth="yes"/>
      <point x="278" y="1054"/>
      <point x="138" y="939"/>
      <point x="138" y="764" type="curve" smooth="yes"/>
      <point x="138" y="626"/>
      <point x="232" y="555"/>
      <point x="382" y="513" type="curve" smooth="yes"/>
      <point x="628" y="445" type="line" smooth="yes"/>
      <point x="724" y="418"/>
      <point x="774" y="362"/>
      <point x="774" y="266" type="curve" smooth="yes"/>
      <point x="774" y="134"/>
      <point x="662" y="56"/>
      <point x="496" y="56" type="curve" smooth="yes"/>
      <point x="330" y="56"/>
      <point x="211" y="132"/>
      <point x="183" y="276" type="curve"/>
      <point x="100" y="276" type="line"/>
      <point x="122" y="86"/>
      <point x="278" y="-20"/>
    </contour>
    <contour>
      <point x="470" y="0" type="move" name="bottom"/>
    </contour>
    <contour>
      <point x="496" y="1034" type="move" name="top"/>
    </contour>
  </outline>
</glyph>
<glyph name="t" format="1">
  <advance width="748"/>
  <unicode hex="0074"/>
  <outline>
    <contour>
      <point x="608" y="966" type="line"/>
      <point x="608" y="1034" type="line"/>
      <point x="370" y="1034" type="line"/>
      <point x="370" y="1324" type="line"/>
      <point x="308" y="1324" type="line"/>
      <point x="288" y="1034" type="line"/>
      <point x="120" y="1034" type="line"/>
      <point x="120" y="966" type="line"/>
      <point x="288" y="966" type="line"/>
      <point x="288" y="232" type="line" smooth="yes"/>
      <point x="288" y="66"/>
      <point x="336" y="0"/>
      <point x="492" y="0" type="curve" smooth="yes"/>
      <point x="542" y="0"/>
      <point x="592" y="2"/>
      <point x="618" y="10" type="curve"/>
      <point x="618" y="78" type="line"/>
      <point x="530" y="78" type="line" smooth="yes"/>
      <point x="410" y="78"/>
      <point x="370" y="98"/>
      <point x="370" y="242" type="curve" smooth="yes"/>
      <point x="370" y="966" type="line"/>
    </contour>
    <contour>
      <point x="442" y="0" type="move" name="bottom"/>
    </contour>
    <contour>
      <point x="384" y="620" type="move" name="center"/>
    </contour>
    <contour>
      <point x="724" y="1472" type="move" name="topright"/>
    </contour>
  </outline>
</glyph>
<glyph name="u" format="2">
	<advance width="1112"/>
	<unicode hex="0075"/>
	<anchor x="934" y="22" name="ogonek"/>
	<anchor x="560" y="1034" name="top"/>
	<anchor x="922" y="856" name="horn"/>
	<anchor x="558" y="0" name="bottom"/>
	<outline>
		<contour>
			<point x="560" y="-18" type="curve" smooth="yes"/>
			<point x="731" y="-20"/>
			<point x="837" y="64"/>
			<point x="874" y="192" type="curve"/>
			<point x="880" y="2" type="line"/>
			<point x="952" y="2" type="line"/>
			<point x="952" y="1038" type="line"/>
			<point x="874" y="1038" type="line"/>
			<point x="874" y="364" type="line"/>
			<point x="874" y="156"/>
			<point x="746" y="58"/>
			<point x="555" y="58" type="curve" smooth="yes"/>
			<point x="339" y="58"/>
			<point x="238" y="174"/>
			<point x="238" y="348" type="curve" smooth="yes"/>
			<point x="238" y="1038" type="line"/>
			<point x="160" y="1038" type="line"/>
			<point x="160" y="348" type="line" smooth="yes"/>
			<point x="160" y="102"/>
			<point x="320" y="-15"/>
		</contour>
	</outline>
</glyph>
<glyph name="v" format="1">
  <advance width="1060"/>
  <unicode hex="0076"/>
  <outline>
    <contour>
      <point x="950" y="1034" type="line"/>
      <point x="872" y="1034" type="line"/>
      <point x="542" y="88" type="line"/>
      <point x="516" y="88" type="line"/>
      <point x="194" y="1034" type="line"/>
      <point x="110" y="1034" type="line"/>
      <point x="468" y="0" type="line"/>
      <point x="594" y="0" type="line"/>
    </contour>
  </outline>
</glyph>
<glyph name="w" format="1">
  <advance width="1592"/>
  <unicode hex="0077"/>
  <outline>
    <contour>
      <point x="1492" y="1034" type="line"/>
      <point x="1410" y="1034" type="line"/>
      <point x="1148" y="90" type="line"/>
      <point x="1124" y="90" type="line"/>
      <point x="832" y="1034" type="line"/>
      <point x="760" y="1034" type="line"/>
      <point x="484" y="86" type="line"/>
      <point x="460" y="86" type="line"/>
      <point x="184" y="1034" type="line"/>
      <point x="100" y="1034" type="line"/>
      <point x="404" y="0" type="line"/>
      <point x="540" y="0" type="line"/>
      <point x="796" y="900" type="line"/>
      <point x="1074" y="0" type="line"/>
      <point x="1206" y="0" type="line"/>
    </contour>
    <contour>
      <point x="804" y="1034" type="move" name="top"/>
    </contour>
  </outline>
</glyph>
<glyph name="x" format="1">
  <advance width="1092"/>
  <unicode hex="0078"/>
  <outline>
    <contour>
      <point x="992" y="0" type="line"/>
      <point x="592" y="536" type="line"/>
      <point x="962" y="1034" type="line"/>
      <point x="864" y="1034" type="line"/>
      <point x="540" y="598" type="line"/>
      <point x="218" y="1034" type="line"/>
      <point x="120" y="1034" type="line"/>
      <point x="490" y="536" type="line"/>
      <point x="90" y="0" type="line"/>
      <point x="188" y="0" type="line"/>
      <point x="540" y="474" type="line"/>
      <point x="894" y="0" type="line"/>
    </contour>
  </outline>
</glyph>
<glyph name="y" format="1">
  <advance width="1078"/>
  <unicode hex="0079"/>
  <outline>
    <contour>
      <point x="256" y="-330" type="curve" smooth="yes"/>
      <point x="380" y="-330"/>
      <point x="474" y="-280"/>
      <point x="526" y="-150" type="curve" smooth="yes"/>
      <point x="978" y="1034" type="line"/>
      <point x="902" y="1034" type="line"/>
      <point x="546" y="112" type="line"/>
      <point x="184" y="1034" type="line"/>
      <point x="100" y="1034" type="line"/>
      <point x="504" y="6" type="line"/>
      <point x="452" y="-132" type="line"/>
      <point x="422" y="-204"/>
      <point x="370" y="-260"/>
      <point x="242" y="-260" type="curve" smooth="yes"/>
      <point x="132" y="-260" type="line"/>
      <point x="132" y="-314" type="line" smooth="yes"/>
      <point x="132" y="-314"/>
      <point x="156" y="-330"/>
    </contour>
    <contour>
      <point x="546" y="1034" type="move" name="top"/>
    </contour>
  </outline>
</glyph>
<glyph name="z" format="1">
  <advance width="1090"/>
  <unicode hex="007A"/>
  <outline>
    <contour>
      <point x="160" y="0" type="line"/>
      <point x="910" y="0" type="line"/>
      <point x="910" y="68" type="line"/>
      <point x="248" y="68" type="line"/>
      <point x="903" y="966" type="line"/>
      <point x="903" y="1034" type="line"/>
      <point x="184" y="1034" type="line"/>
      <point x="184" y="966" type="line"/>
      <point x="817" y="966" type="line"/>
      <point x="160" y="68" type="line"/>
    </contour>
    <contour>
      <point x="550" y="0" type="move" name="bottom"/>
    </contour>
    <contour>
      <point x="550" y="1034" type="move" name="top"/>
    </contour>
  </outline>
</glyph>
<glyph name="braceleft" format="2">
	<advance width="555"/>
	<unicode hex="007B"/>
	<outline>
		<contour>
			<point x="242" y="1303" type="curve" smooth="yes"/>
			<point x="242" y="838" type="line" smooth="yes"/>
			<point x="242" y="717"/>
			<point x="166" y="616"/>
			<point x="10" y="614" type="curve"/>
			<point x="10" y="537" type="line"/>
			<point x="164" y="537"/>
			<point x="242" y="420"/>
			<point x="242" y="324" type="curve" smooth="yes"/>
			<point x="242" y="-145" type="line" smooth="yes"/>
			<point x="242" y="-248"/>
			<point x="301" y="-330"/>
			<point x="459" y="-330" type="curve" smooth="yes"/>
			<point x="514" y="-330" type="line"/>
			<point x="514" y="-256" type="line"/>
			<point x="459" y="-256" type="line" smooth="yes"/>
			<point x="358" y="-256"/>
			<point x="330" y="-221"/>
			<point x="330" y="-145" type="curve" smooth="yes"/>
			<point x="330" y="324" type="line" smooth="yes"/>
			<point x="330" y="489"/>
			<point x="244" y="561"/>
			<point x="141" y="569" type="curve" smooth="yes"/>
			<point x="123" y="571"/>
			<point x="125" y="582"/>
			<point x="141" y="584" type="curve" smooth="yes"/>
			<point x="246" y="594"/>
			<point x="330" y="676"/>
			<point x="330" y="838" type="curve" smooth="yes"/>
			<point x="330" y="1303" type="line" smooth="yes"/>
			<point x="330" y="1376"/>
			<point x="365" y="1407"/>
			<point x="457" y="1407" type="curve" smooth="yes"/>
			<point x="514" y="1407" type="line"/>
			<point x="514" y="1481" type="line"/>
			<point x="457" y="1481" type="line" smooth="yes"/>
			<point x="309" y="1481"/>
			<point x="242" y="1405"/>
		</contour>
	</outline>
</glyph>
<glyph name="bar" format="1">
  <advance width="486"/>
  <unicode hex="007C"/>
  <outline>
    <contour>
      <point x="286" y="-322" type="line"/>
      <point x="286" y="1652" type="line"/>
      <point x="210" y="1652" type="line"/>
      <point x="212" y="-322" type="line"/>
    </contour>
  </outline>
</glyph>
<glyph name="asciitilde" format="2">
	<advance width="1073"/>
	<unicode hex="007E"/>
	<outline>
		<contour>
			<point x="950" y="756" type="curve"/>
			<point x="924" y="825" type="line"/>
			<point x="887" y="786"/>
			<point x="838" y="741"/>
			<point x="731" y="741" type="curve" smooth="yes"/>
			<point x="590" y="741"/>
			<point x="496" y="831"/>
			<point x="352" y="831" type="curve" smooth="yes"/>
			<point x="240" y="831"/>
			<point x="176" y="782"/>
			<point x="123" y="735" type="curve"/>
			<point x="147" y="670" type="line"/>
			<point x="190" y="713"/>
			<point x="254" y="758"/>
			<point x="358" y="758" type="curve" smooth="yes"/>
			<point x="500" y="758"/>
			<point x="569" y="670"/>
			<point x="729" y="670" type="curve" smooth="yes"/>
			<point x="852" y="670"/>
			<point x="922" y="719"/>
		</contour>
	</outline>
</glyph>
<glyph name="exclamdown" format="1">
  <advance width="440"/>
  <unicode hex="00A1"/>
  <outline>
    <contour>
      <point x="280" y="880" type="line"/>
      <point x="280" y="1034" type="line"/>
      <point x="160" y="1034" type="line"/>
      <point x="160" y="880" type="line"/>
    </contour>
    <contour>
      <point x="272" y="-322" type="line"/>
      <point x="252" y="744" type="line"/>
      <point x="188" y="744" type="line"/>
      <point x="170" y="-322" type="line"/>
    </contour>
  </outline>
</glyph>
<glyph name="cent" format="2">
	<advance width="1075"/>
	<unicode hex="00A2"/>
	<outline>
		<contour>
			<point x="608" y="0" type="line"/>
			<point x="608" y="242" type="line"/>
			<point x="526" y="242" type="line"/>
			<point x="526" y="0" type="line"/>
		</contour>
		<contour>
			<point x="608" y="1239" type="line"/>
			<point x="608" y="1481" type="line"/>
			<point x="526" y="1481" type="line"/>
			<point x="526" y="1239" type="line"/>
		</contour>
		<component base="c" yOffset="227"/>
	</outline>
</glyph>
<glyph name="sterling" format="2">
	<advance width="1184"/>
	<unicode hex="00A3"/>
	<outline>
		<contour>
			<point x="20" y="0" type="line"/>
			<point x="702" y="0" type="line" smooth="yes"/>
			<point x="881" y="0"/>
			<point x="1010" y="72"/>
			<point x="1071" y="219" type="curve"/>
			<point x="997" y="250" type="line"/>
			<point x="948" y="123"/>
			<point x="850" y="80"/>
			<point x="702" y="80" type="curve" smooth="yes"/>
			<point x="266" y="80" type="line"/>
			<point x="299" y="117"/>
			<point x="385" y="229"/>
			<point x="385" y="463" type="curve" smooth="yes"/>
			<point x="385" y="543"/>
			<point x="377" y="616"/>
			<point x="356" y="717" type="curve"/>
			<point x="707" y="717" type="line"/>
			<point x="707" y="793" type="line"/>
			<point x="346" y="793" type="line"/>
			<point x="309" y="897"/>
			<point x="285" y="1034"/>
			<point x="285" y="1133" type="curve" smooth="yes"/>
			<point x="285" y="1313"/>
			<point x="428" y="1415"/>
			<point x="602" y="1415" type="curve" smooth="yes"/>
			<point x="750" y="1415"/>
			<point x="831" y="1362"/>
			<point x="881" y="1270" type="curve"/>
			<point x="956" y="1309" type="line"/>
			<point x="918" y="1403"/>
			<point x="766" y="1501"/>
			<point x="598" y="1501" type="curve" smooth="yes"/>
			<point x="344" y="1501"/>
			<point x="133" y="1284"/>
			<point x="221" y="944" type="curve" smooth="yes"/>
			<point x="262" y="791" type="line"/>
			<point x="68" y="791" type="line"/>
			<point x="68" y="715" type="line"/>
			<point x="272" y="715" type="line"/>
			<point x="293" y="590"/>
			<point x="299" y="502"/>
			<point x="299" y="428" type="curve" smooth="yes"/>
			<point x="299" y="186"/>
			<point x="209" y="78"/>
			<point x="104" y="78" type="curve" smooth="yes"/>
			<point x="20" y="78" type="line"/>
		</contour>
	</outline>
</glyph>
<glyph name="currency" format="2">
	<advance width="1026"/>
	<unicode hex="00A4"/>
	<outline>
		<contour>
			<point x="510" y="408" type="curve" smooth="yes"/>
			<point x="588" y="408"/>
			<point x="659" y="436"/>
			<point x="719" y="481" type="curve"/>
			<point x="836" y="367" type="line"/>
			<point x="893" y="426" type="line"/>
			<point x="786" y="526" type="line" smooth="yes"/>
			<point x="776" y="537"/>
			<point x="778" y="545"/>
			<point x="784" y="555" type="curve" smooth="yes"/>
			<point x="823" y="606"/>
			<point x="844" y="674"/>
			<point x="844" y="745" type="curve" smooth="yes"/>
			<point x="844" y="821"/>
			<point x="817" y="893"/>
			<point x="774" y="950" type="curve"/>
			<point x="891" y="1067" type="line"/>
			<point x="834" y="1126" type="line"/>
			<point x="727" y="1020" type="line" smooth="yes"/>
			<point x="719" y="1012"/>
			<point x="711" y="1012"/>
			<point x="700" y="1018" type="curve" smooth="yes"/>
			<point x="647" y="1059"/>
			<point x="580" y="1079"/>
			<point x="510" y="1079" type="curve" smooth="yes"/>
			<point x="434" y="1079"/>
			<point x="358" y="1055"/>
			<point x="303" y="1010" type="curve"/>
			<point x="195" y="1122" type="line"/>
			<point x="135" y="1065" type="line"/>
			<point x="233" y="965" type="line" smooth="yes"/>
			<point x="240" y="958"/>
			<point x="242" y="950"/>
			<point x="236" y="940" type="curve" smooth="yes"/>
			<point x="197" y="887"/>
			<point x="174" y="819"/>
			<point x="174" y="745" type="curve" smooth="yes"/>
			<point x="174" y="668"/>
			<point x="197" y="596"/>
			<point x="242" y="535" type="curve"/>
			<point x="133" y="428" type="line"/>
			<point x="190" y="365" type="line"/>
			<point x="289" y="467" type="line" smooth="yes"/>
			<point x="297" y="477"/>
			<point x="305" y="475"/>
			<point x="313" y="469" type="curve" smooth="yes"/>
			<point x="369" y="430"/>
			<point x="436" y="408"/>
		</contour>
		<contour>
			<point x="514" y="496" type="curve" smooth="yes"/>
			<point x="371" y="496"/>
			<point x="264" y="612"/>
			<point x="264" y="745" type="curve" smooth="yes"/>
			<point x="264" y="877"/>
			<point x="371" y="995"/>
			<point x="514" y="995" type="curve" smooth="yes"/>
			<point x="655" y="995"/>
			<point x="762" y="877"/>
			<point x="762" y="745" type="curve" smooth="yes"/>
			<point x="762" y="612"/>
			<point x="655" y="496"/>
		</contour>
	</outline>
</glyph>
<glyph name="yen" format="2">
	<advance width="1155"/>
	<unicode hex="00A5"/>
	<outline>
		<contour>
			<point x="1124" y="1481" type="line"/>
			<point x="1032" y="1481" type="line"/>
			<point x="582" y="719" type="line"/>
			<point x="135" y="1481" type="line"/>
			<point x="31" y="1481" type="line"/>
			<point x="537" y="621" type="line"/>
			<point x="537" y="0" type="line"/>
			<point x="629" y="0" type="line"/>
			<point x="629" y="653" type="line"/>
		</contour>
		<contour>
			<point x="948" y="674" type="line"/>
			<point x="217" y="672" type="line"/>
			<point x="217" y="596" type="line"/>
			<point x="948" y="598" type="line"/>
		</contour>
		<contour>
			<point x="948" y="393" type="line"/>
			<point x="217" y="391" type="line"/>
			<point x="217" y="315" type="line"/>
			<point x="948" y="317" type="line"/>
		</contour>
	</outline>
</glyph>
<glyph name="brokenbar" format="1">
  <advance width="516"/>
  <unicode hex="00A6"/>
  <outline>
    <contour>
      <point x="296" y="864" type="line"/>
      <point x="296" y="1652" type="line"/>
      <point x="220" y="1652" type="line"/>
      <point x="222" y="864" type="line"/>
    </contour>
    <contour>
      <point x="296" y="-322" type="line"/>
      <point x="296" y="466" type="line"/>
      <point x="220" y="466" type="line"/>
      <point x="222" y="-322" type="line"/>
    </contour>
  </outline>
</glyph>
<glyph name="section" format="2">
	<advance width="958"/>
	<unicode hex="00A7"/>
	<outline>
		<contour>
			<point x="504" y="-135" type="curve" smooth="yes"/>
			<point x="717" y="-135"/>
			<point x="866" y="-23"/>
			<point x="866" y="127" type="curve" smooth="yes"/>
			<point x="866" y="240"/>
			<point x="791" y="319"/>
			<point x="668" y="389" type="curve"/>
			<point x="768" y="436"/>
			<point x="866" y="506"/>
			<point x="866" y="647" type="curve" smooth="yes"/>
			<point x="866" y="774"/>
			<point x="791" y="881"/>
			<point x="590" y="965" type="curve" smooth="yes"/>
			<point x="410" y="1038" type="line" smooth="yes"/>
			<point x="244" y="1106"/>
			<point x="207" y="1178"/>
			<point x="207" y="1247" type="curve" smooth="yes"/>
			<point x="207" y="1352"/>
			<point x="309" y="1421"/>
			<point x="485" y="1421" type="curve" smooth="yes"/>
			<point x="606" y="1421"/>
			<point x="702" y="1356"/>
			<point x="770" y="1266" type="curve"/>
			<point x="838" y="1309" type="line"/>
			<point x="766" y="1411"/>
			<point x="637" y="1501"/>
			<point x="475" y="1501" type="curve" smooth="yes"/>
			<point x="264" y="1501"/>
			<point x="121" y="1391"/>
			<point x="121" y="1243" type="curve" smooth="yes"/>
			<point x="121" y="1149"/>
			<point x="156" y="1061"/>
			<point x="342" y="969" type="curve"/>
			<point x="217" y="924"/>
			<point x="121" y="831"/>
			<point x="121" y="705" type="curve" smooth="yes"/>
			<point x="121" y="592"/>
			<point x="184" y="496"/>
			<point x="348" y="432" type="curve" smooth="yes"/>
			<point x="543" y="356" type="line" smooth="yes"/>
			<point x="727" y="283"/>
			<point x="778" y="209"/>
			<point x="778" y="127" type="curve" smooth="yes"/>
			<point x="778" y="10"/>
			<point x="664" y="-55"/>
			<point x="510" y="-55" type="curve" smooth="yes"/>
			<point x="356" y="-55"/>
			<point x="225" y="25"/>
			<point x="158" y="141" type="curve"/>
			<point x="92" y="100" type="line"/>
			<point x="168" y="-45"/>
			<point x="338" y="-135"/>
		</contour>
		<contour>
			<point x="547" y="442" type="curve"/>
			<point x="406" y="504" type="line" smooth="yes"/>
			<point x="244" y="571"/>
			<point x="207" y="625"/>
			<point x="207" y="711" type="curve" smooth="yes"/>
			<point x="207" y="813"/>
			<point x="324" y="913"/>
			<point x="453" y="924" type="curve"/>
			<point x="584" y="872" type="line" smooth="yes"/>
			<point x="745" y="807"/>
			<point x="776" y="737"/>
			<point x="776" y="635" type="curve" smooth="yes"/>
			<point x="776" y="526"/>
			<point x="666" y="434"/>
		</contour>
	</outline>
</glyph>
<glyph name="copyright" format="2">
	<advance width="1645"/>
	<unicode hex="00A9"/>
	<outline>
		<contour>
			<point x="823" y="-20" type="curve" smooth="yes"/>
			<point x="1241" y="-20"/>
			<point x="1583" y="317"/>
			<point x="1583" y="741" type="curve" smooth="yes"/>
			<point x="1583" y="1159"/>
			<point x="1241" y="1501"/>
			<point x="823" y="1501" type="curve" smooth="yes"/>
			<point x="401" y="1501"/>
			<point x="61" y="1159"/>
			<point x="61" y="741" type="curve" smooth="yes"/>
			<point x="61" y="317"/>
			<point x="401" y="-20"/>
		</contour>
		<contour>
			<point x="823" y="68" type="curve" smooth="yes"/>
			<point x="461" y="68"/>
			<point x="152" y="332"/>
			<point x="152" y="741" type="curve" smooth="yes"/>
			<point x="152" y="1145"/>
			<point x="461" y="1415"/>
			<point x="823" y="1415" type="curve" smooth="yes"/>
			<point x="1176" y="1415"/>
			<point x="1493" y="1145"/>
			<point x="1493" y="741" type="curve" smooth="yes"/>
			<point x="1493" y="332"/>
			<point x="1176" y="68"/>
		</contour>
		<contour>
			<point x="827" y="1178" type="curve" smooth="yes"/>
			<point x="606" y="1178"/>
			<point x="451" y="999"/>
			<point x="451" y="745" type="curve" smooth="yes"/>
			<point x="451" y="489"/>
			<point x="602" y="317"/>
			<point x="827" y="317" type="curve" smooth="yes"/>
			<point x="963" y="317"/>
			<point x="1075" y="397"/>
			<point x="1153" y="524" type="curve"/>
			<point x="1090" y="563" type="line"/>
			<point x="1036" y="463"/>
			<point x="942" y="395"/>
			<point x="831" y="395" type="curve" smooth="yes"/>
			<point x="662" y="395"/>
			<point x="539" y="539"/>
			<point x="539" y="750" type="curve" smooth="yes"/>
			<point x="539" y="956"/>
			<point x="662" y="1100"/>
			<point x="834" y="1100" type="curve" smooth="yes"/>
			<point x="926" y="1100"/>
			<point x="1008" y="1049"/>
			<point x="1073" y="944" type="curve"/>
			<point x="1147" y="987" type="line"/>
			<point x="1069" y="1096"/>
			<point x="971" y="1178"/>
		</contour>
	</outline>
</glyph>
<glyph name="ordfeminine" format="1">
  <advance width="812"/>
  <unicode hex="00AA"/>
  <outline>
    <contour>
      <point x="328" y="790" type="curve" smooth="yes"/>
      <point x="420" y="790"/>
      <point x="488" y="824"/>
      <point x="560" y="902" type="curve"/>
      <point x="576" y="802" type="line"/>
      <point x="652" y="802" type="line"/>
      <point x="640" y="886" type="line"/>
      <point x="634" y="936"/>
      <point x="632" y="976"/>
      <point x="632" y="1016" type="curve" smooth="yes"/>
      <point x="632" y="1054"/>
      <point x="632" y="1132"/>
      <point x="632" y="1236" type="curve" smooth="yes"/>
      <point x="632" y="1374"/>
      <point x="544" y="1460"/>
      <point x="390" y="1460" type="curve" smooth="yes"/>
      <point x="268" y="1460"/>
      <point x="172" y="1406"/>
      <point x="126" y="1314" type="curve"/>
      <point x="188" y="1288" type="line"/>
      <point x="242" y="1370"/>
      <point x="298" y="1394"/>
      <point x="382" y="1394" type="curve" smooth="yes"/>
      <point x="498" y="1394"/>
      <point x="562" y="1346"/>
      <point x="562" y="1244" type="curve" smooth="yes"/>
      <point x="562" y="1194" type="line"/>
      <point x="420" y="1180" type="line" smooth="yes"/>
      <point x="216" y="1160"/>
      <point x="110" y="1092"/>
      <point x="110" y="968" type="curve" smooth="yes"/>
      <point x="110" y="856"/>
      <point x="192" y="790"/>
    </contour>
    <contour>
      <point x="344" y="852" type="curve" smooth="yes"/>
      <point x="250" y="852"/>
      <point x="186" y="898"/>
      <point x="186" y="970" type="curve" smooth="yes"/>
      <point x="186" y="1054"/>
      <point x="266" y="1108"/>
      <point x="444" y="1122" type="curve" smooth="yes"/>
      <point x="562" y="1132" type="line"/>
      <point x="562" y="1016" type="line" smooth="yes"/>
      <point x="562" y="980"/>
      <point x="540" y="948"/>
      <point x="502" y="914" type="curve" smooth="yes"/>
      <point x="456" y="872"/>
      <point x="406" y="852"/>
    </contour>
  </outline>
</glyph>
<glyph name="guillemetleft" format="2">
	<advance width="840"/>
	<unicode hex="00AB"/>
	<outline>
		<contour>
			<point x="502" y="514" type="line"/>
			<point x="748" y="889" type="line"/>
			<point x="690" y="889" type="line"/>
			<point x="395" y="514" type="line"/>
			<point x="688" y="156" type="line"/>
			<point x="743" y="156" type="line"/>
		</contour>
		<contour>
			<point x="168" y="514" type="line"/>
			<point x="414" y="889" type="line"/>
			<point x="356" y="889" type="line"/>
			<point x="61" y="514" type="line"/>
			<point x="354" y="156" type="line"/>
			<point x="410" y="156" type="line"/>
		</contour>
	</outline>
</glyph>
<glyph name="logicalnot" format="2">
	<advance width="1067"/>
	<unicode hex="00AC"/>
	<outline>
		<contour>
			<point x="934" y="782" type="line"/>
			<point x="133" y="780" type="line"/>
			<point x="133" y="705" type="line"/>
			<point x="934" y="707" type="line"/>
		</contour>
		<contour>
			<point x="934" y="768" type="line"/>
			<point x="858" y="768" type="line"/>
			<point x="860" y="428" type="line"/>
			<point x="934" y="428" type="line"/>
		</contour>
	</outline>
</glyph>
<glyph name="registered" format="2">
	<advance width="1076"/>
	<unicode hex="00AE"/>
	<outline>
		<contour>
			<point x="539" y="549" type="curve" smooth="yes"/>
			<point x="801" y="549"/>
			<point x="1014" y="760"/>
			<point x="1014" y="1024" type="curve" smooth="yes"/>
			<point x="1014" y="1288"/>
			<point x="801" y="1501"/>
			<point x="539" y="1501" type="curve" smooth="yes"/>
			<point x="272" y="1501"/>
			<point x="61" y="1288"/>
			<point x="61" y="1024" type="curve" smooth="yes"/>
			<point x="61" y="760"/>
			<point x="272" y="549"/>
		</contour>
		<contour>
			<point x="539" y="618" type="curve" smooth="yes"/>
			<point x="299" y="618"/>
			<point x="133" y="776"/>
			<point x="133" y="1024" type="curve" smooth="yes"/>
			<point x="133" y="1270"/>
			<point x="299" y="1432"/>
			<point x="539" y="1432" type="curve" smooth="yes"/>
			<point x="774" y="1432"/>
			<point x="942" y="1270"/>
			<point x="942" y="1024" type="curve" smooth="yes"/>
			<point x="942" y="776"/>
			<point x="774" y="618"/>
		</contour>
		<contour>
			<point x="365" y="784" type="line"/>
			<point x="424" y="784" type="line"/>
			<point x="424" y="1012" type="line"/>
			<point x="555" y="1012" type="line"/>
			<point x="641" y="784" type="line"/>
			<point x="705" y="784" type="line"/>
			<point x="614" y="1016" type="line"/>
			<point x="662" y="1032"/>
			<point x="717" y="1063"/>
			<point x="717" y="1143" type="curve" smooth="yes"/>
			<point x="717" y="1219"/>
			<point x="664" y="1257"/>
			<point x="569" y="1257" type="curve" smooth="yes"/>
			<point x="365" y="1257" type="line"/>
		</contour>
		<contour>
			<point x="424" y="1069" type="line"/>
			<point x="424" y="1202" type="line"/>
			<point x="549" y="1202" type="line" smooth="yes"/>
			<point x="637" y="1202"/>
			<point x="655" y="1169"/>
			<point x="655" y="1135" type="curve" smooth="yes"/>
			<point x="655" y="1081"/>
			<point x="608" y="1069"/>
			<point x="555" y="1069" type="curve" smooth="yes"/>
		</contour>
	</outline>
</glyph>
<glyph name="degree" format="2">
	<advance width="926"/>
	<unicode hex="00B0"/>
	<outline>
		<contour>
			<point x="762" y="1413" type="curve" smooth="yes"/>
			<point x="762" y="1589"/>
			<point x="635" y="1714"/>
			<point x="463" y="1714" type="curve" smooth="yes"/>
			<point x="289" y="1714"/>
			<point x="164" y="1589"/>
			<point x="164" y="1413" type="curve" smooth="yes"/>
			<point x="164" y="1239"/>
			<point x="289" y="1114"/>
			<point x="463" y="1114" type="curve" smooth="yes"/>
			<point x="635" y="1114"/>
			<point x="762" y="1239"/>
		</contour>
		<contour>
			<point x="676" y="1411" type="curve" smooth="yes"/>
			<point x="676" y="1278"/>
			<point x="594" y="1186"/>
			<point x="461" y="1186" type="curve" smooth="yes"/>
			<point x="328" y="1186"/>
			<point x="246" y="1278"/>
			<point x="244" y="1411" type="curve" smooth="yes"/>
			<point x="242" y="1544"/>
			<point x="328" y="1636"/>
			<point x="459" y="1636" type="curve" smooth="yes"/>
			<point x="594" y="1636"/>
			<point x="676" y="1544"/>
		</contour>
	</outline>
</glyph>
<glyph name="plusminus" format="2">
	<advance width="1067"/>
	<unicode hex="00B1"/>
	<outline>
		<contour>
			<point x="934" y="244" type="line"/>
			<point x="133" y="242" type="line"/>
			<point x="133" y="166" type="line"/>
			<point x="934" y="168" type="line"/>
		</contour>
		<contour>
			<point x="934" y="922" type="line"/>
			<point x="133" y="920" type="line"/>
			<point x="133" y="844" type="line"/>
			<point x="934" y="846" type="line"/>
		</contour>
		<contour>
			<point x="571" y="483" type="line"/>
			<point x="571" y="1284" type="line"/>
			<point x="496" y="1284" type="line"/>
			<point x="498" y="483" type="line"/>
		</contour>
	</outline>
</glyph>
<glyph name="micro" format="1">
  <advance width="1134"/>
  <unicode hex="00B5"/>
  <outline>
    <contour>
      <point x="170" y="-330" type="line"/>
      <point x="250" y="-330" type="line"/>
      <point x="250" y="74" type="line"/>
      <point x="320" y="4"/>
      <point x="402" y="-20"/>
      <point x="502" y="-20" type="curve" smooth="yes"/>
      <point x="628" y="-20"/>
      <point x="724" y="30"/>
      <point x="890" y="164" type="curve"/>
      <point x="890" y="0" type="line"/>
      <point x="964" y="0" type="line"/>
      <point x="964" y="1060" type="line"/>
      <point x="884" y="1060" type="line"/>
      <point x="884" y="268" type="line"/>
      <point x="754" y="138"/>
      <point x="628" y="56"/>
      <point x="498" y="56" type="curve" smooth="yes"/>
      <point x="362" y="56"/>
      <point x="250" y="158"/>
      <point x="250" y="274" type="curve" smooth="yes"/>
      <point x="250" y="1060" type="line"/>
      <point x="170" y="1060" type="line"/>
    </contour>
  </outline>
</glyph>
<glyph name="paragraph" format="1">
  <advance width="1068"/>
  <unicode hex="00B6"/>
  <outline>
    <contour>
      <point x="888" y="1384" type="line"/>
      <point x="888" y="1446" type="line"/>
      <point x="572" y="1446" type="line" smooth="yes"/>
      <point x="266" y="1446"/>
      <point x="120" y="1220"/>
      <point x="120" y="1002" type="curve" smooth="yes"/>
      <point x="120" y="796"/>
      <point x="268" y="592"/>
      <point x="550" y="592" type="curve"/>
      <point x="550" y="-166" type="line"/>
      <point x="618" y="-166" type="line"/>
      <point x="618" y="1384" type="line"/>
      <point x="704" y="1384" type="line"/>
      <point x="704" y="-166" type="line"/>
      <point x="770" y="-166" type="line"/>
      <point x="770" y="1384" type="line"/>
    </contour>
  </outline>
</glyph>
<glyph name="periodcentered" format="2">
	<advance width="411"/>
	<unicode hex="00B7"/>
	<outline>
		<contour>
			<point x="287" y="825" type="line"/>
			<point x="123" y="825" type="line"/>
			<point x="123" y="668" type="line"/>
			<point x="287" y="668" type="line"/>
		</contour>
	</outline>
</glyph>
<glyph name="ordmasculine" format="1">
  <advance width="838"/>
  <unicode hex="00BA"/>
  <outline>
    <contour>
      <point x="418" y="1464" type="curve" smooth="yes"/>
      <point x="234" y="1464"/>
      <point x="120" y="1328"/>
      <point x="120" y="1126" type="curve" smooth="yes"/>
      <point x="120" y="932"/>
      <point x="224" y="794"/>
      <point x="418" y="794" type="curve" smooth="yes"/>
      <point x="612" y="794"/>
      <point x="718" y="932"/>
      <point x="718" y="1126" type="curve" smooth="yes"/>
      <point x="718" y="1328"/>
      <point x="604" y="1464"/>
    </contour>
    <contour>
      <point x="418" y="1396" type="curve" smooth="yes"/>
      <point x="562" y="1396"/>
      <point x="638" y="1288"/>
      <point x="638" y="1132" type="curve" smooth="yes"/>
      <point x="638" y="966"/>
      <point x="562" y="858"/>
      <point x="418" y="858" type="curve" smooth="yes"/>
      <point x="274" y="858"/>
      <point x="200" y="966"/>
      <point x="200" y="1132" type="curve" smooth="yes"/>
      <point x="200" y="1288"/>
      <point x="274" y="1396"/>
    </contour>
  </outline>
</glyph>
<glyph name="guillemetright" format="2">
	<advance width="914"/>
	<unicode hex="00BB"/>
	<outline>
		<contour>
			<point x="376" y="514" type="line"/>
			<point x="134" y="156" type="line"/>
			<point x="188" y="156" type="line"/>
			<point x="480" y="514" type="line"/>
			<point x="185" y="889" type="line"/>
			<point x="130" y="889" type="line"/>
		</contour>
		<contour>
			<point x="710" y="514" type="line"/>
			<point x="468" y="156" type="line"/>
			<point x="521" y="156" type="line"/>
			<point x="814" y="514" type="line"/>
			<point x="519" y="889" type="line"/>
			<point x="464" y="889" type="line"/>
		</contour>
	</outline>
</glyph>
<glyph name="questiondown" format="2">
	<advance width="1008"/>
	<unicode hex="00BF"/>
	<outline>
		<contour>
			<point x="463" y="901" type="line"/>
			<point x="588" y="901" type="line"/>
			<point x="588" y="1059" type="line"/>
			<point x="463" y="1059" type="line"/>
		</contour>
		<contour>
			<point x="936" y="-94" type="curve"/>
			<point x="852" y="-53" type="line"/>
			<point x="807" y="-168"/>
			<point x="639" y="-266"/>
			<point x="483" y="-266" type="curve" smooth="yes"/>
			<point x="283" y="-266"/>
			<point x="154" y="-158"/>
			<point x="154" y="14" type="curve" smooth="yes"/>
			<point x="154" y="326"/>
			<point x="567" y="338"/>
			<point x="567" y="760" type="curve"/>
			<point x="483" y="760" type="line"/>
			<point x="483" y="367"/>
			<point x="61" y="356"/>
			<point x="61" y="14" type="curve" smooth="yes"/>
			<point x="61" y="-207"/>
			<point x="225" y="-350"/>
			<point x="483" y="-350" type="curve" smooth="yes"/>
			<point x="676" y="-350"/>
			<point x="850" y="-250"/>
		</contour>
	</outline>
</glyph>
<glyph name="Aacute" format="1">
  <advance width="1308"/>
  <unicode hex="00C1"/>
  <outline>
    <component base="A"/>
    <component base="acutecomb" xOffset="606" yOffset="412"/>
    <contour>
      <point x="697" y="1446" type="move" name="top"/>
    </contour>
  </outline>
</glyph>
<glyph name="AE" format="1">
  <advance width="1822"/>
  <unicode hex="00C6"/>
  <outline>
    <contour>
      <point x="1682" y="78" type="line"/>
      <point x="960" y="78" type="line"/>
      <point x="960" y="692" type="line"/>
      <point x="1516" y="692" type="line"/>
      <point x="1516" y="770" type="line"/>
      <point x="960" y="770" type="line"/>
      <point x="960" y="1368" type="line"/>
      <point x="1654" y="1368" type="line"/>
      <point x="1654" y="1446" type="line"/>
      <point x="826" y="1446" type="line"/>
      <point x="0" y="0" type="line"/>
      <point x="84" y="0" type="line"/>
      <point x="350" y="464" type="line"/>
      <point x="872" y="464" type="line"/>
      <point x="872" y="0" type="line"/>
      <point x="1682" y="0" type="line"/>
    </contour>
    <contour>
      <point x="872" y="542" type="line"/>
      <point x="388" y="542" type="line"/>
      <point x="872" y="1370" type="line"/>
    </contour>
    <contour>
      <point x="1234" y="1446" type="move" name="top"/>
    </contour>
  </outline>
</glyph>
<glyph name="Eth" format="1">
  <advance width="1340"/>
  <unicode hex="00D0"/>
  <outline>
    <contour>
      <point x="668" y="770" type="line"/>
      <point x="70" y="770" type="line"/>
      <point x="70" y="688" type="line"/>
      <point x="668" y="688" type="line"/>
    </contour>
    <component base="D" xOffset="-4"/>
  </outline>
</glyph>
<glyph name="multiply" format="2">
	<advance width="1030"/>
	<unicode hex="00D7"/>
	<outline>
		<contour>
			<point x="897" y="418" type="line"/>
			<point x="188" y="1122" type="line"/>
			<point x="133" y="1069" type="line"/>
			<point x="842" y="362" type="line"/>
		</contour>
		<contour>
			<point x="190" y="362" type="line"/>
			<point x="895" y="1073" type="line"/>
			<point x="840" y="1126" type="line"/>
			<point x="135" y="418" type="line"/>
		</contour>
	</outline>
</glyph>
<glyph name="Oslash" format="2">
	<advance width="1485"/>
	<unicode hex="00D8"/>
	<anchor x="743" y="1481" name="top"/>
	<outline>
		<contour>
			<point x="143" y="-27" type="line"/>
			<point x="309" y="162" type="line"/>
			<point x="410" y="41"/>
			<point x="557" y="-20"/>
			<point x="741" y="-20" type="curve" smooth="yes"/>
			<point x="1116" y="-20"/>
			<point x="1343" y="244"/>
			<point x="1343" y="737" type="curve" smooth="yes"/>
			<point x="1343" y="942"/>
			<point x="1305" y="1108"/>
			<point x="1233" y="1233" type="curve"/>
			<point x="1413" y="1442" type="line"/>
			<point x="1339" y="1505" type="line"/>
			<point x="1176" y="1317" type="line"/>
			<point x="1071" y="1438"/>
			<point x="926" y="1501"/>
			<point x="743" y="1501" type="curve" smooth="yes"/>
			<point x="369" y="1501"/>
			<point x="141" y="1233"/>
			<point x="141" y="733" type="curve" smooth="yes"/>
			<point x="141" y="530"/>
			<point x="178" y="367"/>
			<point x="250" y="246" type="curve"/>
			<point x="72" y="39" type="line"/>
		</contour>
		<contour>
			<point x="745" y="66" type="curve" smooth="yes"/>
			<point x="580" y="66"/>
			<point x="455" y="121"/>
			<point x="369" y="233" type="curve"/>
			<point x="1167" y="1159" type="line"/>
			<point x="1217" y="1051"/>
			<point x="1241" y="911"/>
			<point x="1241" y="737" type="curve" smooth="yes"/>
			<point x="1241" y="283"/>
			<point x="1075" y="66"/>
		</contour>
		<contour>
			<point x="315" y="322" type="line"/>
			<point x="266" y="428"/>
			<point x="242" y="565"/>
			<point x="242" y="737" type="curve" smooth="yes"/>
			<point x="242" y="1192"/>
			<point x="414" y="1415"/>
			<point x="743" y="1415" type="curve" smooth="yes"/>
			<point x="907" y="1415"/>
			<point x="1030" y="1360"/>
			<point x="1114" y="1247" type="curve"/>
		</contour>
	</outline>
</glyph>
<glyph name="Yacute" format="1">
  <advance width="1078"/>
  <unicode hex="00DD"/>
  <outline>
    <component base="Y"/>
    <component base="acutecomb" xOffset="492" yOffset="416"/>
    <contour>
      <point x="542" y="2" type="move" name="bottom"/>
    </contour>
  </outline>
</glyph>
<glyph name="Thorn" format="1">
  <advance width="1250"/>
  <unicode hex="00DE"/>
  <outline>
    <contour>
      <point x="1180" y="760" type="curve" smooth="yes"/>
      <point x="1180" y="1018"/>
      <point x="966" y="1130"/>
      <point x="660" y="1130" type="curve" smooth="yes"/>
      <point x="300" y="1130" type="line"/>
      <point x="300" y="1446" type="line"/>
      <point x="210" y="1446" type="line"/>
      <point x="210" y="0" type="line"/>
      <point x="300" y="0" type="line"/>
      <point x="300" y="354" type="line"/>
      <point x="672" y="354" type="line" smooth="yes"/>
      <point x="966" y="354"/>
      <point x="1180" y="466"/>
    </contour>
    <contour>
      <point x="1086" y="760" type="curve" smooth="yes"/>
      <point x="1086" y="522"/>
      <point x="922" y="432"/>
      <point x="672" y="432" type="curve" smooth="yes"/>
      <point x="300" y="432" type="line"/>
      <point x="300" y="1052" type="line"/>
      <point x="658" y="1052" type="line" smooth="yes"/>
      <point x="922" y="1052"/>
      <point x="1086" y="976"/>
    </contour>
  </outline>
</glyph>
<glyph name="germandbls" format="1">
  <advance width="1132"/>
  <unicode hex="00DF"/>
  <outline>
    <contour>
      <point x="570" y="1446" type="curve" smooth="yes"/>
      <point x="334" y="1446"/>
      <point x="170" y="1292"/>
      <point x="170" y="1034" type="curve"/>
      <point x="172" y="0" type="line"/>
      <point x="250" y="0" type="line"/>
      <point x="250" y="1044" type="line" smooth="yes"/>
      <point x="250" y="1268"/>
      <point x="378" y="1372"/>
      <point x="554" y="1372" type="curve" smooth="yes"/>
      <point x="700" y="1372"/>
      <point x="784" y="1304"/>
      <point x="784" y="1194" type="curve" smooth="yes"/>
      <point x="784" y="1074"/>
      <point x="688" y="1038"/>
      <point x="604" y="994" type="curve" smooth="yes"/>
      <point x="464" y="924"/>
      <point x="404" y="872"/>
      <point x="404" y="774" type="curve" smooth="yes"/>
      <point x="404" y="636"/>
      <point x="522" y="608"/>
      <point x="616" y="580" type="curve" smooth="yes"/>
      <point x="762" y="534"/>
      <point x="910" y="482"/>
      <point x="910" y="302" type="curve" smooth="yes"/>
      <point x="910" y="146"/>
      <point x="796" y="54"/>
      <point x="612" y="54" type="curve" smooth="yes"/>
      <point x="516" y="54"/>
      <point x="458" y="80"/>
      <point x="392" y="118" type="curve"/>
      <point x="348" y="52" type="line"/>
      <point x="418" y="6"/>
      <point x="538" y="-20"/>
      <point x="626" y="-20" type="curve" smooth="yes"/>
      <point x="822" y="-20"/>
      <point x="992" y="94"/>
      <point x="992" y="308" type="curve" smooth="yes"/>
      <point x="992" y="558"/>
      <point x="764" y="618"/>
      <point x="640" y="658" type="curve" smooth="yes"/>
      <point x="524" y="694"/>
      <point x="486" y="710"/>
      <point x="486" y="776" type="curve" smooth="yes"/>
      <point x="486" y="844"/>
      <point x="528" y="866"/>
      <point x="646" y="930" type="curve" smooth="yes"/>
      <point x="752" y="986"/>
      <point x="866" y="1030"/>
      <point x="866" y="1188" type="curve" smooth="yes"/>
      <point x="866" y="1306"/>
      <point x="800" y="1446"/>
    </contour>
  </outline>
</glyph>
<glyph name="ae" format="1">
  <advance width="1846"/>
  <unicode hex="00E6"/>
  <outline>
    <contour>
      <point x="901" y="494" type="curve"/>
      <point x="1741" y="496" type="line"/>
      <point x="1741" y="852"/>
      <point x="1561" y="1054"/>
      <point x="1293" y="1054" type="curve" smooth="yes"/>
      <point x="1111" y="1054"/>
      <point x="971" y="976"/>
      <point x="893" y="820" type="curve"/>
      <point x="853" y="976"/>
      <point x="743" y="1054"/>
      <point x="551" y="1054" type="curve" smooth="yes"/>
      <point x="381" y="1054"/>
      <point x="229" y="970"/>
      <point x="143" y="826" type="curve"/>
      <point x="203" y="784" type="line"/>
      <point x="297" y="910"/>
      <point x="407" y="978"/>
      <point x="535" y="978" type="curve" smooth="yes"/>
      <point x="731" y="978"/>
      <point x="835" y="874"/>
      <point x="835" y="708" type="curve" smooth="yes"/>
      <point x="835" y="620" type="line"/>
      <point x="581" y="600" type="line" smooth="yes"/>
      <point x="265" y="574"/>
      <point x="115" y="456"/>
      <point x="115" y="266" type="curve" smooth="yes"/>
      <point x="115" y="88"/>
      <point x="237" y="-20"/>
      <point x="439" y="-20" type="curve" smooth="yes"/>
      <point x="695" y="-20"/>
      <point x="809" y="120"/>
      <point x="879" y="210" type="curve" smooth="yes"/>
      <point x="883" y="216"/>
      <point x="885" y="216"/>
      <point x="889" y="210" type="curve" smooth="yes"/>
      <point x="945" y="126"/>
      <point x="1049" y="-20"/>
      <point x="1287" y="-20" type="curve" smooth="yes"/>
      <point x="1481" y="-20"/>
      <point x="1641" y="78"/>
      <point x="1709" y="208" type="curve"/>
      <point x="1647" y="252" type="line"/>
      <point x="1589" y="166"/>
      <point x="1501" y="54"/>
      <point x="1291" y="54" type="curve" smooth="yes"/>
      <point x="1073" y="54"/>
      <point x="901" y="286"/>
    </contour>
    <contour>
      <point x="1287" y="978" type="curve" smooth="yes"/>
      <point x="1503" y="978"/>
      <point x="1657" y="794"/>
      <point x="1657" y="566" type="curve"/>
      <point x="905" y="568" type="line"/>
      <point x="907" y="816"/>
      <point x="1073" y="978"/>
    </contour>
    <contour>
      <point x="835" y="546" type="line"/>
      <point x="835" y="346" type="line"/>
      <point x="835" y="194"/>
      <point x="667" y="66"/>
      <point x="459" y="56" type="curve" smooth="yes"/>
      <point x="295" y="48"/>
      <point x="199" y="138"/>
      <point x="199" y="270" type="curve" smooth="yes"/>
      <point x="199" y="420"/>
      <point x="329" y="508"/>
      <point x="621" y="530" type="curve" smooth="yes"/>
    </contour>
    <contour>
      <point x="905" y="1034" type="move" name="top"/>
    </contour>
  </outline>
</glyph>
<glyph name="eth" format="1">
  <advance width="1188"/>
  <unicode hex="00F0"/>
  <outline>
    <contour>
      <point x="1068" y="498" type="curve" smooth="yes"/>
      <point x="1068" y="822"/>
      <point x="960" y="1098"/>
      <point x="656" y="1304" type="curve"/>
      <point x="838" y="1406" type="line"/>
      <point x="806" y="1470" type="line"/>
      <point x="590" y="1350" type="line"/>
      <point x="516" y="1392"/>
      <point x="438" y="1432"/>
      <point x="346" y="1468" type="curve"/>
      <point x="274" y="1420" type="line"/>
      <point x="364" y="1384"/>
      <point x="444" y="1348"/>
      <point x="516" y="1306" type="curve"/>
      <point x="202" y="1132" type="line"/>
      <point x="240" y="1070" type="line"/>
      <point x="582" y="1264" type="line"/>
      <point x="750" y="1150"/>
      <point x="852" y="1020"/>
      <point x="912" y="880" type="curve"/>
      <point x="830" y="964"/>
      <point x="714" y="1014"/>
      <point x="576" y="1014" type="curve" smooth="yes"/>
      <point x="310" y="1014"/>
      <point x="120" y="796"/>
      <point x="120" y="492" type="curve" smooth="yes"/>
      <point x="120" y="192"/>
      <point x="308" y="-20"/>
      <point x="590" y="-20" type="curve" smooth="yes"/>
      <point x="890" y="-20"/>
      <point x="1068" y="196"/>
    </contour>
    <contour>
      <point x="598" y="54" type="curve" smooth="yes"/>
      <point x="370" y="54"/>
      <point x="202" y="250"/>
      <point x="202" y="496" type="curve" smooth="yes"/>
      <point x="202" y="742"/>
      <point x="370" y="940"/>
      <point x="596" y="940" type="curve" smooth="yes"/>
      <point x="818" y="940"/>
      <point x="986" y="742"/>
      <point x="986" y="496" type="curve" smooth="yes"/>
      <point x="986" y="248"/>
      <point x="822" y="54"/>
    </contour>
  </outline>
</glyph>
<glyph name="divide" format="2">
	<advance width="1067"/>
	<unicode hex="00F7"/>
	<outline>
		<contour>
			<point x="616" y="506" type="line"/>
			<point x="453" y="506" type="line"/>
			<point x="453" y="348" type="line"/>
			<point x="616" y="348" type="line"/>
		</contour>
		<contour>
			<point x="934" y="782" type="line"/>
			<point x="133" y="780" type="line"/>
			<point x="133" y="705" type="line"/>
			<point x="934" y="707" type="line"/>
		</contour>
		<contour>
			<point x="616" y="1141" type="line"/>
			<point x="453" y="1141" type="line"/>
			<point x="453" y="983" type="line"/>
			<point x="616" y="983" type="line"/>
		</contour>
	</outline>
</glyph>
<glyph name="oslash" format="2">
	<advance width="1147"/>
	<unicode hex="00F8"/>
	<anchor x="575" y="1059" name="top"/>
	<outline>
		<contour>
			<point x="1116" y="1006" type="line"/>
			<point x="1061" y="1063" type="line"/>
			<point x="31" y="49" type="line"/>
			<point x="86" y="-8" type="line"/>
		</contour>
		<component base="o" xOffset="-10"/>
	</outline>
</glyph>
<glyph name="thorn" format="2">
	<advance width="1160"/>
	<unicode hex="00FE"/>
	<outline>
		<contour>
			<point x="259" y="1446" type="line"/>
			<point x="185" y="1446" type="line"/>
			<point x="185" y="-322" type="line"/>
			<point x="263" y="-322" type="line"/>
			<point x="263" y="64" type="line" smooth="yes"/>
			<point x="263" y="90"/>
			<point x="269" y="96"/>
			<point x="289" y="78" type="curve" smooth="yes"/>
			<point x="347" y="32"/>
			<point x="442" y="-20"/>
			<point x="576" y="-20" type="curve" smooth="yes"/>
			<point x="862" y="-20"/>
			<point x="1045" y="204"/>
			<point x="1045" y="536" type="curve" smooth="yes"/>
			<point x="1045" y="882"/>
			<point x="849" y="1054"/>
			<point x="599" y="1054" type="curve" smooth="yes"/>
			<point x="381" y="1054"/>
			<point x="291" y="918"/>
			<point x="259" y="880" type="curve"/>
		</contour>
		<contour>
			<point x="263" y="202" type="curve"/>
			<point x="263" y="710" type="line" smooth="yes"/>
			<point x="263" y="826"/>
			<point x="395" y="978"/>
			<point x="589" y="978" type="curve" smooth="yes"/>
			<point x="784" y="978"/>
			<point x="963" y="838"/>
			<point x="963" y="528" type="curve" smooth="yes"/>
			<point x="963" y="232"/>
			<point x="799" y="54"/>
			<point x="574" y="54" type="curve" smooth="yes"/>
			<point x="455" y="54"/>
			<point x="356" y="112"/>
		</contour>
	</outline>
</glyph>
<glyph name="gcommaaccent" format="1">
  <advance width="1208"/>
  <unicode hex="0123"/>
  <outline>
    <contour>
      <point x="496" y="1232" type="line"/>
      <point x="608" y="1232" type="line"/>
      <point x="608" y="1394" type="line"/>
      <point x="562" y="1394" type="line"/>
      <point x="626" y="1532" type="line"/>
      <point x="564" y="1532" type="line"/>
      <point x="496" y="1402" type="line"/>
    </contour>
    <component base="g"/>
    <contour>
      <point x="558" y="1072" type="move" name="_top"/>
    </contour>
  </outline>
</glyph>
<glyph name="Hbar" format="2">
	<advance width="1518"/>
	<unicode hex="0126"/>
	<outline>
		<contour>
			<point x="1498" y="1206" type="line"/>
			<point x="20" y="1206" type="line"/>
			<point x="20" y="1128" type="line"/>
			<point x="1498" y="1128" type="line"/>
		</contour>
		<component base="H" xOffset="2"/>
	</outline>
</glyph>
<glyph name="hbar" format="1">
  <advance width="1118"/>
  <unicode hex="0127"/>
  <outline>
    <contour>
      <point x="604" y="1290" type="line"/>
      <point x="40" y="1290" type="line"/>
      <point x="40" y="1222" type="line"/>
      <point x="604" y="1222" type="line"/>
    </contour>
    <component base="h" xOffset="-4"/>
  </outline>
</glyph>
<glyph name="idotless" format="1">
  <advance width="478"/>
  <unicode hex="0131"/>
  <outline>
    <contour>
      <point x="278" y="1034" type="line"/>
      <point x="200" y="1034" type="line"/>
      <point x="200" y="0" type="line"/>
      <point x="278" y="0" type="line"/>
    </contour>
    <contour>
      <point x="262" y="26" type="move" name="ogonek"/>
    </contour>
    <contour>
      <point x="238" y="1034" type="move" name="top"/>
    </contour>
  </outline>
</glyph>
<glyph name="kgreenlandic" format="1">
  <advance width="1078"/>
  <unicode hex="0138"/>
  <outline>
    <contour>
      <point x="1008" y="0" type="line"/>
      <point x="600" y="658" type="line"/>
      <point x="970" y="1034" type="line"/>
      <point x="860" y="1034" type="line"/>
      <point x="268" y="428" type="line"/>
      <point x="268" y="1034" type="line"/>
      <point x="190" y="1034" type="line"/>
      <point x="190" y="0" type="line"/>
      <point x="268" y="0" type="line"/>
      <point x="268" y="316" type="line"/>
      <point x="540" y="592" type="line"/>
      <point x="908" y="0" type="line"/>
    </contour>
  </outline>
</glyph>
<glyph name="Lslash" format="1">
  <advance width="1114"/>
  <unicode hex="0141"/>
  <outline>
    <contour>
      <point x="634" y="856" type="line"/>
      <point x="60" y="710" type="line"/>
      <point x="60" y="634" type="line"/>
      <point x="634" y="784" type="line"/>
    </contour>
    <component base="L" xOffset="-10"/>
  </outline>
</glyph>
<glyph name="lslash" format="1">
  <advance width="602"/>
  <unicode hex="0142"/>
  <outline>
    <contour>
      <point x="482" y="862" type="line"/>
      <point x="20" y="430" type="line"/>
      <point x="20" y="340" type="line"/>
      <point x="482" y="776" type="line"/>
    </contour>
    <component base="l" xOffset="28"/>
  </outline>
</glyph>
<glyph name="eng" format="1">
  <advance width="1132"/>
  <unicode hex="014B"/>
  <outline>
    <contour>
      <point x="730" y="-332" type="curve" smooth="yes"/>
      <point x="886" y="-332"/>
      <point x="952" y="-240"/>
      <point x="952" y="-80" type="curve" smooth="yes"/>
      <point x="952" y="766" type="line" smooth="yes"/>
      <point x="952" y="936"/>
      <point x="836" y="1054"/>
      <point x="636" y="1054" type="curve" smooth="yes"/>
      <point x="508" y="1054"/>
      <point x="418" y="1018"/>
      <point x="242" y="878" type="curve"/>
      <point x="242" y="1034" type="line"/>
      <point x="170" y="1034" type="line"/>
      <point x="170" y="0" type="line"/>
      <point x="248" y="0" type="line"/>
      <point x="248" y="796" type="line"/>
      <point x="374" y="908"/>
      <point x="502" y="980"/>
      <point x="626" y="980" type="curve" smooth="yes"/>
      <point x="810" y="980"/>
      <point x="874" y="876"/>
      <point x="874" y="724" type="curve" smooth="yes"/>
      <point x="874" y="-90" type="line" smooth="yes"/>
      <point x="874" y="-214"/>
      <point x="832" y="-262"/>
      <point x="728" y="-264" type="curve" smooth="yes"/>
      <point x="618" y="-266" type="line"/>
      <point x="618" y="-314" type="line" smooth="yes"/>
      <point x="618" y="-330"/>
      <point x="630" y="-332"/>
    </contour>
  </outline>
</glyph>
<glyph name="OE" format="1">
  <advance width="2216"/>
  <unicode hex="0152"/>
  <outline>
    <contour>
      <point x="2076" y="78" type="line"/>
      <point x="1314" y="78" type="line"/>
      <point x="1314" y="692" type="line"/>
      <point x="1888" y="692" type="line"/>
      <point x="1888" y="770" type="line"/>
      <point x="1314" y="770" type="line"/>
      <point x="1314" y="1368" type="line"/>
      <point x="2046" y="1368" type="line"/>
      <point x="2046" y="1446" type="line"/>
      <point x="1224" y="1446" type="line"/>
      <point x="1224" y="1170" type="line"/>
      <point x="1128" y="1366"/>
      <point x="958" y="1466"/>
      <point x="730" y="1466" type="curve" smooth="yes"/>
      <point x="364" y="1466"/>
      <point x="140" y="1204"/>
      <point x="140" y="716" type="curve" smooth="yes"/>
      <point x="140" y="236"/>
      <point x="360" y="-20"/>
      <point x="728" y="-20" type="curve" smooth="yes"/>
      <point x="956" y="-20"/>
      <point x="1128" y="80"/>
      <point x="1224" y="274" type="curve"/>
      <point x="1224" y="0" type="line"/>
      <point x="2076" y="0" type="line"/>
    </contour>
    <contour>
      <point x="732" y="62" type="curve" smooth="yes"/>
      <point x="408" y="62"/>
      <point x="234" y="278"/>
      <point x="234" y="720" type="curve" smooth="yes"/>
      <point x="234" y="1164"/>
      <point x="408" y="1384"/>
      <point x="730" y="1384" type="curve" smooth="yes"/>
      <point x="1050" y="1384"/>
      <point x="1216" y="1166"/>
      <point x="1216" y="720" type="curve" smooth="yes"/>
      <point x="1216" y="276"/>
      <point x="1054" y="62"/>
    </contour>
  </outline>
</glyph>
<glyph name="oe" format="1">
  <advance width="2032"/>
  <unicode hex="0153"/>
  <outline>
    <contour>
      <point x="594" y="-20" type="curve" smooth="yes"/>
      <point x="780" y="-20"/>
      <point x="926" y="72"/>
      <point x="1004" y="228" type="curve" smooth="yes"/>
      <point x="1020" y="260"/>
      <point x="1030" y="258"/>
      <point x="1040" y="234" type="curve" smooth="yes"/>
      <point x="1118" y="76"/>
      <point x="1268" y="-20"/>
      <point x="1456" y="-20" type="curve" smooth="yes"/>
      <point x="1642" y="-20"/>
      <point x="1780" y="56"/>
      <point x="1872" y="208" type="curve"/>
      <point x="1806" y="252" type="line"/>
      <point x="1734" y="124"/>
      <point x="1614" y="56"/>
      <point x="1456" y="56" type="curve" smooth="yes"/>
      <point x="1242" y="56"/>
      <point x="1066" y="256"/>
      <point x="1066" y="496" type="curve"/>
      <point x="1902" y="496" type="line"/>
      <point x="1902" y="844"/>
      <point x="1736" y="1054"/>
      <point x="1450" y="1054" type="curve" smooth="yes"/>
      <point x="1262" y="1054"/>
      <point x="1110" y="950"/>
      <point x="1038" y="784" type="curve" smooth="yes"/>
      <point x="1030" y="766"/>
      <point x="1022" y="766"/>
      <point x="1012" y="784" type="curve" smooth="yes"/>
      <point x="938" y="952"/>
      <point x="788" y="1054"/>
      <point x="596" y="1054" type="curve" smooth="yes"/>
      <point x="310" y="1054"/>
      <point x="120" y="834"/>
      <point x="120" y="510" type="curve" smooth="yes"/>
      <point x="120" y="192"/>
      <point x="306" y="-20"/>
    </contour>
    <contour>
      <point x="598" y="56" type="curve" smooth="yes"/>
      <point x="360" y="56"/>
      <point x="202" y="240"/>
      <point x="202" y="514" type="curve" smooth="yes"/>
      <point x="202" y="790"/>
      <point x="360" y="976"/>
      <point x="596" y="976" type="curve" smooth="yes"/>
      <point x="828" y="976"/>
      <point x="986" y="790"/>
      <point x="986" y="514" type="curve" smooth="yes"/>
      <point x="986" y="238"/>
      <point x="834" y="56"/>
    </contour>
    <contour>
      <point x="1454" y="976" type="curve" smooth="yes"/>
      <point x="1672" y="976"/>
      <point x="1822" y="796"/>
      <point x="1822" y="566" type="curve"/>
      <point x="1070" y="568" type="line"/>
      <point x="1068" y="804"/>
      <point x="1230" y="976"/>
    </contour>
  </outline>
</glyph>
<glyph name="Tbar" format="1">
  <advance width="1190"/>
  <unicode hex="0166"/>
  <outline>
    <contour>
      <point x="928" y="784" type="line"/>
      <point x="214" y="784" type="line"/>
      <point x="214" y="702" type="line"/>
      <point x="928" y="702" type="line"/>
    </contour>
    <component base="T"/>
  </outline>
</glyph>
<glyph name="tbar" format="1">
  <advance width="700"/>
  <unicode hex="0167"/>
  <outline>
    <contour>
      <point x="576" y="614" type="line"/>
      <point x="130" y="614" type="line"/>
      <point x="130" y="546" type="line"/>
      <point x="576" y="546" type="line"/>
    </contour>
    <component base="t" xOffset="32"/>
  </outline>
</glyph>
<glyph name="Schwa" format="1">
  <advance width="1452"/>
  <unicode hex="018F"/>
  <outline>
    <contour>
      <point x="1212" y="752" type="curve" smooth="yes"/>
      <point x="1212" y="742"/>
      <point x="1210" y="742"/>
      <point x="1200" y="742" type="curve" smooth="yes"/>
      <point x="156" y="742" type="line" smooth="yes"/>
      <point x="140" y="742"/>
      <point x="140" y="732"/>
      <point x="140" y="720" type="curve" smooth="yes"/>
      <point x="140" y="340"/>
      <point x="270" y="-20"/>
      <point x="728" y="-20" type="curve" smooth="yes"/>
      <point x="1174" y="-20"/>
      <point x="1312" y="352"/>
      <point x="1312" y="714" type="curve" smooth="yes"/>
      <point x="1312" y="1036"/>
      <point x="1216" y="1466"/>
      <point x="728" y="1466" type="curve" smooth="yes"/>
      <point x="284" y="1466"/>
      <point x="198" y="1092"/>
      <point x="168" y="1018" type="curve" smooth="yes"/>
      <point x="164" y="1008"/>
      <point x="162" y="1002"/>
      <point x="170" y="1000" type="curve" smooth="yes"/>
      <point x="244" y="976" type="line" smooth="yes"/>
      <point x="252" y="974"/>
      <point x="256" y="972"/>
      <point x="258" y="976" type="curve" smooth="yes"/>
      <point x="286" y="1036"/>
      <point x="320" y="1382"/>
      <point x="728" y="1382" type="curve" smooth="yes"/>
      <point x="1152" y="1382"/>
      <point x="1212" y="982"/>
    </contour>
    <contour>
      <point x="1212" y="660" type="line"/>
      <point x="1206" y="372"/>
      <point x="1110" y="64"/>
      <point x="728" y="64" type="curve" smooth="yes"/>
      <point x="344" y="64"/>
      <point x="242" y="374"/>
      <point x="242" y="648" type="curve" smooth="yes"/>
      <point x="242" y="656"/>
      <point x="246" y="660"/>
      <point x="258" y="660" type="curve" smooth="yes"/>
    </contour>
  </outline>
</glyph>
<glyph name="florin" format="2">
	<advance width="805"/>
	<unicode hex="0192"/>
	<outline>
		<contour>
			<point x="651" y="1059" type="line"/>
			<point x="358" y="1059" type="line"/>
			<point x="391" y="1243" type="line" smooth="yes"/>
			<point x="410" y="1346"/>
			<point x="473" y="1411"/>
			<point x="559" y="1411" type="curve" smooth="yes"/>
			<point x="723" y="1411" type="line"/>
			<point x="733" y="1481" type="line"/>
			<point x="580" y="1481" type="line" smooth="yes"/>
			<point x="430" y="1481"/>
			<point x="338" y="1399"/>
			<point x="309" y="1235" type="curve" smooth="yes"/>
			<point x="279" y="1059" type="line"/>
			<point x="109" y="1059" type="line"/>
			<point x="96" y="989" type="line"/>
			<point x="266" y="989" type="line"/>
			<point x="78" y="-92" type="line" smooth="yes"/>
			<point x="55" y="-219"/>
			<point x="6" y="-268"/>
			<point x="-100" y="-270" type="curve" smooth="yes"/>
			<point x="-215" y="-272" type="line"/>
			<point x="-225" y="-340" type="line"/>
			<point x="-113" y="-340" type="line" smooth="yes"/>
			<point x="47" y="-340"/>
			<point x="131" y="-246"/>
			<point x="160" y="-82" type="curve" smooth="yes"/>
			<point x="346" y="989" type="line"/>
			<point x="639" y="989" type="line"/>
		</contour>
	</outline>
</glyph>
<glyph name="oinvertedbreve" format="1">
  <advance width="1110"/>
  <unicode hex="020F"/>
  <outline>
    <component base="o"/>
    <component base="breveinvertedcomb" xOffset="300"/>
    <contour>
      <point x="564" y="1034" type="move" name="top"/>
    </contour>
  </outline>
</glyph>
<glyph name="jdotless" format="1">
  <advance width="478"/>
  <unicode hex="0237"/>
  <outline>
    <contour>
      <point x="298" y="-100" type="curve" smooth="yes"/>
      <point x="298" y="1034" type="line"/>
      <point x="220" y="1034" type="line"/>
      <point x="220" y="-90" type="line" smooth="yes"/>
      <point x="220" y="-214"/>
      <point x="178" y="-258"/>
      <point x="76" y="-260" type="curve" smooth="yes"/>
      <point x="-50" y="-262" type="line"/>
      <point x="-50" y="-314" type="line" smooth="yes"/>
      <point x="-50" y="-330"/>
      <point x="-38" y="-332"/>
      <point x="78" y="-332" type="curve" smooth="yes"/>
      <point x="254" y="-332"/>
      <point x="298" y="-260"/>
    </contour>
    <contour>
      <point x="258" y="1034" type="move" name="top"/>
    </contour>
  </outline>
</glyph>
<glyph name="commaturnedmod" format="1">
  <advance width="366"/>
  <unicode hex="02BB"/>
  <outline>
    <contour>
      <point x="266" y="1362" type="line"/>
      <point x="266" y="1416" type="line"/>
      <point x="198" y="1432"/>
      <point x="100" y="1338"/>
      <point x="100" y="1206" type="curve"/>
      <point x="100" y="1068" type="line"/>
      <point x="266" y="1068" type="line"/>
      <point x="266" y="1224" type="line"/>
      <point x="172" y="1224" type="line"/>
      <point x="172" y="1232" type="line"/>
      <point x="172" y="1292"/>
      <point x="210" y="1362"/>
      <point x="256" y="1362" type="curve"/>
    </contour>
  </outline>
</glyph>
<glyph name="gravecomb" format="1">
  <advance width="346"/>
  <unicode hex="0300"/>
  <outline>
    <component base="acutecomb" xScale="-1" xOffset="346"/>
    <contour>
      <point x="300" y="1034" type="move" name="_top"/>
    </contour>
  </outline>
</glyph>
<glyph name="acutecomb" format="1">
  <advance width="346"/>
  <unicode hex="0301"/>
  <outline>
    <contour>
      <point x="216" y="1446" type="line"/>
      <point x="10" y="1155" type="line"/>
      <point x="85" y="1155" type="line"/>
      <point x="336" y="1446" type="line"/>
    </contour>
    <contour>
      <point x="48" y="1034" type="move" name="_top"/>
    </contour>
  </outline>
</glyph>
<glyph name="circumflexcomb" format="1">
  <advance width="540"/>
  <unicode hex="0302"/>
  <outline>
    <contour>
      <point x="418" y="1155" type="line"/>
      <point x="538" y="1155" type="line"/>
      <point x="304" y="1345" type="line"/>
      <point x="240" y="1345" type="line"/>
      <point x="2" y="1155" type="line"/>
      <point x="114" y="1155" type="line"/>
      <point x="270" y="1275" type="line"/>
    </contour>
    <contour>
      <point x="270" y="1034" type="move" name="_top"/>
    </contour>
  </outline>
</glyph>
<glyph name="tildecomb" format="2">
	<advance width="559"/>
	<unicode hex="0303"/>
	<anchor x="279" y="1059" name="_top"/>
	<outline>
		<contour>
			<point x="543" y="1391" type="curve"/>
			<point x="514" y="1452" type="line"/>
			<point x="475" y="1425"/>
			<point x="449" y="1409"/>
			<point x="397" y="1409" type="curve" smooth="yes"/>
			<point x="309" y="1409"/>
			<point x="248" y="1460"/>
			<point x="160" y="1460" type="curve" smooth="yes"/>
			<point x="96" y="1460"/>
			<point x="57" y="1434"/>
			<point x="16" y="1401" type="curve"/>
			<point x="41" y="1343" type="line"/>
			<point x="72" y="1362"/>
			<point x="102" y="1393"/>
			<point x="168" y="1393" type="curve" smooth="yes"/>
			<point x="250" y="1393"/>
			<point x="291" y="1343"/>
			<point x="395" y="1343" type="curve" smooth="yes"/>
			<point x="475" y="1343"/>
			<point x="514" y="1372"/>
		</contour>
	</outline>
</glyph>
<glyph name="macroncomb" format="2">
	<advance width="526"/>
	<unicode hex="0304"/>
	<anchor x="264" y="1034" name="_top"/>
	<outline>
		<contour>
			<point x="508" y="1339" type="line"/>
			<point x="18" y="1339" type="line"/>
			<point x="18" y="1265" type="line"/>
			<point x="508" y="1265" type="line"/>
		</contour>
	</outline>
</glyph>
<glyph name="brevecomb" format="2">
	<advance width="555"/>
	<unicode hex="0306"/>
	<anchor x="278" y="1063" name="_top"/>
	<outline>
		<contour>
			<point x="539" y="1364" type="curve"/>
			<point x="438" y="1364" type="line"/>
			<point x="414" y="1325"/>
			<point x="367" y="1264"/>
			<point x="272" y="1264" type="curve" smooth="yes"/>
			<point x="166" y="1264"/>
			<point x="131" y="1335"/>
			<point x="113" y="1364" type="curve"/>
			<point x="16" y="1364" type="line"/>
			<point x="35" y="1282"/>
			<point x="115" y="1182"/>
			<point x="272" y="1182" type="curve" smooth="yes"/>
			<point x="434" y="1182"/>
			<point x="518" y="1294"/>
		</contour>
	</outline>
</glyph>
<glyph name="dotaccentcomb" format="2">
	<advance width="116"/>
	<unicode hex="0307"/>
	<anchor x="58" y="1034" name="_top"/>
	<outline>
		<contour>
			<point x="10" y="1248" type="line"/>
			<point x="106" y="1248" type="line"/>
			<point x="106" y="1368" type="line"/>
			<point x="10" y="1368" type="line"/>
		</contour>
	</outline>
</glyph>
<glyph name="dieresiscomb" format="1">
  <advance width="428"/>
  <unicode hex="0308"/>
  <outline>
    <contour>
      <point x="74" y="1292" type="curve" smooth="yes"/>
      <point x="109" y="1292"/>
      <point x="138" y="1321"/>
      <point x="138" y="1356" type="curve" smooth="yes"/>
      <point x="138" y="1391"/>
      <point x="109" y="1420"/>
      <point x="74" y="1420" type="curve" smooth="yes"/>
      <point x="39" y="1420"/>
      <point x="10" y="1391"/>
      <point x="10" y="1356" type="curve" smooth="yes"/>
      <point x="10" y="1321"/>
      <point x="39" y="1292"/>
    </contour>
    <contour>
      <point x="354" y="1292" type="curve" smooth="yes"/>
      <point x="389" y="1292"/>
      <point x="418" y="1321"/>
      <point x="418" y="1356" type="curve" smooth="yes"/>
      <point x="418" y="1391"/>
      <point x="389" y="1420"/>
      <point x="354" y="1420" type="curve" smooth="yes"/>
      <point x="319" y="1420"/>
      <point x="290" y="1391"/>
      <point x="290" y="1356" type="curve" smooth="yes"/>
      <point x="290" y="1321"/>
      <point x="319" y="1292"/>
    </contour>
    <contour>
      <point x="214" y="1034" type="move" name="_top"/>
    </contour>
  </outline>
</glyph>
<glyph name="hookabovecomb" format="2">
	<advance width="1229"/>
	<unicode hex="0309"/>
	<guideline x="355" y="720" angle="302.6992"/>
	<guideline x="271" y="660" angle="302.6992"/>
	<guideline x="325" y="699" angle="302.6992"/>
	<guideline x="246" y="697" angle="32.7"/>
	<guideline x="269" y="663" angle="32.7"/>
	<guideline x="289" y="632" angle="32.7"/>
	<anchor x="641" y="1085" name="_top"/>
	<anchor x="555" y="1196" name="_topviet"/>
	<outline>
		<contour>
			<point x="504" y="1495" type="line"/>
			<point x="610" y="1563"/>
			<point x="717" y="1550"/>
			<point x="768" y="1475" type="curve" smooth="yes"/>
			<point x="829" y="1384"/>
			<point x="782" y="1290"/>
			<point x="678" y="1225" type="curve"/>
			<point x="637" y="1286" type="line"/>
			<point x="700" y="1327"/>
			<point x="735" y="1386"/>
			<point x="707" y="1432" type="curve" smooth="yes"/>
			<point x="676" y="1481"/>
			<point x="606" y="1473"/>
			<point x="545" y="1432" type="curve"/>
		</contour>
	</outline>
</glyph>
<glyph name="ringcomb" format="2">
	<advance width="434"/>
	<unicode hex="030A"/>
	<anchor x="217" y="1059" name="_top"/>
	<outline>
		<contour>
			<point x="418" y="1399" type="curve" smooth="yes"/>
			<point x="418" y="1509"/>
			<point x="330" y="1595"/>
			<point x="217" y="1595" type="curve" smooth="yes"/>
			<point x="109" y="1595"/>
			<point x="18" y="1509"/>
			<point x="18" y="1403" type="curve" smooth="yes"/>
			<point x="18" y="1288"/>
			<point x="106" y="1200"/>
			<point x="217" y="1200" type="curve" smooth="yes"/>
			<point x="330" y="1200"/>
			<point x="418" y="1286"/>
		</contour>
		<contour>
			<point x="332" y="1399" type="curve" smooth="yes"/>
			<point x="332" y="1335"/>
			<point x="281" y="1280"/>
			<point x="215" y="1280" type="curve" smooth="yes"/>
			<point x="154" y="1280"/>
			<point x="98" y="1335"/>
			<point x="98" y="1399" type="curve" smooth="yes"/>
			<point x="98" y="1468"/>
			<point x="154" y="1516"/>
			<point x="215" y="1516" type="curve" smooth="yes"/>
			<point x="281" y="1516"/>
			<point x="332" y="1468"/>
		</contour>
	</outline>
</glyph>
<glyph name="hungarumlautcomb" format="1">
  <advance width="571"/>
  <unicode hex="030B"/>
  <outline>
    <component base="dblgravecomb" xScale="-1" xOffset="571"/>
    <contour>
      <point x="143" y="1034" type="move" name="_top"/>
    </contour>
  </outline>
</glyph>
<glyph name="caroncomb" format="1">
  <advance width="542"/>
  <unicode hex="030C"/>
  <outline>
    <contour>
      <point x="418" y="1345" type="line"/>
      <point x="270" y="1225" type="line"/>
      <point x="114" y="1345" type="line"/>
      <point x="0" y="1345" type="line"/>
      <point x="240" y="1155" type="line"/>
      <point x="304" y="1155" type="line"/>
      <point x="538" y="1345" type="line"/>
    </contour>
    <contour>
      <point x="270" y="1034" type="move" name="_top"/>
    </contour>
  </outline>
</glyph>
<glyph name="dblgravecomb" format="1">
  <advance width="571"/>
  <unicode hex="030F"/>
  <outline>
    <contour>
      <point x="370" y="1446" type="line"/>
      <point x="250" y="1446" type="line"/>
      <point x="486" y="1155" type="line"/>
      <point x="561" y="1155" type="line"/>
    </contour>
    <contour>
      <point x="130" y="1446" type="line"/>
      <point x="10" y="1446" type="line"/>
      <point x="281" y="1155" type="line"/>
      <point x="356" y="1155" type="line"/>
    </contour>
    <contour>
      <point x="421" y="1034" type="move" name="_top"/>
    </contour>
  </outline>
</glyph>
<glyph name="breveinvertedcomb" format="1">
  <advance width="520"/>
  <unicode hex="0311"/>
  <outline>
    <component base="brevecomb" yScale="-1" xOffset="-12" yOffset="2588"/>
    <contour>
      <point x="260" y="1034" type="move" name="_top"/>
    </contour>
  </outline>
</glyph>
<glyph name="horncomb" format="2">
	<advance width="262"/>
	<unicode hex="031B"/>
	<anchor x="0" y="1004" name="_horn"/>
	<anchor x="129" y="1085" name="_topright"/>
	<anchor x="129" y="1085" name="topright"/>
	<outline>
		<contour>
			<point x="262" y="1268" type="curve"/>
			<point x="158" y="1268" type="line"/>
			<point x="154" y="1118"/>
			<point x="115" y="1085"/>
			<point x="0" y="1087" type="curve"/>
			<point x="0" y="1004" type="line"/>
			<point x="176" y="985"/>
			<point x="262" y="1073"/>
		</contour>
	</outline>
</glyph>
<glyph name="commaaccentcomb" format="1">
  <advance width="160"/>
  <unicode hex="0326"/>
  <outline>
    <component base="comma" xOffset="-119" yOffset="-320"/>
    <contour>
      <point x="80" y="0" type="move" name="_bottom"/>
    </contour>
  </outline>
</glyph>
<glyph name="cedillacomb" format="2">
	<advance width="387"/>
	<unicode hex="0327"/>
	<guideline x="388" y="-121" angle="0"/>
	<anchor x="223" y="0" name="_bottom"/>
	<outline>
		<contour>
			<point x="369" y="-258" type="curve" smooth="yes"/>
			<point x="369" y="-195"/>
			<point x="334" y="-127"/>
			<point x="209" y="-117" type="curve"/>
			<point x="260" y="10" type="line"/>
			<point x="193" y="10" type="line"/>
			<point x="119" y="-158" type="line" smooth="yes"/>
			<point x="117" y="-162"/>
			<point x="117" y="-166"/>
			<point x="127" y="-166" type="curve" smooth="yes"/>
			<point x="231" y="-170"/>
			<point x="281" y="-199"/>
			<point x="281" y="-262" type="curve" smooth="yes"/>
			<point x="281" y="-317"/>
			<point x="246" y="-348"/>
			<point x="162" y="-348" type="curve" smooth="yes"/>
			<point x="100" y="-348"/>
			<point x="68" y="-330"/>
			<point x="39" y="-303" type="curve"/>
			<point x="16" y="-360" type="line"/>
			<point x="59" y="-391"/>
			<point x="109" y="-408"/>
			<point x="170" y="-408" type="curve" smooth="yes"/>
			<point x="279" y="-408"/>
			<point x="369" y="-358"/>
		</contour>
	</outline>
</glyph>
<glyph name="ogonekcomb" format="2">
	<advance width="385"/>
	<unicode hex="0328"/>
	<anchor x="297" y="25" name="_ogonek"/>
	<outline>
		<contour>
			<point x="18" y="-180" type="curve" smooth="yes"/>
			<point x="18" y="-270"/>
			<point x="74" y="-336"/>
			<point x="201" y="-336" type="curve" smooth="yes"/>
			<point x="270" y="-336"/>
			<point x="336" y="-317"/>
			<point x="367" y="-301" type="curve"/>
			<point x="367" y="-238" type="line"/>
			<point x="348" y="-248"/>
			<point x="289" y="-268"/>
			<point x="221" y="-268" type="curve" smooth="yes"/>
			<point x="139" y="-268"/>
			<point x="106" y="-240"/>
			<point x="106" y="-184" type="curve" smooth="yes"/>
			<point x="106" y="-106"/>
			<point x="174" y="-57"/>
			<point x="307" y="4" type="curve"/>
			<point x="240" y="23" type="line"/>
			<point x="72" y="-27"/>
			<point x="18" y="-92"/>
		</contour>
	</outline>
</glyph>
<glyph name="pi" format="2">
	<advance width="1317"/>
	<unicode hex="03C0"/>
	<outline>
		<contour>
			<point x="1255" y="989" type="line"/>
			<point x="1255" y="1059" type="line"/>
			<point x="61" y="1059" type="line"/>
			<point x="61" y="989" type="line"/>
			<point x="268" y="989" type="line" smooth="yes"/>
			<point x="279" y="989"/>
			<point x="285" y="981"/>
			<point x="285" y="969" type="curve" smooth="yes"/>
			<point x="285" y="580"/>
			<point x="229" y="225"/>
			<point x="170" y="0" type="curve"/>
			<point x="238" y="0" type="line"/>
			<point x="303" y="195"/>
			<point x="358" y="582"/>
			<point x="358" y="989" type="curve"/>
			<point x="905" y="989" type="line"/>
			<point x="907" y="0" type="line"/>
			<point x="987" y="0" type="line"/>
			<point x="987" y="989" type="line"/>
		</contour>
	</outline>
</glyph>
<glyph name="endash" format="2">
	<advance width="1061"/>
	<unicode hex="2013"/>
	<outline>
		<contour>
			<point x="931" y="559" type="line"/>
			<point x="130" y="557" type="line"/>
			<point x="130" y="477" type="line"/>
			<point x="931" y="479" type="line"/>
		</contour>
	</outline>
</glyph>
<glyph name="emdash" format="1">
  <advance width="1668"/>
  <unicode hex="2014"/>
  <outline>
    <contour>
      <point x="1538" y="546" type="line"/>
      <point x="130" y="544" type="line"/>
      <point x="130" y="466" type="line"/>
      <point x="1538" y="468" type="line"/>
    </contour>
  </outline>
</glyph>
<glyph name="quoteright" format="2">
	<advance width="412"/>
	<unicode hex="2019"/>
	<outline>
		<contour>
			<point x="102" y="1090" type="line"/>
			<point x="168" y="1090" type="line"/>
			<point x="309" y="1341" type="line"/>
			<point x="309" y="1481" type="line"/>
			<point x="139" y="1481" type="line"/>
			<point x="139" y="1319" type="line"/>
			<point x="211" y="1319" type="line"/>
		</contour>
	</outline>
</glyph>
<glyph name="quotesinglbase" format="2">
	<advance width="422"/>
	<unicode hex="201A"/>
	<outline>
		<contour>
			<point x="82" y="-227" type="line"/>
			<point x="147" y="-227" type="line"/>
			<point x="289" y="25" type="line"/>
			<point x="289" y="164" type="line"/>
			<point x="119" y="164" type="line"/>
			<point x="119" y="0" type="line"/>
			<point x="190" y="0" type="line"/>
		</contour>
	</outline>
</glyph>
<glyph name="quotedblleft" format="1">
  <advance width="718"/>
  <unicode hex="201C"/>
  <outline>
    <contour>
      <point x="422" y="1064" type="line"/>
      <point x="588" y="1064" type="line"/>
      <point x="588" y="1224" type="line"/>
      <point x="516" y="1224" type="line"/>
      <point x="624" y="1446" type="line"/>
      <point x="560" y="1446" type="line"/>
      <point x="422" y="1202" type="line"/>
    </contour>
    <contour>
      <point x="136" y="1064" type="line"/>
      <point x="302" y="1064" type="line"/>
      <point x="302" y="1224" type="line"/>
      <point x="232" y="1224" type="line"/>
      <point x="340" y="1446" type="line"/>
      <point x="276" y="1446" type="line"/>
      <point x="136" y="1202" type="line"/>
    </contour>
  </outline>
</glyph>
<glyph name="quotedblright" format="2">
	<advance width="703"/>
	<unicode hex="201D"/>
	<outline>
		<contour>
			<point x="393" y="1090" type="line"/>
			<point x="459" y="1090" type="line"/>
			<point x="600" y="1341" type="line"/>
			<point x="600" y="1481" type="line"/>
			<point x="432" y="1481" type="line"/>
			<point x="432" y="1319" type="line"/>
			<point x="504" y="1319" type="line"/>
		</contour>
		<contour>
			<point x="102" y="1090" type="line"/>
			<point x="168" y="1090" type="line"/>
			<point x="309" y="1341" type="line"/>
			<point x="309" y="1481" type="line"/>
			<point x="139" y="1481" type="line"/>
			<point x="139" y="1319" type="line"/>
			<point x="211" y="1319" type="line"/>
		</contour>
	</outline>
</glyph>
<glyph name="dagger" format="2">
	<advance width="807"/>
	<unicode hex="2020"/>
	<outline>
		<contour>
			<point x="807" y="930" type="line"/>
			<point x="444" y="920" type="line"/>
			<point x="459" y="1481" type="line"/>
			<point x="352" y="1481" type="line"/>
			<point x="365" y="920" type="line"/>
			<point x="0" y="930" type="line"/>
			<point x="0" y="836" type="line"/>
			<point x="371" y="848" type="line"/>
			<point x="352" y="-330" type="line"/>
			<point x="459" y="-330" type="line"/>
			<point x="438" y="848" type="line"/>
			<point x="807" y="836" type="line"/>
		</contour>
	</outline>
</glyph>
<glyph name="daggerdbl" format="2">
	<advance width="807"/>
	<unicode hex="2021"/>
	<outline>
		<contour>
			<point x="438" y="848" type="line"/>
			<point x="807" y="836" type="line"/>
			<point x="807" y="930" type="line"/>
			<point x="444" y="920" type="line"/>
			<point x="459" y="1481" type="line"/>
			<point x="352" y="1481" type="line"/>
			<point x="365" y="920" type="line"/>
			<point x="0" y="930" type="line"/>
			<point x="0" y="836" type="line"/>
			<point x="371" y="848" type="line"/>
			<point x="371" y="303" type="line"/>
			<point x="0" y="317" type="line"/>
			<point x="0" y="221" type="line"/>
			<point x="365" y="231" type="line"/>
			<point x="352" y="-330" type="line"/>
			<point x="459" y="-330" type="line"/>
			<point x="444" y="231" type="line"/>
			<point x="807" y="221" type="line"/>
			<point x="807" y="317" type="line"/>
			<point x="438" y="303" type="line"/>
		</contour>
	</outline>
</glyph>
<glyph name="bullet" format="2">
	<advance width="573"/>
	<unicode hex="2022"/>
	<outline>
		<contour>
			<point x="287" y="608" type="curve" smooth="yes"/>
			<point x="367" y="608"/>
			<point x="430" y="674"/>
			<point x="430" y="754" type="curve" smooth="yes"/>
			<point x="430" y="834"/>
			<point x="367" y="897"/>
			<point x="287" y="897" type="curve" smooth="yes"/>
			<point x="207" y="897"/>
			<point x="143" y="834"/>
			<point x="143" y="754" type="curve" smooth="yes"/>
			<point x="143" y="674"/>
			<point x="207" y="608"/>
		</contour>
	</outline>
</glyph>
<glyph name="perthousand" format="2">
	<advance width="2572"/>
	<unicode hex="2030"/>
	<outline>
		<contour>
			<point x="451" y="1503" type="curve" smooth="yes"/>
			<point x="260" y="1503"/>
			<point x="123" y="1358"/>
			<point x="123" y="1079" type="curve" smooth="yes"/>
			<point x="123" y="799"/>
			<point x="260" y="653"/>
			<point x="451" y="653" type="curve" smooth="yes"/>
			<point x="641" y="653"/>
			<point x="774" y="799"/>
			<point x="774" y="1079" type="curve" smooth="yes"/>
			<point x="774" y="1358"/>
			<point x="641" y="1503"/>
		</contour>
		<contour>
			<point x="449" y="713" type="curve" smooth="yes"/>
			<point x="293" y="713"/>
			<point x="193" y="868"/>
			<point x="193" y="1079" type="curve" smooth="yes"/>
			<point x="193" y="1288"/>
			<point x="293" y="1444"/>
			<point x="449" y="1444" type="curve" smooth="yes"/>
			<point x="604" y="1444"/>
			<point x="705" y="1290"/>
			<point x="705" y="1079" type="curve" smooth="yes"/>
			<point x="705" y="866"/>
			<point x="604" y="713"/>
		</contour>
		<contour>
			<point x="1333" y="831" type="curve" smooth="yes"/>
			<point x="1143" y="831"/>
			<point x="1006" y="684"/>
			<point x="1006" y="408" type="curve" smooth="yes"/>
			<point x="1006" y="125"/>
			<point x="1143" y="-20"/>
			<point x="1333" y="-20" type="curve" smooth="yes"/>
			<point x="1524" y="-20"/>
			<point x="1657" y="125"/>
			<point x="1657" y="408" type="curve" smooth="yes"/>
			<point x="1657" y="684"/>
			<point x="1524" y="831"/>
		</contour>
		<contour>
			<point x="1331" y="41" type="curve" smooth="yes"/>
			<point x="1182" y="41"/>
			<point x="1075" y="201"/>
			<point x="1075" y="406" type="curve" smooth="yes"/>
			<point x="1075" y="608"/>
			<point x="1182" y="770"/>
			<point x="1331" y="770" type="curve" smooth="yes"/>
			<point x="1481" y="770"/>
			<point x="1587" y="610"/>
			<point x="1587" y="406" type="curve" smooth="yes"/>
			<point x="1587" y="201"/>
			<point x="1481" y="41"/>
		</contour>
		<contour>
			<point x="2126" y="831" type="curve" smooth="yes"/>
			<point x="1935" y="831"/>
			<point x="1798" y="684"/>
			<point x="1798" y="408" type="curve" smooth="yes"/>
			<point x="1798" y="125"/>
			<point x="1935" y="-20"/>
			<point x="2126" y="-20" type="curve" smooth="yes"/>
			<point x="2316" y="-20"/>
			<point x="2449" y="125"/>
			<point x="2449" y="408" type="curve" smooth="yes"/>
			<point x="2449" y="684"/>
			<point x="2316" y="831"/>
		</contour>
		<contour>
			<point x="2124" y="41" type="curve" smooth="yes"/>
			<point x="1974" y="41"/>
			<point x="1868" y="201"/>
			<point x="1868" y="406" type="curve" smooth="yes"/>
			<point x="1868" y="608"/>
			<point x="1974" y="770"/>
			<point x="2124" y="770" type="curve" smooth="yes"/>
			<point x="2273" y="770"/>
			<point x="2380" y="610"/>
			<point x="2380" y="406" type="curve" smooth="yes"/>
			<point x="2380" y="201"/>
			<point x="2273" y="41"/>
		</contour>
		<component base="fraction" xOffset="672"/>
	</outline>
</glyph>
<glyph name="guilsinglleft" format="2">
	<advance width="506"/>
	<unicode hex="2039"/>
	<outline>
		<contour>
			<point x="168" y="514" type="line"/>
			<point x="414" y="889" type="line"/>
			<point x="356" y="889" type="line"/>
			<point x="61" y="514" type="line"/>
			<point x="354" y="156" type="line"/>
			<point x="410" y="156" type="line"/>
		</contour>
	</outline>
</glyph>
<glyph name="guilsinglright" format="2">
	<advance width="504"/>
	<unicode hex="203A"/>
	<outline>
		<contour>
			<point x="338" y="514" type="line"/>
			<point x="96" y="156" type="line"/>
			<point x="150" y="156" type="line"/>
			<point x="442" y="514" type="line"/>
			<point x="147" y="889" type="line"/>
			<point x="92" y="889" type="line"/>
		</contour>
	</outline>
</glyph>
<glyph name="fraction" format="1">
  <advance width="490"/>
  <unicode hex="2044"/>
  <outline>
    <contour>
      <point x="770" y="1462" type="line"/>
      <point x="696" y="1462" type="line"/>
      <point x="-280" y="-8" type="line"/>
      <point x="-202" y="-8" type="line"/>
    </contour>
  </outline>
</glyph>
<glyph name="colonsign" format="1">
  <advance width="1130"/>
  <unicode hex="20A1"/>
  <outline>
    <contour>
      <point x="558" y="1188" type="line"/>
      <point x="628" y="1446" type="line"/>
      <point x="544" y="1446" type="line"/>
      <point x="480" y="1208" type="line"/>
    </contour>
    <contour>
      <point x="746" y="1188" type="line"/>
      <point x="816" y="1446" type="line"/>
      <point x="734" y="1446" type="line"/>
      <point x="668" y="1208" type="line"/>
    </contour>
    <contour>
      <point x="580" y="0" type="line"/>
      <point x="646" y="240" type="line"/>
      <point x="568" y="260" type="line"/>
      <point x="498" y="0" type="line"/>
    </contour>
    <contour>
      <point x="392" y="0" type="line"/>
      <point x="456" y="240" type="line"/>
      <point x="378" y="260" type="line"/>
      <point x="308" y="0" type="line"/>
    </contour>
    <component base="c" yOffset="206"/>
  </outline>
</glyph>
<glyph name="franc" format="2">
	<advance width="1212"/>
	<unicode hex="20A3"/>
	<outline>
		<contour>
			<point x="664" y="379" type="line"/>
			<point x="10" y="377" type="line"/>
			<point x="10" y="301" type="line"/>
			<point x="664" y="303" type="line"/>
		</contour>
		<contour>
			<point x="209" y="1481" type="line"/>
			<point x="209" y="0" type="line"/>
			<point x="301" y="0" type="line"/>
			<point x="301" y="682" type="line"/>
			<point x="1030" y="682" type="line"/>
			<point x="1030" y="762" type="line"/>
			<point x="301" y="762" type="line"/>
			<point x="301" y="1401" type="line"/>
			<point x="1090" y="1401" type="line"/>
			<point x="1090" y="1481" type="line"/>
		</contour>
	</outline>
</glyph>
<glyph name="lira" format="2">
	<advance width="1184"/>
	<unicode hex="20A4"/>
	<outline>
		<contour>
			<point x="1071" y="219" type="curve"/>
			<point x="997" y="250" type="line"/>
			<point x="948" y="123"/>
			<point x="850" y="80"/>
			<point x="702" y="80" type="curve"/>
			<point x="266" y="80" type="line"/>
			<point x="362" y="190"/>
			<point x="393" y="381"/>
			<point x="379" y="526" type="curve"/>
			<point x="702" y="526" type="line"/>
			<point x="702" y="602" type="line"/>
			<point x="367" y="600" type="line"/>
			<point x="328" y="825" type="line"/>
			<point x="702" y="827" type="line"/>
			<point x="702" y="903" type="line"/>
			<point x="334" y="901" type="line" smooth="yes"/>
			<point x="324" y="901"/>
			<point x="315" y="907"/>
			<point x="313" y="918" type="curve" smooth="yes"/>
			<point x="297" y="1012"/>
			<point x="285" y="1092"/>
			<point x="285" y="1133" type="curve" smooth="yes"/>
			<point x="285" y="1313"/>
			<point x="428" y="1415"/>
			<point x="602" y="1415" type="curve" smooth="yes"/>
			<point x="750" y="1415"/>
			<point x="831" y="1362"/>
			<point x="881" y="1270" type="curve"/>
			<point x="956" y="1309" type="line"/>
			<point x="918" y="1403"/>
			<point x="766" y="1501"/>
			<point x="598" y="1501" type="curve" smooth="yes"/>
			<point x="344" y="1501"/>
			<point x="152" y="1364"/>
			<point x="221" y="944" type="curve" smooth="yes"/>
			<point x="229" y="901" type="line"/>
			<point x="55" y="901" type="line"/>
			<point x="55" y="825" type="line"/>
			<point x="244" y="825" type="line"/>
			<point x="283" y="600" type="line"/>
			<point x="55" y="600" type="line"/>
			<point x="55" y="524" type="line"/>
			<point x="279" y="524" type="line" smooth="yes"/>
			<point x="289" y="524"/>
			<point x="293" y="522"/>
			<point x="295" y="514" type="curve" smooth="yes"/>
			<point x="297" y="477"/>
			<point x="299" y="451"/>
			<point x="299" y="428" type="curve" smooth="yes"/>
			<point x="299" y="186"/>
			<point x="209" y="76"/>
			<point x="104" y="78" type="curve" smooth="yes"/>
			<point x="20" y="78" type="line"/>
			<point x="20" y="0" type="line"/>
			<point x="702" y="0" type="line" smooth="yes"/>
			<point x="881" y="0"/>
			<point x="1010" y="72"/>
		</contour>
	</outline>
</glyph>
<glyph name="naira" format="2">
	<advance width="1411"/>
	<unicode hex="20A6"/>
	<outline>
		<contour>
			<point x="1401" y="965" type="line"/>
			<point x="10" y="963" type="line"/>
			<point x="10" y="887" type="line"/>
			<point x="1401" y="889" type="line"/>
		</contour>
		<contour>
			<point x="1401" y="645" type="line"/>
			<point x="10" y="643" type="line"/>
			<point x="10" y="567" type="line"/>
			<point x="1401" y="569" type="line"/>
		</contour>
		<component base="N" xOffset="-2"/>
	</outline>
</glyph>
<glyph name="won" format="1">
  <advance width="1928"/>
  <unicode hex="20A9"/>
  <outline>
    <contour>
      <point x="1908" y="942" type="line"/>
      <point x="30" y="940" type="line"/>
      <point x="30" y="866" type="line"/>
      <point x="1908" y="868" type="line"/>
    </contour>
    <contour>
      <point x="1908" y="630" type="line"/>
      <point x="30" y="628" type="line"/>
      <point x="30" y="554" type="line"/>
      <point x="1908" y="556" type="line"/>
    </contour>
    <component base="W" xOffset="-6"/>
  </outline>
</glyph>
<glyph name="dong" format="2">
	<advance width="985"/>
	<unicode hex="20AB"/>
	<outline>
		<contour>
			<point x="756" y="268" type="line"/>
			<point x="827" y="268" type="line"/>
			<point x="827" y="1479" type="line"/>
			<point x="752" y="1479" type="line"/>
			<point x="752" y="1065" type="line" smooth="yes"/>
			<point x="752" y="1044"/>
			<point x="750" y="1038"/>
			<point x="729" y="1055" type="curve" smooth="yes"/>
			<point x="678" y="1098"/>
			<point x="616" y="1151"/>
			<point x="487" y="1151" type="curve" smooth="yes"/>
			<point x="250" y="1151"/>
			<point x="92" y="963"/>
			<point x="92" y="684" type="curve" smooth="yes"/>
			<point x="92" y="397"/>
			<point x="262" y="252"/>
			<point x="469" y="252" type="curve" smooth="yes"/>
			<point x="651" y="252"/>
			<point x="727" y="365"/>
			<point x="756" y="399" type="curve"/>
		</contour>
		<contour>
			<point x="745" y="954" type="curve"/>
			<point x="745" y="545" type="line" smooth="yes"/>
			<point x="745" y="451"/>
			<point x="639" y="330"/>
			<point x="485" y="330" type="curve" smooth="yes"/>
			<point x="326" y="330"/>
			<point x="184" y="442"/>
			<point x="184" y="690" type="curve" smooth="yes"/>
			<point x="184" y="930"/>
			<point x="313" y="1069"/>
			<point x="494" y="1069" type="curve" smooth="yes"/>
			<point x="592" y="1069"/>
			<point x="672" y="1028"/>
		</contour>
		<contour>
			<point x="954" y="1337" type="line"/>
			<point x="440" y="1337" type="line"/>
			<point x="440" y="1268" type="line"/>
			<point x="954" y="1268" type="line"/>
		</contour>
		<contour>
			<point x="838" y="70" type="line"/>
			<point x="131" y="70" type="line"/>
			<point x="131" y="0" type="line"/>
			<point x="838" y="0" type="line"/>
		</contour>
	</outline>
</glyph>
<glyph name="euro" format="2">
	<advance width="1120"/>
	<unicode hex="20AC"/>
	<guideline x="504" y="474" angle="90"/>
	<outline>
		<contour>
			<point x="739" y="-20" type="curve" smooth="yes"/>
			<point x="854" y="-20"/>
			<point x="961" y="14"/>
			<point x="1049" y="72" type="curve"/>
			<point x="999" y="141" type="line"/>
			<point x="930" y="94"/>
			<point x="844" y="66"/>
			<point x="748" y="66" type="curve" smooth="yes"/>
			<point x="401" y="66"/>
			<point x="231" y="305"/>
			<point x="231" y="735" type="curve" smooth="yes"/>
			<point x="231" y="1180"/>
			<point x="406" y="1415"/>
			<point x="731" y="1415" type="curve" smooth="yes"/>
			<point x="827" y="1415"/>
			<point x="909" y="1378"/>
			<point x="981" y="1323" type="curve"/>
			<point x="1038" y="1401" type="line"/>
			<point x="946" y="1464"/>
			<point x="836" y="1501"/>
			<point x="727" y="1501" type="curve" smooth="yes"/>
			<point x="352" y="1501"/>
			<point x="133" y="1219"/>
			<point x="133" y="735" type="curve" smooth="yes"/>
			<point x="133" y="254"/>
			<point x="352" y="-20"/>
		</contour>
		<contour>
			<point x="713" y="944" type="line"/>
			<point x="-41" y="942" type="line"/>
			<point x="-41" y="866" type="line"/>
			<point x="713" y="868" type="line"/>
		</contour>
		<contour>
			<point x="713" y="625" type="line"/>
			<point x="-41" y="623" type="line"/>
			<point x="-41" y="547" type="line"/>
			<point x="713" y="549" type="line"/>
		</contour>
	</outline>
</glyph>
<glyph name="rupeeIndian" format="2">
	<advance width="1077"/>
	<unicode hex="20B9"/>
	<outline>
		<contour>
			<point x="0" y="809" type="line"/>
			<point x="0" y="729" type="line"/>
			<point x="471" y="729" type="line"/>
			<point x="739" y="0" type="line"/>
			<point x="840" y="0" type="line"/>
			<point x="571" y="735" type="line" smooth="yes"/>
			<point x="569" y="741"/>
			<point x="571" y="748"/>
			<point x="580" y="750" type="curve" smooth="yes"/>
			<point x="717" y="791"/>
			<point x="883" y="885"/>
			<point x="883" y="1128" type="curve" smooth="yes"/>
			<point x="883" y="1362"/>
			<point x="715" y="1481"/>
			<point x="428" y="1481" type="curve" smooth="yes"/>
			<point x="0" y="1481" type="line"/>
			<point x="0" y="1401" type="line"/>
			<point x="426" y="1401" type="line" smooth="yes"/>
			<point x="668" y="1401"/>
			<point x="784" y="1309"/>
			<point x="784" y="1126" type="curve" smooth="yes"/>
			<point x="784" y="895"/>
			<point x="643" y="809"/>
			<point x="356" y="809" type="curve" smooth="yes"/>
		</contour>
		<contour>
			<point x="1047" y="1483" type="line"/>
			<point x="4" y="1481" type="line"/>
			<point x="4" y="1405" type="line"/>
			<point x="1047" y="1407" type="line"/>
		</contour>
		<contour>
			<point x="1047" y="1163" type="line"/>
			<point x="4" y="1161" type="line"/>
			<point x="4" y="1085" type="line"/>
			<point x="1047" y="1087" type="line"/>
		</contour>
	</outline>
</glyph>
<glyph name="liraTurkish" format="2">
	<advance width="981"/>
	<unicode hex="20BA"/>
	<outline>
		<contour>
			<point x="426" y="0" type="line" smooth="yes"/>
			<point x="670" y="0"/>
			<point x="870" y="145"/>
			<point x="961" y="434" type="curve"/>
			<point x="874" y="457" type="line"/>
			<point x="774" y="184"/>
			<point x="633" y="80"/>
			<point x="424" y="80" type="curve" smooth="yes"/>
			<point x="299" y="80" type="line"/>
			<point x="299" y="1481" type="line"/>
			<point x="207" y="1481" type="line"/>
			<point x="207" y="0" type="line"/>
		</contour>
		<contour>
			<point x="604" y="1038" type="line"/>
			<point x="31" y="829" type="line"/>
			<point x="59" y="743" type="line"/>
			<point x="637" y="952" type="line"/>
		</contour>
		<contour>
			<point x="604" y="705" type="line"/>
			<point x="31" y="496" type="line"/>
			<point x="59" y="410" type="line"/>
			<point x="637" y="618" type="line"/>
		</contour>
	</outline>
</glyph>
<glyph name="literSign" format="1">
  <advance width="880"/>
  <unicode hex="2113"/>
  <outline>
    <contour>
      <point x="722" y="238" type="line"/>
      <point x="710" y="222"/>
      <point x="712" y="222"/>
      <point x="712" y="222" type="curve" smooth="yes"/>
      <point x="658" y="136"/>
      <point x="608" y="58"/>
      <point x="472" y="58" type="curve" smooth="yes"/>
      <point x="338" y="58"/>
      <point x="280" y="134"/>
      <point x="280" y="402" type="curve"/>
      <point x="280" y="436" type="line"/>
      <point x="482" y="630"/>
      <point x="740" y="882"/>
      <point x="740" y="1172" type="curve" smooth="yes"/>
      <point x="740" y="1344"/>
      <point x="652" y="1466"/>
      <point x="498" y="1466" type="curve" smooth="yes"/>
      <point x="340" y="1466"/>
      <point x="202" y="1334"/>
      <point x="202" y="1038" type="curve" smooth="yes"/>
      <point x="202" y="480" type="line"/>
      <point x="50" y="372" type="line"/>
      <point x="92" y="306" type="line"/>
      <point x="190" y="376" type="line" smooth="yes"/>
      <point x="196" y="380"/>
      <point x="200" y="382"/>
      <point x="202" y="372" type="curve" smooth="yes"/>
      <point x="212" y="328"/>
      <point x="170" y="-20"/>
      <point x="478" y="-20" type="curve" smooth="yes"/>
    </contour>
    <contour>
      <point x="280" y="974" type="line" smooth="yes"/>
      <point x="280" y="1282"/>
      <point x="358" y="1384"/>
      <point x="496" y="1384" type="curve" smooth="yes"/>
      <point x="604" y="1384"/>
      <point x="664" y="1318"/>
      <point x="664" y="1194" type="curve" smooth="yes"/>
      <point x="664" y="910"/>
      <point x="422" y="660"/>
      <point x="280" y="538" type="curve"/>
    </contour>
  </outline>
</glyph>
<glyph name="published" format="2">
	<advance width="1645"/>
	<unicode hex="2117"/>
	<outline>
		<contour>
			<point x="823" y="-20" type="curve" smooth="yes"/>
			<point x="1241" y="-20"/>
			<point x="1583" y="317"/>
			<point x="1583" y="741" type="curve" smooth="yes"/>
			<point x="1583" y="1159"/>
			<point x="1241" y="1501"/>
			<point x="823" y="1501" type="curve" smooth="yes"/>
			<point x="401" y="1501"/>
			<point x="61" y="1159"/>
			<point x="61" y="741" type="curve" smooth="yes"/>
			<point x="61" y="317"/>
			<point x="401" y="-20"/>
		</contour>
		<contour>
			<point x="823" y="68" type="curve" smooth="yes"/>
			<point x="461" y="68"/>
			<point x="152" y="332"/>
			<point x="152" y="741" type="curve" smooth="yes"/>
			<point x="152" y="1145"/>
			<point x="461" y="1415"/>
			<point x="823" y="1415" type="curve" smooth="yes"/>
			<point x="1176" y="1415"/>
			<point x="1493" y="1145"/>
			<point x="1493" y="741" type="curve" smooth="yes"/>
			<point x="1493" y="332"/>
			<point x="1176" y="68"/>
		</contour>
		<contour>
			<point x="1137" y="930" type="curve" smooth="yes"/>
			<point x="1137" y="1073"/>
			<point x="1018" y="1135"/>
			<point x="850" y="1135" type="curve" smooth="yes"/>
			<point x="571" y="1135" type="line"/>
			<point x="571" y="336" type="line"/>
			<point x="651" y="336" type="line"/>
			<point x="651" y="678" type="line"/>
			<point x="856" y="678" type="line" smooth="yes"/>
			<point x="1018" y="678"/>
			<point x="1137" y="760"/>
		</contour>
		<contour>
			<point x="1055" y="909" type="curve" smooth="yes"/>
			<point x="1055" y="799"/>
			<point x="965" y="750"/>
			<point x="856" y="750" type="curve" smooth="yes"/>
			<point x="651" y="750" type="line"/>
			<point x="651" y="1063" type="line"/>
			<point x="848" y="1063" type="line" smooth="yes"/>
			<point x="965" y="1063"/>
			<point x="1055" y="1030"/>
		</contour>
	</outline>
</glyph>
<glyph name="Ohm" format="2">
	<advance width="1565"/>
	<unicode hex="2126"/>
	<outline>
		<contour>
			<point x="782" y="1452" type="curve"/>
			<point x="1153" y="1452"/>
			<point x="1321" y="1133"/>
			<point x="1321" y="825" type="curve" smooth="yes"/>
			<point x="1321" y="418"/>
			<point x="1020" y="201"/>
			<point x="866" y="92" type="curve"/>
			<point x="866" y="0" type="line"/>
			<point x="1346" y="0" type="line"/>
			<point x="1346" y="86" type="line"/>
			<point x="983" y="86" type="line"/>
			<point x="1307" y="352"/>
			<point x="1421" y="520"/>
			<point x="1421" y="838" type="curve" smooth="yes"/>
			<point x="1421" y="1202"/>
			<point x="1196" y="1540"/>
			<point x="782" y="1540" type="curve"/>
			<point x="369" y="1540"/>
			<point x="143" y="1204"/>
			<point x="143" y="836" type="curve" smooth="yes"/>
			<point x="143" y="350"/>
			<point x="530" y="125"/>
			<point x="578" y="86" type="curve"/>
			<point x="219" y="86" type="line"/>
			<point x="219" y="0" type="line"/>
			<point x="698" y="0" type="line"/>
			<point x="698" y="92" type="line"/>
			<point x="381" y="324"/>
			<point x="244" y="524"/>
			<point x="244" y="825" type="curve" smooth="yes"/>
			<point x="244" y="1133"/>
			<point x="412" y="1452"/>
		</contour>
	</outline>
</glyph>
<glyph name="partialdiff" format="2">
	<advance width="1178"/>
	<unicode hex="2202"/>
	<outline>
		<contour>
			<point x="225" y="1309" type="line"/>
			<point x="307" y="1364"/>
			<point x="385" y="1413"/>
			<point x="522" y="1413" type="curve" smooth="yes"/>
			<point x="801" y="1413"/>
			<point x="963" y="1210"/>
			<point x="963" y="770" type="curve" smooth="yes"/>
			<point x="963" y="762"/>
			<point x="958" y="758"/>
			<point x="938" y="768" type="curve" smooth="yes"/>
			<point x="829" y="834"/>
			<point x="758" y="870"/>
			<point x="608" y="870" type="curve" smooth="yes"/>
			<point x="297" y="870"/>
			<point x="113" y="707"/>
			<point x="113" y="444" type="curve" smooth="yes"/>
			<point x="113" y="180"/>
			<point x="303" y="-20"/>
			<point x="569" y="-20" type="curve" smooth="yes"/>
			<point x="881" y="-20"/>
			<point x="1065" y="256"/>
			<point x="1065" y="752" type="curve" smooth="yes"/>
			<point x="1065" y="1251"/>
			<point x="877" y="1501"/>
			<point x="559" y="1501" type="curve" smooth="yes"/>
			<point x="422" y="1501"/>
			<point x="264" y="1452"/>
			<point x="190" y="1368" type="curve"/>
		</contour>
		<contour>
			<point x="551" y="66" type="line" smooth="yes"/>
			<point x="362" y="66"/>
			<point x="209" y="236"/>
			<point x="209" y="438" type="curve" smooth="yes"/>
			<point x="209" y="639"/>
			<point x="362" y="784"/>
			<point x="580" y="784" type="curve" smooth="yes"/>
			<point x="721" y="784"/>
			<point x="883" y="721"/>
			<point x="952" y="641" type="curve" smooth="yes"/>
			<point x="967" y="627"/>
			<point x="969" y="612"/>
			<point x="965" y="569" type="curve" smooth="yes"/>
			<point x="936" y="266"/>
			<point x="762" y="66"/>
			<point x="553" y="66" type="curve" smooth="yes"/>
		</contour>
	</outline>
</glyph>
<glyph name="emptyset" format="2">
	<advance width="1149"/>
	<unicode hex="2205"/>
	<outline>
		<contour>
			<point x="575" y="348" type="curve" smooth="yes"/>
			<point x="793" y="348"/>
			<point x="973" y="526"/>
			<point x="973" y="745" type="curve" smooth="yes"/>
			<point x="973" y="963"/>
			<point x="793" y="1141"/>
			<point x="575" y="1141" type="curve" smooth="yes"/>
			<point x="356" y="1141"/>
			<point x="180" y="963"/>
			<point x="180" y="745" type="curve" smooth="yes"/>
			<point x="180" y="526"/>
			<point x="356" y="348"/>
		</contour>
		<contour>
			<point x="575" y="420" type="curve" smooth="yes"/>
			<point x="395" y="420"/>
			<point x="252" y="565"/>
			<point x="252" y="745" type="curve" smooth="yes"/>
			<point x="252" y="922"/>
			<point x="395" y="1069"/>
			<point x="575" y="1069" type="curve" smooth="yes"/>
			<point x="756" y="1069"/>
			<point x="901" y="922"/>
			<point x="901" y="745" type="curve" smooth="yes"/>
			<point x="901" y="565"/>
			<point x="756" y="420"/>
		</contour>
		<contour>
			<point x="1016" y="1083" type="line"/>
			<point x="965" y="1139" type="line"/>
			<point x="133" y="377" type="line"/>
			<point x="188" y="322" type="line"/>
		</contour>
	</outline>
</glyph>
<glyph name="increment" format="1">
  <advance width="1272"/>
  <unicode hex="2206"/>
  <outline>
    <contour>
      <point x="40" y="0" type="line"/>
      <point x="1232" y="0" type="line"/>
      <point x="634" y="1446" type="line"/>
    </contour>
    <contour>
      <point x="162" y="84" type="line"/>
      <point x="634" y="1210" type="line"/>
      <point x="1106" y="84" type="line"/>
    </contour>
  </outline>
</glyph>
<glyph name="product" format="2">
	<advance width="1257"/>
	<unicode hex="220F"/>
	<outline>
		<contour>
			<point x="1227" y="1481" type="line"/>
			<point x="31" y="1481" type="line"/>
			<point x="31" y="1399" type="line"/>
			<point x="252" y="1399" type="line"/>
			<point x="252" y="0" type="line"/>
			<point x="344" y="0" type="line"/>
			<point x="344" y="1399" type="line"/>
			<point x="913" y="1399" type="line"/>
			<point x="913" y="0" type="line"/>
			<point x="1004" y="0" type="line"/>
			<point x="1004" y="1399" type="line"/>
			<point x="1227" y="1399" type="line"/>
		</contour>
	</outline>
</glyph>
<glyph name="summation" format="2">
	<advance width="993"/>
	<unicode hex="2211"/>
	<outline>
		<contour>
			<point x="952" y="0" type="line"/>
			<point x="952" y="80" type="line"/>
			<point x="166" y="80" type="line"/>
			<point x="608" y="743" type="line"/>
			<point x="197" y="1401" type="line"/>
			<point x="915" y="1401" type="line"/>
			<point x="915" y="1481" type="line"/>
			<point x="82" y="1481" type="line"/>
			<point x="82" y="1409" type="line"/>
			<point x="504" y="741" type="line"/>
			<point x="51" y="68" type="line"/>
			<point x="51" y="0" type="line"/>
		</contour>
	</outline>
</glyph>
<glyph name="bulletoperator" format="1">
  <advance width="564"/>
  <unicode hex="2219"/>
  <outline>
    <contour>
      <point x="282" y="642" type="curve" smooth="yes"/>
      <point x="334" y="642"/>
      <point x="374" y="684"/>
      <point x="374" y="736" type="curve" smooth="yes"/>
      <point x="374" y="788"/>
      <point x="334" y="828"/>
      <point x="282" y="828" type="curve" smooth="yes"/>
      <point x="230" y="828"/>
      <point x="190" y="788"/>
      <point x="190" y="736" type="curve" smooth="yes"/>
      <point x="190" y="684"/>
      <point x="230" y="642"/>
    </contour>
  </outline>
</glyph>
<glyph name="radical" format="2">
	<advance width="1188"/>
	<unicode hex="221A"/>
	<outline>
		<contour>
			<point x="1198" y="1690" type="line"/>
			<point x="1116" y="1690" type="line"/>
			<point x="614" y="-215" type="line"/>
			<point x="270" y="766" type="line"/>
			<point x="31" y="674" type="line"/>
			<point x="57" y="600" type="line"/>
			<point x="205" y="659" type="line"/>
			<point x="571" y="-330" type="line"/>
			<point x="670" y="-330" type="line"/>
		</contour>
	</outline>
</glyph>
<glyph name="infinity" format="2">
	<advance width="1378"/>
	<unicode hex="221E"/>
	<outline>
		<contour>
			<point x="1276" y="559" type="line" smooth="yes"/>
			<point x="1276" y="739"/>
			<point x="1157" y="850"/>
			<point x="997" y="850" type="curve" smooth="yes"/>
			<point x="858" y="850"/>
			<point x="780" y="764"/>
			<point x="721" y="698" type="curve" smooth="yes"/>
			<point x="705" y="680"/>
			<point x="698" y="680"/>
			<point x="678" y="698" type="curve" smooth="yes"/>
			<point x="600" y="784"/>
			<point x="539" y="850"/>
			<point x="408" y="850" type="curve" smooth="yes"/>
			<point x="229" y="850"/>
			<point x="102" y="731"/>
			<point x="102" y="549" type="curve" smooth="yes"/>
			<point x="102" y="367"/>
			<point x="233" y="248"/>
			<point x="387" y="248" type="curve" smooth="yes"/>
			<point x="551" y="248"/>
			<point x="643" y="381"/>
			<point x="674" y="414" type="curve" smooth="yes"/>
			<point x="688" y="432"/>
			<point x="692" y="428"/>
			<point x="705" y="414" type="curve" smooth="yes"/>
			<point x="782" y="324"/>
			<point x="850" y="248"/>
			<point x="981" y="248" type="curve" smooth="yes"/>
			<point x="1141" y="248"/>
			<point x="1276" y="360"/>
			<point x="1276" y="557" type="curve" smooth="yes"/>
		</contour>
		<contour>
			<point x="389" y="338" type="line" smooth="yes"/>
			<point x="279" y="338"/>
			<point x="188" y="426"/>
			<point x="188" y="555" type="curve" smooth="yes"/>
			<point x="188" y="680"/>
			<point x="270" y="766"/>
			<point x="387" y="766" type="curve" smooth="yes"/>
			<point x="489" y="766"/>
			<point x="563" y="698"/>
			<point x="635" y="590" type="curve" smooth="yes"/>
			<point x="666" y="545"/>
			<point x="668" y="537"/>
			<point x="639" y="498" type="curve" smooth="yes"/>
			<point x="590" y="430"/>
			<point x="498" y="338"/>
			<point x="395" y="338" type="curve" smooth="yes"/>
		</contour>
		<contour>
			<point x="997" y="766" type="line" smooth="yes"/>
			<point x="1114" y="766"/>
			<point x="1188" y="666"/>
			<point x="1188" y="553" type="curve" smooth="yes"/>
			<point x="1188" y="449"/>
			<point x="1124" y="338"/>
			<point x="1004" y="338" type="curve" smooth="yes"/>
			<point x="952" y="338"/>
			<point x="854" y="358"/>
			<point x="745" y="512" type="curve" smooth="yes"/>
			<point x="727" y="532"/>
			<point x="717" y="563"/>
			<point x="745" y="598" type="curve" smooth="yes"/>
			<point x="811" y="676"/>
			<point x="889" y="766"/>
			<point x="995" y="766" type="curve" smooth="yes"/>
		</contour>
	</outline>
</glyph>
<glyph name="integral" format="2">
	<advance width="842"/>
	<unicode hex="222B"/>
	<outline>
		<contour>
			<point x="319" y="1374" type="curve" smooth="yes"/>
			<point x="319" y="907"/>
			<point x="426" y="440"/>
			<point x="426" y="-27" type="curve" smooth="yes"/>
			<point x="426" y="-186"/>
			<point x="330" y="-258"/>
			<point x="229" y="-258" type="curve" smooth="yes"/>
			<point x="160" y="-258"/>
			<point x="117" y="-244"/>
			<point x="41" y="-203" type="curve"/>
			<point x="10" y="-291" type="line"/>
			<point x="92" y="-340"/>
			<point x="131" y="-350"/>
			<point x="244" y="-350" type="curve" smooth="yes"/>
			<point x="383" y="-350"/>
			<point x="514" y="-236"/>
			<point x="514" y="-14" type="curve" smooth="yes"/>
			<point x="514" y="444"/>
			<point x="410" y="926"/>
			<point x="410" y="1386" type="curve" smooth="yes"/>
			<point x="410" y="1546"/>
			<point x="506" y="1618"/>
			<point x="612" y="1618" type="curve" smooth="yes"/>
			<point x="682" y="1618"/>
			<point x="725" y="1604"/>
			<point x="801" y="1563" type="curve"/>
			<point x="831" y="1651" type="line"/>
			<point x="752" y="1700"/>
			<point x="711" y="1710"/>
			<point x="598" y="1710" type="curve" smooth="yes"/>
			<point x="451" y="1710"/>
			<point x="319" y="1595"/>
		</contour>
	</outline>
</glyph>
<glyph name="approxequal" format="2">
	<advance width="1094"/>
	<unicode hex="2248"/>
	<outline>
		<contour>
			<point x="961" y="920" type="curve"/>
			<point x="934" y="991" type="line"/>
			<point x="897" y="952"/>
			<point x="848" y="907"/>
			<point x="741" y="907" type="curve" smooth="yes"/>
			<point x="600" y="907"/>
			<point x="506" y="997"/>
			<point x="362" y="997" type="curve" smooth="yes"/>
			<point x="250" y="997"/>
			<point x="186" y="948"/>
			<point x="133" y="901" type="curve"/>
			<point x="158" y="836" type="line"/>
			<point x="201" y="879"/>
			<point x="264" y="922"/>
			<point x="369" y="922" type="curve" smooth="yes"/>
			<point x="516" y="922"/>
			<point x="590" y="836"/>
			<point x="739" y="836" type="curve" smooth="yes"/>
			<point x="862" y="836"/>
			<point x="932" y="885"/>
		</contour>
		<contour>
			<point x="961" y="539" type="curve"/>
			<point x="934" y="608" type="line"/>
			<point x="897" y="571"/>
			<point x="848" y="524"/>
			<point x="741" y="524" type="curve" smooth="yes"/>
			<point x="600" y="524"/>
			<point x="506" y="614"/>
			<point x="362" y="614" type="curve" smooth="yes"/>
			<point x="250" y="614"/>
			<point x="186" y="567"/>
			<point x="133" y="520" type="curve"/>
			<point x="158" y="453" type="line"/>
			<point x="201" y="498"/>
			<point x="264" y="541"/>
			<point x="369" y="541" type="curve" smooth="yes"/>
			<point x="510" y="541"/>
			<point x="580" y="453"/>
			<point x="739" y="453" type="curve" smooth="yes"/>
			<point x="862" y="453"/>
			<point x="932" y="504"/>
		</contour>
	</outline>
</glyph>
<glyph name="notequal" format="2">
	<advance width="1042"/>
	<unicode hex="2260"/>
	<outline>
		<contour>
			<point x="788" y="1224" type="line"/>
			<point x="720" y="1224" type="line"/>
			<point x="244" y="168" type="line"/>
			<point x="316" y="168" type="line"/>
		</contour>
		<component base="equal"/>
	</outline>
</glyph>
<glyph name="lessequal" format="2">
	<advance width="1067"/>
	<unicode hex="2264"/>
	<outline>
		<contour>
			<point x="932" y="614" type="line"/>
			<point x="272" y="881" type="line"/>
			<point x="934" y="1145" type="line"/>
			<point x="934" y="1243" type="line"/>
			<point x="150" y="928" type="line"/>
			<point x="150" y="831" type="line"/>
			<point x="932" y="520" type="line"/>
		</contour>
		<contour>
			<point x="934" y="242" type="line"/>
			<point x="133" y="244" type="line"/>
			<point x="133" y="168" type="line"/>
			<point x="934" y="166" type="line"/>
		</contour>
	</outline>
</glyph>
<glyph name="greaterequal" format="2">
	<advance width="1067"/>
	<unicode hex="2265"/>
	<outline>
		<contour>
			<point x="135" y="614" type="line"/>
			<point x="135" y="520" type="line"/>
			<point x="918" y="831" type="line"/>
			<point x="918" y="928" type="line"/>
			<point x="133" y="1243" type="line"/>
			<point x="133" y="1145" type="line"/>
			<point x="797" y="881" type="line"/>
		</contour>
		<contour>
			<point x="133" y="242" type="line"/>
			<point x="133" y="166" type="line"/>
			<point x="934" y="168" type="line"/>
			<point x="934" y="244" type="line"/>
		</contour>
	</outline>
</glyph>
<glyph name="lozenge" format="2">
	<advance width="862"/>
	<unicode hex="25CA"/>
	<outline>
		<contour>
			<point x="475" y="0" type="line"/>
			<point x="791" y="743" type="line"/>
			<point x="485" y="1481" type="line"/>
			<point x="387" y="1481" type="line"/>
			<point x="72" y="739" type="line"/>
			<point x="375" y="0" type="line"/>
		</contour>
		<contour>
			<point x="432" y="1399" type="line"/>
			<point x="690" y="739" type="line"/>
			<point x="432" y="84" type="line"/>
			<point x="172" y="750" type="line"/>
		</contour>
	</outline>
</glyph>
<glyph name="__horn" format="1">
  <advance width="186"/>
  <outline>
    <contour>
      <point x="256" y="1238" type="curve"/>
      <point x="154" y="1238" type="line"/>
      <point x="150" y="1092"/>
      <point x="112" y="1046"/>
      <point x="0" y="1048" type="curve"/>
      <point x="0" y="980" type="line"/>
      <point x="172" y="962"/>
      <point x="256" y="1048"/>
    </contour>
    <contour>
      <point x="0" y="980" type="move" name="_horn"/>
    </contour>
    <contour>
      <point x="126" y="1060" type="move" name="_topright"/>
    </contour>
    <contour>
      <point x="126" y="1060" type="move" name="topright"/>
    </contour>
  </outline>
</glyph>
<glyph name="_dot" format="2">
	<advance width="162"/>
	<outline>
		<contour>
			<point x="81" y="1359" type="curve" smooth="yes"/>
			<point x="120" y="1359"/>
			<point x="152" y="1392"/>
			<point x="152" y="1431" type="curve" smooth="yes"/>
			<point x="152" y="1468"/>
			<point x="120" y="1501"/>
			<point x="81" y="1501" type="curve" smooth="yes"/>
			<point x="42" y="1501"/>
			<point x="10" y="1468"/>
			<point x="10" y="1431" type="curve" smooth="yes"/>
			<point x="10" y="1392"/>
			<point x="42" y="1359"/>
		</contour>
	</outline>
</glyph>
<glyph name="_emdash" format="2">
	<advance width="2222"/>
	<outline>
		<contour>
			<point x="1832" y="559" type="line"/>
			<point x="390" y="557" type="line"/>
			<point x="390" y="477" type="line"/>
			<point x="1832" y="479" type="line"/>
		</contour>
	</outline>
</glyph>
<glyph name="_j-hook" format="2">
	<advance width="1229"/>
	<outline>
		<contour>
			<point x="522" y="287" type="curve" smooth="yes"/>
			<point x="522" y="485" type="line"/>
			<point x="444" y="485" type="line"/>
			<point x="444" y="315" type="line" smooth="yes"/>
			<point x="444" y="129"/>
			<point x="397" y="63"/>
			<point x="268" y="63" type="curve" smooth="yes"/>
			<point x="164" y="63"/>
			<point x="113" y="106"/>
			<point x="68" y="127" type="curve"/>
			<point x="47" y="39" type="line"/>
			<point x="61" y="27"/>
			<point x="156" y="-20"/>
			<point x="272" y="-20" type="curve" smooth="yes"/>
			<point x="465" y="-20"/>
			<point x="522" y="98"/>
		</contour>
	</outline>
</glyph>
<glyph name=".notdef" format="2">
	<advance width="1464"/>
	<outline>
		<contour>
			<point x="1239" y="-272" type="curve"/>
			<point x="1239" y="1649" type="line" smooth="yes"/>
			<point x="1239" y="1675"/>
			<point x="1227" y="1692"/>
			<point x="1204" y="1692" type="curve" smooth="yes"/>
			<point x="264" y="1692" type="line" smooth="yes"/>
			<point x="242" y="1692"/>
			<point x="225" y="1675"/>
			<point x="225" y="1645" type="curve" smooth="yes"/>
			<point x="225" y="-281" type="line" smooth="yes"/>
			<point x="225" y="-313"/>
			<point x="238" y="-330"/>
			<point x="281" y="-330" type="curve" smooth="yes"/>
			<point x="1174" y="-330" type="line" smooth="yes"/>
			<point x="1221" y="-330"/>
			<point x="1239" y="-313"/>
		</contour>
		<contour>
			<point x="1137" y="-182" type="line"/>
			<point x="1137" y="-215"/>
			<point x="1118" y="-229"/>
			<point x="1079" y="-229" type="curve" smooth="yes"/>
			<point x="375" y="-229" type="line" smooth="yes"/>
			<point x="340" y="-229"/>
			<point x="330" y="-215"/>
			<point x="330" y="-188" type="curve" smooth="yes"/>
			<point x="330" y="1554" type="line" smooth="yes"/>
			<point x="330" y="1577"/>
			<point x="344" y="1591"/>
			<point x="360" y="1591" type="curve" smooth="yes"/>
			<point x="1106" y="1591" type="line" smooth="yes"/>
			<point x="1124" y="1591"/>
			<point x="1137" y="1577"/>
			<point x="1137" y="1556" type="curve" smooth="yes"/>
		</contour>
		<contour>
			<point x="1079" y="-274" type="line"/>
			<point x="1200" y="-264" type="line"/>
			<point x="371" y="1663" type="line"/>
			<point x="268" y="1610" type="line"/>
		</contour>
	</outline>
</glyph>
